<svg width="100" height="46" viewBox="0 0 100 46" fill="none" xmlns="http://www.w3.org/2000/svg">
<g clip-path="url(#clip0_234_1333)">
<path d="M50.068 43.0216V40.6983H50.6038H51.1396L51.1468 41.0946L51.154 41.4908L51.226 41.3823C51.3281 41.2283 51.5479 41.0156 51.729 40.8958C52.4568 40.4139 53.5103 40.5341 54.0725 41.1633C54.2356 41.3458 54.3978 41.6548 54.4685 41.9177C54.5429 42.1943 54.5484 42.7676 54.4791 43.0346C54.258 43.8874 53.6187 44.3876 52.7504 44.3873C52.2209 44.3873 51.8289 44.2298 51.4709 43.8738C51.3532 43.7568 51.2315 43.6259 51.2004 43.5828L51.1438 43.5045L51.1424 44.4246L51.1409 45.3448H50.6044H50.0679L50.068 43.0216ZM52.8775 43.4835C53.062 43.3992 53.2711 43.1929 53.3527 43.0147C53.5563 42.5703 53.463 41.9873 53.141 41.6912C52.9579 41.5229 52.7684 41.4472 52.4971 41.434C52.0984 41.4147 51.7432 41.5711 51.4559 41.8926C51.3148 42.0505 51.1148 42.4064 51.1148 42.4995C51.1148 42.531 51.1641 42.6512 51.2243 42.7666C51.417 43.1362 51.7627 43.4249 52.1384 43.5302C52.352 43.59 52.6912 43.5686 52.8775 43.4835ZM32.2906 44.379C31.8037 44.3325 31.3453 44.1993 31.0255 44.0113C30.942 43.9623 30.7848 43.834 30.6761 43.7264C30.4078 43.4607 30.2931 43.2256 30.2206 42.7931L30.2064 42.7083H30.7553H31.3042L31.305 42.767C31.3058 42.8434 31.3938 43.0357 31.4789 43.1471C31.568 43.2636 31.7801 43.3962 31.9841 43.463C32.4538 43.6168 33.28 43.5714 33.6234 43.3729C34.0254 43.1406 34.0471 42.6179 33.663 42.4229C33.4604 42.3201 33.369 42.3089 32.6129 42.2931L31.8671 42.2776L31.8598 41.9187L31.8525 41.5597H32.3178C33.2142 41.5589 33.5544 41.474 33.7382 41.2033C33.792 41.1241 33.8037 41.0756 33.8037 40.9311C33.8037 40.7776 33.7937 40.7411 33.7252 40.6447C33.6318 40.5134 33.4482 40.4045 33.2147 40.342C32.9826 40.2799 32.4038 40.2789 32.175 40.3403C31.7574 40.4522 31.4767 40.6976 31.3993 41.0183L31.382 41.0901H30.8466H30.3113L30.3258 41.0053C30.3338 40.9586 30.3625 40.8441 30.3897 40.7507C30.5733 40.1206 31.2358 39.6351 32.1026 39.4954C32.3755 39.4514 33.1183 39.4511 33.3849 39.4946C34.0867 39.6097 34.6167 39.926 34.8179 40.3499C34.8952 40.5126 34.9028 40.5511 34.9028 40.7772C34.9028 41.0056 34.8958 41.0399 34.8165 41.2005C34.6746 41.488 34.4445 41.6823 34.0945 41.81C34.0015 41.844 33.951 41.8741 33.9738 41.882C33.9954 41.8894 34.0831 41.915 34.1687 41.9387C34.7919 42.1116 35.1137 42.5458 35.0279 43.0982C34.9447 43.6345 34.5663 44.0123 33.893 44.2312C33.501 44.3586 32.7773 44.4254 32.2909 44.379L32.2906 44.379ZM37.0543 44.3772C36.4813 44.2988 36.0006 43.9595 35.7554 43.4606C35.5889 43.1217 35.5572 42.9679 35.5572 42.4995C35.5572 42.0241 35.5884 41.8775 35.767 41.5147C35.9657 41.1111 36.2992 40.8313 36.7606 40.6809C36.9382 40.6231 37.0197 40.6123 37.2971 40.6102C37.686 40.6072 37.8282 40.6372 38.1488 40.7901C38.4007 40.9103 38.6844 41.1441 38.8264 41.3485C38.8672 41.4072 38.9086 41.4553 38.9183 41.4553C38.9281 41.4553 38.9511 41.3114 38.9694 41.1355C38.9878 40.9596 39.0089 40.7893 39.0164 40.757C39.03 40.6984 39.0311 40.6983 39.5788 40.6983H40.1276L40.1132 40.7701C40.1053 40.8095 40.056 41.2148 40.0037 41.6705L39.9086 42.4992L40.0039 43.3281C40.0563 43.784 40.1056 44.1894 40.1134 44.2288L40.1276 44.3006H39.578H39.0285L39.0147 44.2288C39.0071 44.1894 38.9875 44.0278 38.9711 43.8699C38.9546 43.712 38.9363 43.5669 38.9302 43.5475C38.9238 43.5267 38.8729 43.5749 38.8061 43.665C38.4113 44.198 37.74 44.4709 37.0543 44.3772ZM37.9374 43.5297C38.171 43.469 38.3368 43.3676 38.5552 43.1521C38.7069 43.0023 38.7808 42.9026 38.8693 42.7279L38.9851 42.4995L38.8691 42.271C38.7099 41.9578 38.4332 41.6778 38.1503 41.5437C37.9802 41.4632 37.9142 41.4466 37.7183 41.4355C37.4253 41.4188 37.2602 41.4577 37.0614 41.5901C36.7556 41.7937 36.5994 42.1424 36.6226 42.5691C36.639 42.8697 36.7111 43.0559 36.8842 43.2448C37.1495 43.5344 37.5267 43.6364 37.9374 43.5297ZM46.2923 44.3772C45.7193 44.2988 45.2385 43.9595 44.9933 43.4606C44.8269 43.1217 44.7951 42.9679 44.7951 42.4995C44.7951 42.0241 44.8264 41.8775 45.005 41.5147C45.2037 41.1111 45.5371 40.8313 45.9986 40.6809C46.1761 40.6231 46.2577 40.6123 46.5351 40.6102C46.924 40.6072 47.0662 40.6372 47.3868 40.7901C47.6386 40.9103 47.9223 41.1441 48.0644 41.3485C48.1052 41.4072 48.1465 41.4553 48.1563 41.4553C48.1661 41.4553 48.1891 41.3114 48.2074 41.1355C48.2257 40.9596 48.2469 40.7893 48.2544 40.757C48.2679 40.6984 48.2691 40.6983 48.8168 40.6983H49.3656L49.3512 40.7701C49.3432 40.8095 49.294 41.2148 49.2416 41.6705L49.1465 42.4992L49.2418 43.3281C49.2943 43.784 49.3436 44.1894 49.3514 44.2288L49.3656 44.3006H48.816H48.2665L48.2527 44.2288C48.2451 44.1894 48.2255 44.0278 48.209 43.8699C48.1926 43.712 48.1742 43.5669 48.1682 43.5475C48.1618 43.5267 48.1109 43.5749 48.0441 43.665C47.6493 44.198 46.978 44.4709 46.2923 44.3772ZM47.1753 43.5297C47.4089 43.469 47.5748 43.3676 47.7932 43.1521C47.9449 43.0023 48.0187 42.9026 48.1073 42.7279L48.223 42.4995L48.107 42.271C47.9479 41.9578 47.6712 41.6778 47.3883 41.5437C47.2182 41.4632 47.1522 41.4466 46.9563 41.4355C46.6632 41.4188 46.4982 41.4577 46.2994 41.5901C45.9936 41.7937 45.8374 42.1424 45.8606 42.5691C45.877 42.8697 45.9491 43.0559 46.1222 43.2448C46.3875 43.5344 46.7646 43.6364 47.1753 43.5297ZM56.8938 44.3786C56.29 44.321 55.7971 44.0954 55.4326 43.7099C55.1067 43.3653 54.9777 43.0219 54.9777 42.4995C54.9777 42.0137 55.0789 41.7108 55.3589 41.3587C55.7894 40.8174 56.6504 40.5231 57.5347 40.615C58.7407 40.7404 59.4714 41.4465 59.4714 42.4864C59.4714 43.0014 59.3329 43.3717 59.0123 43.7142C58.6512 44.0998 58.1671 44.3174 57.5332 44.3789C57.2499 44.4064 57.1851 44.4064 56.8938 44.3789V44.3786ZM57.5003 43.5688C58.1171 43.4722 58.4895 42.946 58.3909 42.3102C58.3332 41.9382 58.165 41.6972 57.8587 41.5474C57.6481 41.4443 57.467 41.4031 57.2255 41.4031C56.8619 41.4031 56.4867 41.5448 56.3077 41.7497C55.9861 42.1179 55.9523 42.737 56.2317 43.1417C56.472 43.4897 56.9588 43.6536 57.5003 43.5688ZM66.472 44.3786C65.8681 44.321 65.3753 44.0954 65.0108 43.7099C64.6849 43.3653 64.5559 43.0219 64.5559 42.4995C64.5559 42.0137 64.6571 41.7108 64.9371 41.3587C65.3676 40.8174 66.2285 40.5231 67.1129 40.615C68.3189 40.7404 69.0496 41.4465 69.0496 42.4864C69.0495 43.0014 68.9111 43.3717 68.5904 43.7142C68.2294 44.0998 67.7453 44.3174 67.1114 44.3789C66.8281 44.4064 66.7633 44.4064 66.472 44.3789V44.3786ZM67.0785 43.5688C67.6953 43.4722 68.0677 42.946 67.9691 42.3102C67.9114 41.9382 67.7432 41.6972 67.4369 41.5474C67.2263 41.4443 67.0452 41.4031 66.8037 41.4031C66.4401 41.4031 66.0649 41.5448 65.8859 41.7497C65.5643 42.1179 65.5305 42.737 65.8099 43.1417C66.0502 43.4897 66.5369 43.6536 67.0785 43.5688ZM78.3111 44.3785C77.9843 44.3448 77.6916 44.2626 77.4156 44.127C77.2057 44.0239 77.1301 43.9679 76.9304 43.7677C76.6758 43.5126 76.5326 43.2783 76.4261 42.9432C76.3213 42.6137 76.304 42.4737 76.3063 41.9774C76.3083 41.5437 76.3156 41.4678 76.3774 41.2334C76.5067 40.7435 76.7528 40.3397 77.0925 40.0602C77.5283 39.7016 78.0212 39.5453 78.9465 39.4723C79.7483 39.4091 80.1139 39.3575 80.351 39.2741L80.4525 39.2383L80.4453 39.6861L80.4382 40.1338L80.255 40.18C80.0216 40.2389 79.7405 40.271 79.0368 40.3191C78.246 40.3731 77.9148 40.4755 77.6228 40.7562C77.3576 41.0112 77.181 41.4617 77.1802 41.8856V41.9896L77.2353 41.8856C77.4484 41.4827 77.8557 41.1875 78.3763 41.0585C78.6774 40.984 79.2207 40.9792 79.4963 41.0486C80.169 41.2182 80.6374 41.6897 80.7561 42.3167C80.8391 42.7553 80.7499 43.2201 80.5153 43.5722C80.1839 44.0693 79.5957 44.3473 78.7897 44.3877C78.6458 44.3949 78.4305 44.3908 78.3113 44.3785H78.3111ZM78.9639 43.5581C79.2893 43.4893 79.4891 43.3435 79.6191 43.0801C79.6975 42.9213 79.7054 42.8834 79.7054 42.6691C79.7054 42.4553 79.6974 42.4168 79.6199 42.2597C79.5728 42.1643 79.4909 42.0483 79.4379 42.0018C79.0742 41.6833 78.3918 41.6614 77.9353 41.9536C77.7724 42.0579 77.5534 42.2955 77.4577 42.4718L77.3821 42.6112L77.4258 42.7492C77.615 43.3479 78.2868 43.7012 78.9639 43.5581ZM82.7732 44.3772C82.2002 44.2988 81.7194 43.9595 81.4742 43.4606C81.3077 43.1217 81.276 42.9679 81.276 42.4995C81.276 42.0241 81.3072 41.8775 81.4859 41.5147C81.6845 41.1111 82.018 40.8313 82.4794 40.6809C82.657 40.6231 82.7385 40.6123 83.0159 40.6102C83.4048 40.6072 83.5471 40.6372 83.8676 40.7901C84.1195 40.9103 84.4032 41.1441 84.5452 41.3485C84.586 41.4072 84.6274 41.4553 84.6372 41.4553C84.6469 41.4553 84.6699 41.3114 84.6882 41.1355C84.7066 40.9596 84.7277 40.7893 84.7352 40.757C84.7488 40.6984 84.75 40.6983 85.2976 40.6983H85.8464L85.832 40.7701C85.8241 40.8095 85.7748 41.2148 85.7225 41.6705L85.6274 42.4992L85.7227 43.3281C85.7751 43.784 85.8244 44.1894 85.8322 44.2288L85.8464 44.3006H85.2969H84.7473L84.7335 44.2288C84.7259 44.1894 84.7063 44.0278 84.6899 43.8699C84.6735 43.712 84.6551 43.5669 84.6491 43.5475C84.6426 43.5267 84.5917 43.5749 84.525 43.665C84.1301 44.198 83.4589 44.4709 82.7732 44.3772ZM83.6562 43.5297C83.8898 43.469 84.0557 43.3676 84.2741 43.1521C84.4258 43.0023 84.4996 42.9026 84.5881 42.7279L84.7039 42.4995L84.5879 42.271C84.4288 41.9578 84.1521 41.6778 83.8691 41.5437C83.699 41.4632 83.633 41.4466 83.4372 41.4355C83.1441 41.4188 82.979 41.4577 82.7803 41.5901C82.4745 41.7937 82.3182 42.1424 82.3415 42.5691C82.3579 42.8697 82.4299 43.0559 82.6031 43.2448C82.8684 43.5344 83.2455 43.6364 83.6562 43.5297ZM97.7431 44.378C96.8227 44.2749 96.1478 43.7746 95.9133 43.0215C95.8615 42.8552 95.8527 42.7728 95.8545 42.4733C95.8563 42.1659 95.8654 42.0943 95.9257 41.9121C95.9638 41.7973 96.0392 41.6287 96.0935 41.5376C96.2187 41.327 96.5386 41.0212 96.7665 40.8941C97.257 40.6204 97.9641 40.5271 98.5347 40.6606C99.0949 40.7918 99.5912 41.2328 99.8109 41.7947C99.9204 42.0748 99.9991 42.4796 100 42.767V42.8388H98.4952C97.6676 42.8388 96.9906 42.8476 96.9907 42.8584C96.9915 42.9143 97.1565 43.1537 97.26 43.2488C97.49 43.4603 97.7778 43.5647 98.1943 43.5876C98.6917 43.615 99.1876 43.5116 99.6402 43.286L99.8953 43.1589V43.506C99.8953 43.9111 99.9129 43.883 99.5485 44.0618C99.0185 44.3219 98.3252 44.4433 97.7429 44.378H97.7431ZM98.943 42.0495C98.8969 41.8198 98.635 41.5373 98.3761 41.438C98.1919 41.3674 97.7286 41.375 97.5338 41.4519C97.3368 41.5295 97.1171 41.7307 97.0311 41.9121C96.9164 42.1538 96.8335 42.134 97.9622 42.134H98.9599L98.943 42.0495ZM86.5852 44.3401C86.4973 44.321 86.3765 44.2806 86.317 44.2503L86.2087 44.1952V43.8154V43.4357L86.2675 43.4545C86.8085 43.6276 87.094 43.4564 87.2067 42.891C87.266 42.5938 87.2376 41.2479 87.1622 40.7831L87.1484 40.6983H89.0207H90.8931V42.4995V44.3006H90.3566H89.8201V42.891V41.4814H88.9937H88.1672L88.1883 41.749C88.2414 42.4208 88.1944 43.1635 88.0756 43.5306C87.9697 43.8576 87.7681 44.1218 87.5342 44.24C87.2774 44.3698 86.9037 44.4092 86.5852 44.3401ZM24.0817 44.2823C24.0817 44.2709 24.1274 43.8642 24.1828 43.3786L24.2836 42.4957L24.1828 41.6166C24.1273 41.133 24.0818 40.7286 24.0816 40.7178C24.0808 40.6876 27.035 40.694 27.1966 40.7245C27.5024 40.7824 27.7867 40.975 27.9091 41.2073C27.9496 41.2842 27.9671 41.3746 27.9754 41.5508C27.9854 41.7638 27.9796 41.8052 27.9216 41.9315C27.8451 42.0982 27.7145 42.2362 27.5377 42.3369L27.4104 42.4094L27.5602 42.4534C27.9976 42.582 28.2423 42.9326 28.2083 43.3817C28.1773 43.7904 27.9307 44.0787 27.4834 44.2292C27.3168 44.2853 27.2801 44.2866 25.6973 44.2948C24.8085 44.2994 24.0815 44.2938 24.0817 44.2823ZM26.9337 43.5552C26.9841 43.5258 27.0528 43.4611 27.0865 43.4117C27.1376 43.3367 27.1461 43.2967 27.1373 43.1716C27.1287 43.0496 27.1123 43.0062 27.0499 42.94C26.9032 42.7843 26.8623 42.7772 26.0481 42.7656C25.6401 42.7598 25.2963 42.7648 25.2842 42.7774C25.272 42.7896 25.2437 42.9465 25.2212 43.1259C25.1988 43.3054 25.1738 43.4912 25.1658 43.5387L25.1513 43.6252L25.9967 43.617C26.7944 43.6094 26.8474 43.6058 26.9337 43.5552ZM26.7188 42.1082C26.8044 42.0695 26.8429 42.031 26.8818 41.9456C26.9465 41.8035 26.9465 41.7329 26.8818 41.6C26.7829 41.3963 26.7601 41.3912 25.9039 41.3817L25.1491 41.3734L25.1634 41.447C25.1712 41.4874 25.1906 41.6321 25.2064 41.7685C25.2221 41.9049 25.2413 42.0488 25.2489 42.0883L25.2629 42.1601L25.9347 42.1593C26.5434 42.1585 26.617 42.154 26.7186 42.1079L26.7188 42.1082ZM40.429 44.2419C40.4581 44.2096 40.7468 43.866 41.0705 43.4784C41.3942 43.0907 41.7189 42.7024 41.7921 42.6155L41.9252 42.4574L41.478 41.9107C41.2321 41.61 40.9084 41.2142 40.7587 41.0311L40.4865 40.6983H41.0835H41.6806L42.123 41.2333C42.3663 41.5275 42.5795 41.7799 42.5968 41.7942C42.6196 41.8131 42.7556 41.6672 43.0958 41.2589L43.5635 40.6977H44.151H44.7385L44.6855 40.7564C44.5195 40.9404 43.3117 42.4018 43.2996 42.4333C43.2905 42.457 43.5492 42.7831 43.9982 43.3137C44.3904 43.7772 44.7413 44.189 44.778 44.2287L44.8448 44.301L44.2317 44.294L43.6186 44.287L43.1642 43.7518C42.9143 43.4575 42.6832 43.1834 42.6508 43.1428L42.5918 43.0688L42.0768 43.6844L41.5618 44.3H40.9689H40.376L40.429 44.2419ZM60.0129 44.2823C60.0129 44.2709 60.0586 43.8642 60.1141 43.3786L60.2148 42.4957L60.114 41.6166C60.0586 41.133 60.0131 40.7286 60.0129 40.7178C60.0121 40.6876 62.9663 40.694 63.1279 40.7245C63.4337 40.7824 63.718 40.975 63.8404 41.2073C63.8809 41.2842 63.8984 41.3746 63.9067 41.5508C63.9167 41.7638 63.9108 41.8052 63.8529 41.9315C63.7764 42.0982 63.6457 42.2362 63.469 42.3369L63.3417 42.4094L63.4915 42.4534C63.9289 42.582 64.1736 42.9326 64.1396 43.3817C64.1086 43.7904 63.862 44.0787 63.4147 44.2292C63.2481 44.2853 63.2114 44.2866 61.6286 44.2948C60.7398 44.2994 60.0127 44.2938 60.0129 44.2823ZM62.865 43.5552C62.9153 43.5258 62.9841 43.4611 63.0178 43.4117C63.0689 43.3367 63.0773 43.2967 63.0686 43.1716C63.06 43.0496 63.0436 43.0062 62.9812 42.94C62.8344 42.7843 62.7936 42.7772 61.9794 42.7656C61.5713 42.7598 61.2276 42.7648 61.2155 42.7774C61.2033 42.7896 61.175 42.9465 61.1525 43.1259C61.1301 43.3054 61.1051 43.4912 61.0971 43.5387L61.0826 43.6252L61.928 43.617C62.7257 43.6094 62.7787 43.6058 62.865 43.5552ZM62.6501 42.1082C62.7357 42.0695 62.7742 42.031 62.8131 41.9456C62.8777 41.8035 62.8778 41.7329 62.8131 41.6C62.7142 41.3963 62.6913 41.3912 61.8352 41.3817L61.0804 41.3734L61.0947 41.447C61.1025 41.4874 61.1219 41.6321 61.1376 41.7685C61.1534 41.9049 61.1726 42.0488 61.1802 42.0883L61.1941 42.1601L61.8659 42.1593C62.4747 42.1585 62.5483 42.154 62.6498 42.1079L62.6501 42.1082ZM69.6693 42.4999V40.6983H70.1924H70.7156L70.7224 42.0008L70.7292 43.3033L71.6816 42.0008L72.6341 40.6983H73.3238H74.0135V42.4995V44.3006H73.4903H72.9672L72.9604 42.969L72.9536 41.6373L71.9844 42.9624L71.0153 44.2876L70.3423 44.2945L69.6693 44.3014L69.6693 42.4999ZM91.7043 42.4999V40.6987H92.2405H92.7767L92.7835 41.816L92.7903 42.9334L93.7008 41.816L94.6112 40.6987H95.1905H95.7697L95.7173 40.7575C95.3896 41.1242 94.5306 42.1385 94.5306 42.1587C94.5306 42.1731 94.8309 42.6556 95.198 43.2308C95.565 43.806 95.8653 44.2822 95.8653 44.2889C95.8653 44.2956 95.5958 44.3011 95.2664 44.3011H94.6675L94.2722 43.655C94.0548 43.2996 93.8673 42.9944 93.8556 42.9766C93.8412 42.9546 93.6468 43.1618 93.2496 43.6226L92.6648 44.3011H92.1845H91.7043L91.7043 42.4999ZM71.3834 40.316C70.8847 40.2096 70.5074 39.8391 70.391 39.3415L70.3543 39.1847H70.7702H71.1861L71.2034 39.2564C71.2507 39.4524 71.3884 39.6211 71.5592 39.6923C71.6931 39.7481 71.9589 39.7437 72.0918 39.6834C72.226 39.6227 72.3562 39.4675 72.4011 39.3152L72.4356 39.1977L72.8451 39.1905C73.3063 39.1824 73.2772 39.1655 73.2145 39.4055C73.0899 39.8828 72.7316 40.2118 72.2186 40.3202C71.99 40.3685 71.6207 40.3667 71.3834 40.316ZM5.88013 38.3866C5.75059 38.3668 5.57394 38.3335 5.48758 38.3126C5.40122 38.2917 5.21868 38.2497 5.08194 38.2193C4.59095 38.1101 4.48828 38.0849 4.15291 37.9918C3.42105 37.7885 2.80866 37.498 2.35348 37.1382C1.90547 36.7841 1.59355 36.3654 0.795944 35.0476C0.209068 34.078 0.00236584 33.4711 1.873e-05 32.7109C-0.00259826 31.8658 0.268825 31.1068 0.938742 30.0859C1.26275 29.5922 1.3288 29.4906 1.84205 28.6966C2.01579 28.4278 2.2548 28.0611 2.37319 27.8816C2.60127 27.5359 2.81948 27.1979 2.9491 26.9897C3.04407 26.837 3.39659 26.28 3.65216 25.8786C3.75485 25.7173 3.93803 25.4295 4.05923 25.239C4.18042 25.0486 4.42364 24.6682 4.59971 24.3938C4.77579 24.1194 4.93867 23.861 4.96166 23.8195C4.98466 23.7781 5.12166 23.5621 5.26612 23.3395C5.41057 23.117 5.66548 22.7059 5.83257 22.4259C5.99967 22.1459 6.17387 21.8581 6.21968 21.7863C6.2655 21.7146 6.42468 21.4503 6.57343 21.199C6.72218 20.9478 6.92234 20.613 7.01824 20.455C7.21383 20.1329 7.55765 19.5437 7.64274 19.3848C7.67349 19.3273 7.72751 19.2334 7.7628 19.1759C7.79809 19.1185 7.90029 18.9423 7.98991 18.7844C8.07954 18.6264 8.21937 18.3857 8.30064 18.2493C8.38191 18.1129 8.5052 17.8955 8.57461 17.7663C8.64403 17.6371 8.80672 17.3434 8.93615 17.1137C9.06558 16.884 9.27726 16.5081 9.40656 16.2784C9.53587 16.0487 9.70702 15.7491 9.78692 15.6128C9.86681 15.4764 9.95207 15.3295 9.97638 15.2865C11.1959 13.1258 12.4607 11.2528 13.166 10.5627C13.4146 10.3194 13.4245 10.3914 13.2087 10.8749C13.1895 10.9179 13.1067 11.1109 13.0246 11.3036C12.9425 11.4963 12.8647 11.6725 12.8518 11.6951C12.8388 11.7178 12.7526 11.9125 12.6602 12.1279C12.5123 12.4728 12.2915 12.9588 12.0376 13.4983C11.9937 13.5917 11.9197 13.7561 11.8733 13.8638C11.8268 13.9715 11.7502 14.1418 11.703 14.2423C11.6558 14.3428 11.577 14.5131 11.5279 14.6208C11.2279 15.278 10.4791 16.788 9.90327 17.8969C9.57242 18.534 9.37973 18.8979 8.78389 20.0113C8.71474 20.1405 8.59543 20.3553 8.51876 20.4886C8.44208 20.6219 8.37935 20.7357 8.37935 20.7415C8.37935 20.7631 7.69477 21.9891 7.35865 22.5695C7.16741 22.8997 6.92634 23.3167 6.82295 23.4961C6.71955 23.6756 6.51222 24.014 6.36222 24.2481C6.21221 24.4822 6.0672 24.7113 6.03997 24.7571C6.01273 24.803 5.87731 25.0084 5.73901 25.2136C5.00407 26.3042 4.98302 26.3352 4.66323 26.7955C4.56967 26.9302 4.33414 27.2732 4.13983 27.5577C3.94552 27.8423 3.64522 28.2818 3.4725 28.5343C3.29977 28.7869 3.0878 29.0969 3.00144 29.2232C2.91508 29.3495 2.73306 29.6132 2.59696 29.8093C2.23551 30.33 1.83619 30.985 1.68786 31.3005C1.51073 31.6773 1.3116 32.2672 1.2581 32.5737C1.20257 32.8917 1.27595 33.3493 1.43958 33.7056C1.58156 34.0147 1.74468 34.2575 2.41101 35.1516C2.53942 35.3239 2.71776 35.5693 2.80735 35.697C3.1101 36.1286 3.45925 36.4803 3.71386 36.6102C4.03621 36.7746 4.53638 36.9296 5.14737 37.0544C5.83039 37.194 5.95451 37.2101 6.35119 37.2112C6.77819 37.2124 7.01162 37.1661 7.2933 37.0244C7.51404 36.9134 7.86892 36.5252 8.36615 35.851C8.89208 35.1377 9.57945 34.3355 10.0838 33.8464C10.8588 33.0947 11.8023 32.3851 12.7105 31.8708C13.3499 31.5088 14.5262 30.9527 15.4845 30.5596C15.614 30.5065 15.7436 30.4527 15.7724 30.4402C15.8011 30.4276 15.8954 30.3882 15.9817 30.3524C16.1293 30.2914 16.4955 30.1382 17.2902 29.805C18.5845 29.2624 18.964 29.0721 19.724 28.5847C21.1488 27.671 22.4482 26.541 23.8199 25.023C24.3513 24.4349 24.8972 23.7716 25.1543 23.4016C25.1759 23.3705 25.2936 23.2017 25.416 23.0264C25.808 22.4646 26.0474 22.0832 26.2596 21.6819C26.455 21.3123 26.5267 21.2001 26.5502 21.2267C26.5644 21.2428 26.4327 21.7614 26.3477 22.0241C26.3249 22.0943 26.2463 22.3398 26.1728 22.5695C26.0287 23.0204 25.9596 23.2152 25.8857 23.3787C25.8598 23.4361 25.7796 23.6182 25.7075 23.7833C25.3191 24.6733 24.7669 25.5993 24.0753 26.5207C23.6225 27.124 23.3457 27.4434 22.8266 27.962C21.5985 29.1888 20.3008 30.0536 18.5202 30.8318C17.9196 31.0943 17.4236 31.2832 16.5705 31.5745C16.333 31.6556 16.0327 31.7619 15.9032 31.8107C15.0571 32.1295 14.3874 32.3902 14.2283 32.4628C14.1564 32.4956 13.9735 32.5769 13.8221 32.6435C12.721 33.1273 11.5196 33.9468 10.7248 34.7562C10.2519 35.2379 9.559 36.1586 9.15803 36.8382C8.8758 37.3165 8.53938 37.7051 8.21433 37.9282C8.06664 38.0295 7.68136 38.224 7.48958 38.2939C7.12577 38.4266 6.41126 38.4678 5.88013 38.3866ZM24.6309 37.6418C24.1821 37.6052 24.0318 37.5189 24.0093 37.2849C23.9982 37.1701 24.0114 37.1311 24.1527 36.8599C24.2383 36.6956 24.4179 36.385 24.5517 36.1696C25.2038 35.1203 25.4107 34.7567 25.8211 33.9387C26.1408 33.3015 26.3435 32.8665 26.8612 31.7059C28.6972 27.5896 30.4701 23.7455 32.646 19.1629C34.0536 16.1982 35.7739 12.6865 36.403 11.4933C36.5644 11.1873 36.6903 10.9272 36.6828 10.9152C36.6639 10.8846 36.0999 10.5567 35.3536 10.1424C31.6938 8.11071 27.7815 6.68514 24.2924 6.11192C23.4998 5.98171 22.3279 5.86299 22.3279 5.91292C22.3279 5.9232 22.3403 5.95461 22.3553 5.98272C22.4285 6.11911 22.511 6.64701 22.5254 7.07174C22.5414 7.54033 22.5132 8.10785 22.4739 8.10785C22.4512 8.10785 22.4228 7.99752 22.3543 7.64264C22.2805 7.2607 22.054 6.74364 21.8103 6.4007C21.5137 5.98324 20.7642 5.31602 20.1035 4.88108C19.1408 4.24744 18.4212 3.95922 17.2084 3.72151C16.6323 3.60861 15.5144 3.5016 13.8096 3.39616C12.9761 3.34462 12.2291 3.28785 11.7553 3.24004C11.6185 3.22624 11.3204 3.20203 11.0928 3.18623C10.667 3.15667 10.6038 3.16564 10.6038 3.25558C10.6038 3.31089 11.0833 3.81725 11.4729 4.17348C12.3825 5.00496 13.3491 5.60173 14.4639 6.02005C14.7432 6.12487 15.1999 6.25459 15.4268 6.29355C15.5161 6.30888 15.6716 6.33865 15.7724 6.35975C16.0115 6.40981 16.6875 6.50278 16.8111 6.5026C16.917 6.5026 16.9573 6.53781 16.9126 6.59163C16.8456 6.67207 15.3759 7.31658 14.4508 7.67114C14.1615 7.782 13.1298 8.12691 12.2263 8.4148C11.7137 8.57813 11.4386 8.66291 10.2898 9.01179C9.33934 9.3004 9.1779 9.35034 8.98126 9.41644C8.62843 9.53506 7.92485 9.79721 7.76436 9.86986C7.678 9.90896 7.49546 9.98532 7.35873 10.0395C6.5328 10.367 5.48352 10.887 4.5978 11.4079C4.42508 11.5094 4.26825 11.5926 4.24928 11.5926C4.13541 11.5926 4.44956 11.1847 4.91198 10.7313C5.33528 10.3163 5.28506 10.3629 5.60534 10.0885C6.01282 9.73943 6.18053 9.61903 6.78207 9.24369C7.01241 9.09996 7.73219 8.72331 7.86904 8.6749C7.91222 8.65962 8.06531 8.59811 8.20925 8.53819C8.64818 8.35547 9.27145 8.14095 10.0673 7.89866C10.2832 7.83293 10.5187 7.76083 10.5907 7.73844C10.8074 7.67101 11.4042 7.50671 11.8076 7.40345C12.9906 7.10061 13.5405 6.95455 13.6442 6.91558C13.7872 6.86184 13.7436 6.75336 13.5667 6.72247C13.3549 6.68549 12.6883 6.45795 12.2525 6.27383C11.3428 5.88953 10.693 5.47891 9.88412 4.77718C8.89358 3.91784 7.54075 2.18454 6.93634 1.00038C6.78054 0.695139 6.77641 0.655167 6.90075 0.655167C6.95113 0.655167 6.99235 0.665833 6.99235 0.678876C6.99235 0.691912 7.06006 0.726081 7.14283 0.754795C7.22559 0.783518 7.43398 0.856227 7.60593 0.916372C8.31021 1.16273 9.08892 1.36845 9.83178 1.50439C10.767 1.67554 11.374 1.73273 12.7366 1.77807C13.656 1.80865 15.0574 1.87664 15.141 1.89471C15.1716 1.90132 15.3791 1.91964 15.6022 1.93538C16.7367 2.01546 18.1317 2.32436 18.9651 2.68005C19.7236 3.0038 20.3509 3.39168 20.9254 3.89221C21.2452 4.17081 21.3805 4.32006 21.6057 4.64221C21.6884 4.76046 21.7697 4.86566 21.7865 4.87598C21.8032 4.8863 22.294 4.8965 22.8771 4.89865C24.5728 4.90485 26.5039 5.0423 27.7974 5.24883C27.963 5.27526 28.2691 5.32198 28.4778 5.35265C29.6055 5.51838 30.5818 5.72059 32.1547 6.11421C33.2409 6.38601 34.3995 6.76653 35.4652 7.20151C36.725 7.71569 37.5516 8.0815 37.9514 8.30171C38.0305 8.34532 38.1091 8.38122 38.1261 8.38148C38.143 8.38148 38.4015 7.99723 38.7006 7.52703C39.7052 5.94758 40.3794 4.97405 40.9178 4.32553C41.4336 3.70414 41.8242 3.34358 42.1255 3.21063C42.2343 3.16265 42.2891 3.15708 42.5729 3.16508C42.8832 3.17383 42.8991 3.17703 42.9666 3.24429C43.0213 3.29894 43.0395 3.34648 43.0489 3.46023C43.0797 3.8304 42.9206 4.1955 42.3428 5.0804C42.1225 5.41783 41.8339 5.86115 41.7015 6.06555C41.004 7.14218 40.8642 7.347 40.1679 8.31147C39.8495 8.75257 39.6258 9.10517 39.6271 9.16399C39.6279 9.18622 39.7932 9.31412 39.9972 9.44984C41.6081 10.5215 43.3212 11.9052 44.5069 13.0923C45.8806 14.4677 46.9549 15.8883 47.8464 17.5086C48.5305 18.752 49.0973 20.1596 49.4373 21.46C49.7529 22.6669 49.9328 24.229 49.9064 25.5341C49.9003 25.8336 49.8972 26.0761 49.8995 26.073C49.9018 26.0699 50.0188 25.7972 50.1595 25.467C51.0914 23.2799 52.0609 21.7291 52.8245 21.2042C53.3463 20.8454 53.8019 20.7113 54.4166 20.7353C54.7873 20.7498 54.8505 20.7709 55.1024 20.9634C55.2101 21.0458 55.3001 21.0946 55.3442 21.0946C55.3967 21.0946 55.4845 21.0301 55.6919 20.8394C57.192 19.4596 58.1111 18.7961 59.2144 18.2961C60.2094 17.8453 60.9485 17.66 62.0244 17.5918C63.4066 17.5042 64.4372 17.8391 65.2481 18.6395C65.5389 18.9265 65.6728 19.1147 65.8504 19.4858C66.0723 19.9497 66.2153 20.4797 66.2984 21.1468C66.3521 21.5766 66.3442 22.8747 66.2854 23.3134C65.8702 26.4084 64.1227 29.8312 61.5094 32.6679C60.6697 33.5793 59.5939 34.4674 58.6268 35.0475L58.4579 35.1488L58.5372 35.181C58.6878 35.2423 59.164 35.2975 59.6724 35.3125C60.3949 35.3337 61.0249 35.273 61.7529 35.112C63.3086 34.768 65.1536 33.9653 67 32.8294C67.8024 32.3357 67.7655 32.3662 67.8511 32.1248C68.0302 31.6198 68.2806 31.2199 68.6105 30.9124C69.1625 30.3978 69.6293 30.1063 70.0161 30.0345L70.1142 30.0163L70.115 30.574C70.116 31.3922 70.1798 31.9396 70.3252 32.3777C70.4696 32.8125 70.6082 33.0146 70.8338 33.1194C70.9471 33.172 71.0058 33.1803 71.2665 33.1805C71.8487 33.1813 72.2209 33.097 72.6997 32.8572C73.3414 32.5357 74.1997 31.8425 74.9842 31.012C76.685 29.2117 79.157 26.1243 80.4689 24.1618C81.1821 23.095 81.4397 22.5392 81.8479 21.186C82.1333 20.2399 82.2909 19.8021 82.5097 19.3464C82.6982 18.954 82.7105 18.936 82.9453 18.7069C83.4376 18.2264 83.8715 17.9934 84.5339 17.8536C84.7444 17.8092 84.875 17.8015 85.3845 17.8036C85.7274 17.805 86.0225 17.8179 86.0703 17.8336C86.2673 17.898 86.3212 18.1657 86.263 18.7906C86.153 19.9708 85.6467 21.5081 84.7906 23.2612C84.5414 23.7715 84.4991 23.8856 83.8796 25.7186C83.0437 28.1916 82.8162 28.9037 82.2052 30.9592C81.9407 31.8492 81.8998 32.027 81.8794 32.3769C81.8633 32.654 81.8637 32.6568 81.9283 32.6991C82.1013 32.8121 82.2912 32.7716 82.8198 32.5085C84.8095 31.5185 87.5069 29.2935 89.4415 27.0463C89.596 26.8668 89.8805 26.5236 90.0737 26.2835L90.4249 25.847L90.5692 25.4612C90.7271 25.0391 91.0224 24.2035 91.2589 23.5092C92.2383 20.6351 92.8052 19.2704 93.3625 18.445C93.5815 18.1208 94.038 17.6719 94.3104 17.513C94.6915 17.2907 95.1129 17.1844 95.8511 17.1244C96.5105 17.0708 96.7871 17.117 96.8916 17.2983C96.9496 17.399 97.0006 18.0307 96.9767 18.3537C96.8845 19.6004 95.9338 21.7449 94.4321 24.0935C94.0556 24.6823 93.9363 25.0299 92.7688 28.9388C92.2366 30.7206 92.0005 31.5891 91.74 32.7239L91.6141 33.2721L91.6133 33.8475C91.6125 34.5078 91.6186 34.529 91.8308 34.6235C91.9845 34.692 92.4611 34.7172 92.7058 34.6697C93.1182 34.5898 93.9887 34.243 94.6746 33.8855C95.781 33.3089 97.3454 32.3763 99.1056 31.2441C99.3693 31.0746 99.5946 30.9358 99.6062 30.9358C99.6179 30.9358 99.7111 31.0469 99.8135 31.1827L99.9995 31.4296L99.8363 31.5441C98.5066 32.4765 98.0156 32.7936 96.4934 33.7035C95.9249 34.0433 95.2359 34.4604 94.9625 34.6305C93.638 35.4538 92.103 36.2509 91.1678 36.6007C90.357 36.904 89.4977 37.152 88.9565 37.2389C88.3156 37.3418 88.0247 37.2398 87.9109 36.8722C87.7709 36.4202 87.7743 35.9102 87.9221 35.1926C88.0069 34.781 88.2799 33.6588 88.4496 33.0241C88.5935 32.4862 88.7488 31.9254 88.84 31.6145C88.8926 31.435 88.9508 31.2353 88.9692 31.1707C88.9876 31.1061 89.1762 30.4718 89.3882 29.7611C89.8505 28.211 89.8259 28.2961 89.8154 28.287C89.8108 28.283 89.7823 28.2721 89.7522 28.2629C89.7063 28.2489 89.6409 28.3105 89.3476 28.6447C88.6509 29.4383 87.7852 30.2578 86.418 31.4177C85.3985 32.2825 82.3062 34.8605 82.0738 35.0392C81.1894 35.7195 79.7087 36.4835 78.9705 36.6407C78.7159 36.6949 78.4693 36.6769 78.3005 36.5919C78.2104 36.5466 78.1718 36.5037 78.1101 36.3804C78.0396 36.2397 78.0316 36.1967 78.0219 35.9048C78.0005 35.2656 78.1417 34.6068 78.6976 32.75C78.9144 32.0259 79.5987 29.7152 79.8108 28.991C79.8445 28.8762 80.0318 28.2383 80.2271 27.5734C80.4223 26.9086 80.5821 26.3491 80.5821 26.3301C80.5821 26.3111 80.5452 26.2804 80.5001 26.2617C80.4309 26.2332 80.4135 26.2338 80.3888 26.2656C80.3728 26.2863 80.1426 26.5909 79.8772 26.9424C78.9698 28.1445 76.6166 31.0516 75.7677 32.0191C73.5245 34.5757 71.6433 35.9798 70.0169 36.3112C68.8016 36.5589 68.0612 36.3649 67.7328 35.7129C67.6136 35.4761 67.5151 35.1728 67.4564 34.8612C67.3968 34.5452 67.396 33.9709 67.4547 33.6637C67.4794 33.5345 67.5067 33.3894 67.5153 33.3413L67.531 33.2538L67.3112 33.3952C66.3927 33.986 64.7895 34.8701 63.8988 35.277C62.3596 35.98 60.8629 36.3376 59.005 36.4463C58.1639 36.4955 57.3893 36.4595 56.911 36.349L56.7274 36.3066L56.4922 36.4242C55.3924 36.9744 54.2494 37.2761 52.9479 37.3597C50.9188 37.4901 49.5004 36.7073 48.7979 35.0696C48.4912 34.3545 48.3819 33.7085 48.3833 32.6195C48.3848 31.4869 48.4962 30.6858 48.8265 29.4332C48.876 29.2457 48.9164 29.0754 48.9163 29.0547C48.9162 29.0341 48.8477 29.1405 48.7641 29.2913C48.1349 30.4254 47.3775 31.4041 46.2882 32.4907C44.7292 34.0457 43.3155 34.9866 41.2225 35.8619C38.787 36.8805 36.0253 37.4318 32.678 37.5676C32.2894 37.5833 30.6466 37.6084 29.0273 37.6233C27.4081 37.6381 25.8183 37.6534 25.4944 37.6573C25.1706 37.6611 24.782 37.6542 24.6309 37.6418ZM54.5169 35.5453C54.5169 35.5394 54.4254 35.4705 54.3136 35.3924C53.875 35.0858 53.4853 34.6866 53.2138 34.266C52.8222 33.6589 52.4682 32.6625 52.3341 31.7899C52.1801 30.7875 52.1796 30.0173 52.332 28.6026C52.3843 28.1168 52.3843 28.1166 52.3092 28.1166C52.2572 28.1166 52.2411 28.1383 52.2073 28.2536C52.1852 28.329 52.1122 28.5766 52.045 28.8038C51.906 29.274 51.8399 29.5606 51.7827 29.9401C51.6535 30.7985 51.6009 32.1724 51.6757 32.737C51.7892 33.5928 52.1112 34.3266 52.5906 34.8216C52.959 35.202 53.3176 35.3973 53.8654 35.5158C54.0175 35.5488 54.5169 35.5714 54.5169 35.5453ZM57.484 34.5705C58.525 33.9479 59.4585 33.0044 60.3443 31.6798C61.7 29.6523 62.6417 26.9861 62.866 24.5403C62.9093 24.0684 62.9031 23.1771 62.8541 22.8356C62.7438 22.0666 62.5072 21.4271 62.16 20.9593C61.7968 20.47 61.1913 20.1798 60.3676 20.1004C59.874 20.0528 59.4406 20.1059 58.7172 20.3024C57.5168 20.6285 56.7468 21.1735 55.9381 22.2693C54.8044 23.8055 53.9572 26.1516 53.6946 28.482C53.6278 29.0746 53.6214 29.3024 53.6502 30.0613C53.6798 30.8402 53.7112 31.1035 53.8342 31.6014C54.0302 32.3949 54.3288 33.0226 54.7885 33.6075C55.3333 34.3007 55.9434 34.6484 56.9376 34.8324C57.0026 34.8444 57.1204 34.788 57.484 34.5705ZM37.6504 34.6418C39.535 34.5551 41.1198 34.3102 42.1953 33.9394C43.3899 33.5276 44.3272 32.8754 44.9884 31.996C45.6514 31.1142 46.1771 29.9759 46.4545 28.8214C46.654 27.991 46.7309 27.1975 46.71 26.1849C46.6935 25.3845 46.6757 25.1529 46.5736 24.4172C46.2637 22.1835 45.3642 19.8131 44.0646 17.8055C43.3064 16.6342 42.5741 15.7338 41.537 14.6978C40.4901 13.652 39.586 12.9013 38.3525 12.0536L38.0601 11.8526L37.8909 12.1338C36.8322 13.894 35.0232 17.5118 33.1884 21.5383C31.3964 25.4708 28.9362 31.2662 28.2238 33.2329C28.0226 33.7884 27.7975 34.4686 27.8105 34.4816C27.8272 34.4983 28.4625 34.5536 29.0348 34.5883C29.2908 34.6038 30.3095 34.618 31.2985 34.6199C32.2876 34.6219 33.3736 34.6314 33.7118 34.6412C34.7097 34.6701 37.0288 34.6704 37.6504 34.642V34.6418ZM13.7034 17.3245C13.6538 17.2882 13.6544 17.2838 13.7333 17.1353C14.0101 16.6137 14.3262 16.1204 14.5273 15.8961C15.0047 15.3636 15.7006 15.1201 16.6599 15.1497C17.2016 15.1664 17.9581 15.2214 18.0295 15.2493C18.0619 15.262 18.0884 15.2913 18.0884 15.3146C18.0884 15.3789 17.8102 15.7589 17.6063 15.973C16.9996 16.6104 15.993 17.1359 15.0495 17.3078C14.676 17.3759 13.7885 17.3869 13.7034 17.3245Z" fill="white"/>
</g>
<defs>
<clipPath id="clip0_234_1333">
<rect width="100" height="44.6897" fill="white" transform="translate(0 0.655167)"/>
</clipPath>
</defs>
</svg>
