<svg width="100" height="48" viewBox="0 0 100 48" fill="none" xmlns="http://www.w3.org/2000/svg">
<g clip-path="url(#clip0_303_2555)">
<path d="M50.068 44.0217V41.6984H50.6038H51.1396L51.1468 42.0947L51.154 42.4909L51.226 42.3824C51.3281 42.2284 51.5479 42.0157 51.729 41.8959C52.4568 41.414 53.5103 41.5342 54.0725 42.1634C54.2356 42.3459 54.3978 42.6549 54.4685 42.9178C54.5429 43.1944 54.5484 43.7677 54.4791 44.0347C54.258 44.8875 53.6187 45.3877 52.7504 45.3874C52.2209 45.3874 51.8289 45.2299 51.4709 44.8739C51.3532 44.7569 51.2315 44.626 51.2004 44.5829L51.1438 44.5046L51.1424 45.4248L51.1409 46.3449H50.6044H50.0679L50.068 44.0217ZM52.8775 44.4836C53.062 44.3993 53.2711 44.193 53.3527 44.0148C53.5563 43.5704 53.463 42.9874 53.141 42.6913C52.9579 42.523 52.7684 42.4473 52.4971 42.4341C52.0984 42.4148 51.7432 42.5712 51.4559 42.8927C51.3148 43.0506 51.1148 43.4065 51.1148 43.4996C51.1148 43.5311 51.1641 43.6513 51.2243 43.7667C51.417 44.1363 51.7627 44.425 52.1384 44.5303C52.352 44.5901 52.6912 44.5687 52.8775 44.4836ZM32.2906 45.3791C31.8037 45.3326 31.3453 45.1994 31.0255 45.0114C30.942 44.9624 30.7848 44.8341 30.6761 44.7265C30.4078 44.4608 30.2931 44.2257 30.2206 43.7933L30.2064 43.7084H30.7553H31.3042L31.305 43.7671C31.3058 43.8435 31.3938 44.0358 31.4789 44.1472C31.568 44.2637 31.7801 44.3963 31.9841 44.4631C32.4538 44.6169 33.28 44.5715 33.6234 44.373C34.0254 44.1407 34.0471 43.618 33.663 43.423C33.4604 43.3202 33.369 43.309 32.6129 43.2932L31.8671 43.2777L31.8598 42.9188L31.8525 42.5598H32.3178C33.2142 42.559 33.5544 42.4741 33.7382 42.2034C33.792 42.1242 33.8037 42.0757 33.8037 41.9312C33.8037 41.7777 33.7937 41.7412 33.7252 41.6448C33.6318 41.5135 33.4482 41.4046 33.2147 41.3421C32.9826 41.28 32.4038 41.279 32.175 41.3404C31.7574 41.4523 31.4767 41.6977 31.3993 42.0184L31.382 42.0902H30.8466H30.3113L30.3258 42.0054C30.3338 41.9587 30.3625 41.8442 30.3897 41.7509C30.5733 41.1208 31.2358 40.6352 32.1026 40.4955C32.3755 40.4515 33.1183 40.4512 33.3849 40.4947C34.0867 40.6098 34.6167 40.9261 34.8179 41.35C34.8952 41.5127 34.9028 41.5512 34.9028 41.7773C34.9028 42.0057 34.8958 42.04 34.8165 42.2007C34.6746 42.4881 34.4445 42.6824 34.0945 42.8102C34.0015 42.8441 33.951 42.8742 33.9738 42.8821C33.9954 42.8895 34.0831 42.9151 34.1687 42.9388C34.7919 43.1117 35.1137 43.5459 35.0279 44.0983C34.9447 44.6347 34.5663 45.0124 33.893 45.2313C33.501 45.3587 32.7773 45.4255 32.2909 45.3791L32.2906 45.3791ZM37.0543 45.3773C36.4813 45.2989 36.0006 44.9597 35.7554 44.4607C35.5889 44.1219 35.5572 43.968 35.5572 43.4996C35.5572 43.0242 35.5884 42.8776 35.767 42.5148C35.9657 42.1112 36.2992 41.8314 36.7606 41.681C36.9382 41.6232 37.0197 41.6124 37.2971 41.6103C37.686 41.6073 37.8282 41.6373 38.1488 41.7902C38.4007 41.9104 38.6844 42.1442 38.8264 42.3486C38.8672 42.4074 38.9086 42.4554 38.9183 42.4554C38.9281 42.4554 38.9511 42.3115 38.9694 42.1356C38.9878 41.9598 39.0089 41.7894 39.0164 41.7571C39.03 41.6985 39.0311 41.6984 39.5788 41.6984H40.1276L40.1132 41.7702C40.1053 41.8097 40.056 42.2149 40.0037 42.6706L39.9086 43.4993L40.0039 44.3282C40.0563 44.7841 40.1056 45.1895 40.1134 45.2289L40.1276 45.3007H39.578H39.0285L39.0147 45.2289C39.0071 45.1895 38.9875 45.028 38.9711 44.87C38.9546 44.7121 38.9363 44.567 38.9302 44.5476C38.9238 44.5268 38.8729 44.575 38.8061 44.6651C38.4113 45.1982 37.74 45.4711 37.0543 45.3773ZM37.9374 44.5298C38.171 44.4691 38.3368 44.3677 38.5552 44.1522C38.7069 44.0024 38.7808 43.9027 38.8693 43.728L38.9851 43.4996L38.8691 43.2711C38.7099 42.9579 38.4332 42.6779 38.1503 42.5438C37.9802 42.4633 37.9142 42.4467 37.7183 42.4356C37.4253 42.4189 37.2602 42.4578 37.0614 42.5902C36.7556 42.7938 36.5994 43.1425 36.6226 43.5692C36.639 43.8698 36.7111 44.056 36.8842 44.2449C37.1495 44.5345 37.5267 44.6365 37.9374 44.5298ZM46.2923 45.3773C45.7193 45.2989 45.2385 44.9597 44.9933 44.4607C44.8269 44.1219 44.7951 43.968 44.7951 43.4996C44.7951 43.0242 44.8264 42.8776 45.005 42.5148C45.2037 42.1112 45.5371 41.8314 45.9986 41.681C46.1761 41.6232 46.2577 41.6124 46.5351 41.6103C46.924 41.6073 47.0662 41.6373 47.3868 41.7902C47.6386 41.9104 47.9223 42.1442 48.0644 42.3486C48.1052 42.4074 48.1465 42.4554 48.1563 42.4554C48.1661 42.4554 48.1891 42.3115 48.2074 42.1356C48.2257 41.9598 48.2469 41.7894 48.2544 41.7571C48.2679 41.6985 48.2691 41.6984 48.8168 41.6984H49.3656L49.3512 41.7702C49.3432 41.8097 49.294 42.2149 49.2416 42.6706L49.1465 43.4993L49.2418 44.3282C49.2943 44.7841 49.3436 45.1895 49.3514 45.2289L49.3656 45.3007H48.816H48.2665L48.2527 45.2289C48.2451 45.1895 48.2255 45.028 48.209 44.87C48.1926 44.7121 48.1742 44.567 48.1682 44.5476C48.1618 44.5268 48.1109 44.575 48.0441 44.6651C47.6493 45.1982 46.978 45.4711 46.2923 45.3773ZM47.1753 44.5298C47.4089 44.4691 47.5748 44.3677 47.7932 44.1522C47.9449 44.0024 48.0187 43.9027 48.1073 43.728L48.223 43.4996L48.107 43.2711C47.9479 42.9579 47.6712 42.6779 47.3883 42.5438C47.2182 42.4633 47.1522 42.4467 46.9563 42.4356C46.6632 42.4189 46.4982 42.4578 46.2994 42.5902C45.9936 42.7938 45.8374 43.1425 45.8606 43.5692C45.877 43.8698 45.9491 44.056 46.1222 44.2449C46.3875 44.5345 46.7646 44.6365 47.1753 44.5298ZM56.8938 45.3787C56.29 45.3211 55.7971 45.0955 55.4326 44.71C55.1067 44.3654 54.9777 44.022 54.9777 43.4996C54.9777 43.0138 55.0789 42.711 55.3589 42.3588C55.7894 41.8175 56.6504 41.5232 57.5347 41.6151C58.7407 41.7405 59.4714 42.4466 59.4714 43.4865C59.4714 44.0015 59.3329 44.3718 59.0123 44.7143C58.6512 45.0999 58.1671 45.3175 57.5332 45.379C57.2499 45.4065 57.1851 45.4065 56.8938 45.379V45.3787ZM57.5003 44.5689C58.1171 44.4724 58.4895 43.9461 58.3909 43.3103C58.3332 42.9384 58.165 42.6973 57.8587 42.5475C57.6481 42.4445 57.467 42.4032 57.2255 42.4032C56.8619 42.4032 56.4867 42.5449 56.3077 42.7498C55.9861 43.118 55.9523 43.7371 56.2317 44.1418C56.472 44.4898 56.9588 44.6537 57.5003 44.5689ZM66.472 45.3787C65.8681 45.3211 65.3753 45.0955 65.0108 44.71C64.6849 44.3654 64.5559 44.022 64.5559 43.4996C64.5559 43.0138 64.6571 42.711 64.9371 42.3588C65.3676 41.8175 66.2285 41.5232 67.1129 41.6151C68.3189 41.7405 69.0496 42.4466 69.0496 43.4865C69.0495 44.0015 68.9111 44.3718 68.5904 44.7143C68.2294 45.0999 67.7453 45.3175 67.1114 45.379C66.8281 45.4065 66.7633 45.4065 66.472 45.379V45.3787ZM67.0785 44.5689C67.6953 44.4724 68.0677 43.9461 67.9691 43.3103C67.9114 42.9384 67.7432 42.6973 67.4369 42.5475C67.2263 42.4445 67.0452 42.4032 66.8037 42.4032C66.4401 42.4032 66.0649 42.5449 65.8859 42.7498C65.5643 43.118 65.5305 43.7371 65.8099 44.1418C66.0502 44.4898 66.5369 44.6537 67.0785 44.5689ZM78.3111 45.3786C77.9843 45.3449 77.6916 45.2627 77.4156 45.1271C77.2057 45.024 77.1301 44.968 76.9304 44.7678C76.6758 44.5127 76.5326 44.2784 76.4261 43.9433C76.3213 43.6138 76.304 43.4738 76.3063 42.9775C76.3083 42.5438 76.3156 42.4679 76.3774 42.2335C76.5067 41.7436 76.7528 41.3398 77.0925 41.0603C77.5283 40.7017 78.0212 40.5454 78.9465 40.4724C79.7483 40.4092 80.1139 40.3576 80.351 40.2742L80.4525 40.2385L80.4453 40.6862L80.4382 41.1339L80.255 41.1801C80.0216 41.239 79.7405 41.2711 79.0368 41.3192C78.246 41.3732 77.9148 41.4756 77.6228 41.7563C77.3576 42.0113 77.181 42.4618 77.1802 42.8857V42.9898L77.2353 42.8857C77.4484 42.4828 77.8557 42.1876 78.3763 42.0586C78.6774 41.9841 79.2207 41.9793 79.4963 42.0487C80.169 42.2183 80.6374 42.6898 80.7561 43.3168C80.8391 43.7554 80.7499 44.2202 80.5153 44.5723C80.1839 45.0694 79.5957 45.3474 78.7897 45.3878C78.6458 45.395 78.4305 45.3909 78.3113 45.3786H78.3111ZM78.9639 44.5582C79.2893 44.4894 79.4891 44.3436 79.6191 44.0802C79.6975 43.9214 79.7054 43.8835 79.7054 43.6692C79.7054 43.4554 79.6974 43.4169 79.6199 43.2598C79.5728 43.1644 79.4909 43.0484 79.4379 43.0019C79.0742 42.6834 78.3918 42.6616 77.9353 42.9537C77.7724 43.058 77.5534 43.2956 77.4577 43.4719L77.3821 43.6113L77.4258 43.7493C77.615 44.348 78.2868 44.7013 78.9639 44.5582ZM82.7732 45.3773C82.2002 45.2989 81.7194 44.9597 81.4742 44.4607C81.3077 44.1219 81.276 43.968 81.276 43.4996C81.276 43.0242 81.3072 42.8776 81.4859 42.5148C81.6845 42.1112 82.018 41.8314 82.4794 41.681C82.657 41.6232 82.7385 41.6124 83.0159 41.6103C83.4048 41.6073 83.5471 41.6373 83.8676 41.7902C84.1195 41.9104 84.4032 42.1442 84.5452 42.3486C84.586 42.4074 84.6274 42.4554 84.6372 42.4554C84.6469 42.4554 84.6699 42.3115 84.6882 42.1356C84.7066 41.9598 84.7277 41.7894 84.7352 41.7571C84.7488 41.6985 84.75 41.6984 85.2976 41.6984H85.8464L85.832 41.7702C85.8241 41.8097 85.7748 42.2149 85.7225 42.6706L85.6274 43.4993L85.7227 44.3282C85.7751 44.7841 85.8244 45.1895 85.8322 45.2289L85.8464 45.3007H85.2969H84.7473L84.7335 45.2289C84.7259 45.1895 84.7063 45.028 84.6899 44.87C84.6735 44.7121 84.6551 44.567 84.6491 44.5476C84.6426 44.5268 84.5917 44.575 84.525 44.6651C84.1301 45.1982 83.4589 45.4711 82.7732 45.3773ZM83.6562 44.5298C83.8898 44.4691 84.0557 44.3677 84.2741 44.1522C84.4258 44.0024 84.4996 43.9027 84.5881 43.728L84.7039 43.4996L84.5879 43.2711C84.4288 42.9579 84.1521 42.6779 83.8691 42.5438C83.699 42.4633 83.633 42.4467 83.4372 42.4356C83.1441 42.4189 82.979 42.4578 82.7803 42.5902C82.4745 42.7938 82.3182 43.1425 82.3415 43.5692C82.3579 43.8698 82.4299 44.056 82.6031 44.2449C82.8684 44.5345 83.2455 44.6365 83.6562 44.5298ZM97.7431 45.3782C96.8227 45.275 96.1478 44.7747 95.9133 44.0216C95.8615 43.8553 95.8527 43.7729 95.8545 43.4734C95.8563 43.166 95.8654 43.0944 95.9257 42.9122C95.9638 42.7974 96.0392 42.6288 96.0935 42.5377C96.2187 42.3271 96.5386 42.0213 96.7665 41.8942C97.257 41.6205 97.9641 41.5272 98.5347 41.6607C99.0949 41.7919 99.5912 42.2329 99.8109 42.7948C99.9204 43.0749 99.9991 43.4797 100 43.7671V43.8389H98.4952C97.6676 43.8389 96.9906 43.8477 96.9907 43.8585C96.9915 43.9144 97.1565 44.1538 97.26 44.2489C97.49 44.4604 97.7778 44.5648 98.1943 44.5877C98.6917 44.6151 99.1876 44.5117 99.6402 44.2862L99.8953 44.159V44.5061C99.8953 44.9112 99.9129 44.8831 99.5485 45.0619C99.0185 45.322 98.3252 45.4434 97.7429 45.3782H97.7431ZM98.943 43.0496C98.8969 42.8199 98.635 42.5374 98.3761 42.4381C98.1919 42.3675 97.7286 42.3752 97.5338 42.452C97.3368 42.5297 97.1171 42.7308 97.0311 42.9122C96.9164 43.1539 96.8335 43.1341 97.9622 43.1341H98.9599L98.943 43.0496ZM86.5852 45.3402C86.4973 45.3211 86.3765 45.2807 86.317 45.2504L86.2087 45.1953V44.8155V44.4358L86.2675 44.4546C86.8085 44.6278 87.094 44.4565 87.2067 43.8911C87.266 43.5939 87.2376 42.248 87.1622 41.7832L87.1484 41.6984H89.0207H90.8931V43.4996V45.3007H90.3566H89.8201V43.8911V42.4815H88.9937H88.1672L88.1883 42.7491C88.2414 43.4209 88.1944 44.1636 88.0756 44.5307C87.9697 44.8577 87.7681 45.1219 87.5342 45.2401C87.2774 45.3699 86.9037 45.4093 86.5852 45.3402ZM24.0817 45.2824C24.0817 45.271 24.1274 44.8643 24.1828 44.3787L24.2836 43.4959L24.1828 42.6167C24.1273 42.1332 24.0818 41.7287 24.0816 41.718C24.0808 41.6877 27.035 41.6941 27.1966 41.7246C27.5024 41.7825 27.7867 41.9751 27.9091 42.2074C27.9496 42.2843 27.9671 42.3747 27.9754 42.5509C27.9854 42.7639 27.9796 42.8053 27.9216 42.9316C27.8451 43.0983 27.7145 43.2363 27.5377 43.337L27.4104 43.4095L27.5602 43.4536C27.9976 43.5821 28.2423 43.9327 28.2083 44.3818C28.1773 44.7905 27.9307 45.0788 27.4834 45.2293C27.3168 45.2854 27.2801 45.2867 25.6973 45.2949C24.8085 45.2995 24.0815 45.2939 24.0817 45.2824ZM26.9337 44.5554C26.9841 44.5259 27.0528 44.4613 27.0865 44.4118C27.1376 44.3368 27.1461 44.2969 27.1373 44.1717C27.1287 44.0497 27.1123 44.0063 27.0499 43.9401C26.9032 43.7844 26.8623 43.7773 26.0481 43.7657C25.6401 43.7599 25.2963 43.7649 25.2842 43.7775C25.272 43.7897 25.2437 43.9466 25.2212 44.126C25.1988 44.3055 25.1738 44.4913 25.1658 44.5388L25.1513 44.6253L25.9967 44.6171C26.7944 44.6095 26.8474 44.6059 26.9337 44.5554ZM26.7188 43.1083C26.8044 43.0696 26.8429 43.0311 26.8818 42.9457C26.9465 42.8036 26.9465 42.733 26.8818 42.6001C26.7829 42.3964 26.7601 42.3913 25.9039 42.3818L25.1491 42.3735L25.1634 42.4471C25.1712 42.4875 25.1906 42.6323 25.2064 42.7687C25.2221 42.905 25.2413 43.0489 25.2489 43.0884L25.2629 43.1602L25.9347 43.1594C26.5434 43.1586 26.617 43.1541 26.7186 43.1081L26.7188 43.1083ZM40.429 45.242C40.4581 45.2097 40.7468 44.8661 41.0705 44.4785C41.3942 44.0908 41.7189 43.7025 41.7921 43.6156L41.9252 43.4575L41.478 42.9108C41.2321 42.6101 40.9084 42.2143 40.7587 42.0312L40.4865 41.6984H41.0835H41.6806L42.123 42.2334C42.3663 42.5276 42.5795 42.7801 42.5968 42.7943C42.6196 42.8132 42.7556 42.6673 43.0958 42.259L43.5635 41.6978H44.151H44.7385L44.6855 41.7565C44.5195 41.9405 43.3117 43.4019 43.2996 43.4334C43.2905 43.4571 43.5492 43.7832 43.9982 44.3138C44.3904 44.7773 44.7413 45.1891 44.778 45.2288L44.8448 45.3011L44.2317 45.2941L43.6186 45.2871L43.1642 44.7519C42.9143 44.4576 42.6832 44.1835 42.6508 44.1429L42.5918 44.069L42.0768 44.6845L41.5618 45.3001H40.9689H40.376L40.429 45.242ZM60.0129 45.2824C60.0129 45.271 60.0586 44.8643 60.1141 44.3787L60.2148 43.4959L60.114 42.6167C60.0586 42.1332 60.0131 41.7287 60.0129 41.718C60.0121 41.6877 62.9663 41.6941 63.1279 41.7246C63.4337 41.7825 63.718 41.9751 63.8404 42.2074C63.8809 42.2843 63.8984 42.3747 63.9067 42.5509C63.9167 42.7639 63.9108 42.8053 63.8529 42.9316C63.7764 43.0983 63.6457 43.2363 63.469 43.337L63.3417 43.4095L63.4915 43.4536C63.9289 43.5821 64.1736 43.9327 64.1396 44.3818C64.1086 44.7905 63.862 45.0788 63.4147 45.2293C63.2481 45.2854 63.2114 45.2867 61.6286 45.2949C60.7398 45.2995 60.0127 45.2939 60.0129 45.2824ZM62.865 44.5554C62.9153 44.5259 62.9841 44.4613 63.0178 44.4118C63.0689 44.3368 63.0773 44.2969 63.0686 44.1717C63.06 44.0497 63.0436 44.0063 62.9812 43.9401C62.8344 43.7844 62.7936 43.7773 61.9794 43.7657C61.5713 43.7599 61.2276 43.7649 61.2155 43.7775C61.2033 43.7897 61.175 43.9466 61.1525 44.126C61.1301 44.3055 61.1051 44.4913 61.0971 44.5388L61.0826 44.6253L61.928 44.6171C62.7257 44.6095 62.7787 44.6059 62.865 44.5554ZM62.6501 43.1083C62.7357 43.0696 62.7742 43.0311 62.8131 42.9457C62.8777 42.8036 62.8778 42.733 62.8131 42.6001C62.7142 42.3964 62.6913 42.3913 61.8352 42.3818L61.0804 42.3735L61.0947 42.4471C61.1025 42.4875 61.1219 42.6323 61.1376 42.7687C61.1534 42.905 61.1726 43.0489 61.1802 43.0884L61.1941 43.1602L61.8659 43.1594C62.4747 43.1586 62.5483 43.1541 62.6498 43.1081L62.6501 43.1083ZM69.6693 43.5V41.6984H70.1924H70.7156L70.7224 43.0009L70.7292 44.3034L71.6816 43.0009L72.6341 41.6984H73.3238H74.0135V43.4996V45.3007H73.4903H72.9672L72.9604 43.9691L72.9536 42.6374L71.9844 43.9625L71.0153 45.2877L70.3423 45.2946L69.6693 45.3016L69.6693 43.5ZM91.7043 43.5V41.6988H92.2405H92.7767L92.7835 42.8161L92.7903 43.9335L93.7008 42.8161L94.6112 41.6988H95.1905H95.7697L95.7173 41.7576C95.3896 42.1243 94.5306 43.1386 94.5306 43.1588C94.5306 43.1732 94.8309 43.6557 95.198 44.2309C95.565 44.8061 95.8653 45.2823 95.8653 45.289C95.8653 45.2957 95.5958 45.3012 95.2664 45.3012H94.6675L94.2722 44.6551C94.0548 44.2998 93.8673 43.9945 93.8556 43.9767C93.8412 43.9547 93.6468 44.1619 93.2496 44.6227L92.6648 45.3012H92.1845H91.7043L91.7043 43.5ZM71.3834 41.3161C70.8847 41.2097 70.5074 40.8392 70.391 40.3417L70.3543 40.1848H70.7702H71.1861L71.2034 40.2566C71.2507 40.4525 71.3884 40.6212 71.5592 40.6924C71.6931 40.7482 71.9589 40.7438 72.0918 40.6835C72.226 40.6228 72.3562 40.4676 72.4011 40.3153L72.4356 40.1978L72.8451 40.1906C73.3063 40.1826 73.2772 40.1656 73.2145 40.4056C73.0899 40.8829 72.7316 41.2119 72.2186 41.3203C71.99 41.3686 71.6207 41.3668 71.3834 41.3161ZM5.88013 39.3867C5.75059 39.3669 5.57394 39.3336 5.48758 39.3127C5.40122 39.2918 5.21868 39.2498 5.08194 39.2194C4.59095 39.1102 4.48828 39.085 4.15291 38.9919C3.42105 38.7886 2.80866 38.4981 2.35348 38.1383C1.90547 37.7842 1.59355 37.3655 0.795944 36.0477C0.209068 35.0781 0.00236584 34.4713 1.873e-05 33.711C-0.00259826 32.8659 0.268825 32.1069 0.938742 31.086C1.26275 30.5923 1.3288 30.4907 1.84205 29.6967C2.01579 29.4279 2.2548 29.0612 2.37319 28.8817C2.60127 28.536 2.81948 28.198 2.9491 27.9898C3.04407 27.8372 3.39659 27.2801 3.65216 26.8787C3.75485 26.7174 3.93803 26.4296 4.05923 26.2391C4.18042 26.0487 4.42364 25.6683 4.59971 25.3939C4.77579 25.1195 4.93867 24.8611 4.96166 24.8196C4.98466 24.7782 5.12166 24.5622 5.26612 24.3396C5.41057 24.1171 5.66548 23.706 5.83257 23.426C5.99967 23.146 6.17387 22.8582 6.21968 22.7864C6.2655 22.7147 6.42468 22.4504 6.57343 22.1991C6.72218 21.9479 6.92234 21.6131 7.01824 21.4551C7.21383 21.133 7.55765 20.5438 7.64274 20.3849C7.67349 20.3275 7.72751 20.2335 7.7628 20.176C7.79809 20.1186 7.90029 19.9424 7.98991 19.7845C8.07954 19.6266 8.21937 19.3858 8.30064 19.2494C8.38191 19.113 8.5052 18.8956 8.57461 18.7664C8.64403 18.6372 8.80672 18.3435 8.93615 18.1138C9.06558 17.8841 9.27726 17.5082 9.40656 17.2785C9.53587 17.0488 9.70702 16.7493 9.78692 16.6129C9.86681 16.4765 9.95207 16.3296 9.97638 16.2866C11.1959 14.1259 12.4607 12.2529 13.166 11.5628C13.4146 11.3195 13.4245 11.3915 13.2087 11.875C13.1895 11.918 13.1067 12.111 13.0246 12.3037C12.9425 12.4964 12.8647 12.6726 12.8518 12.6952C12.8388 12.7179 12.7526 12.9126 12.6602 13.128C12.5123 13.4729 12.2915 13.9589 12.0376 14.4984C11.9937 14.5918 11.9197 14.7562 11.8733 14.8639C11.8268 14.9716 11.7502 15.1419 11.703 15.2424C11.6558 15.3429 11.577 15.5132 11.5279 15.6209C11.2279 16.2781 10.4791 17.7881 9.90327 18.897C9.57242 19.5341 9.37973 19.898 8.78389 21.0114C8.71474 21.1406 8.59543 21.3554 8.51876 21.4887C8.44208 21.622 8.37935 21.7358 8.37935 21.7416C8.37935 21.7632 7.69477 22.9892 7.35865 23.5696C7.16741 23.8998 6.92634 24.3168 6.82295 24.4963C6.71955 24.6757 6.51222 25.0141 6.36222 25.2482C6.21221 25.4823 6.0672 25.7114 6.03997 25.7572C6.01273 25.8031 5.87731 26.0085 5.73901 26.2137C5.00407 27.3043 4.98302 27.3353 4.66323 27.7956C4.56967 27.9303 4.33414 28.2733 4.13983 28.5579C3.94552 28.8424 3.64522 29.2819 3.4725 29.5344C3.29977 29.787 3.0878 30.097 3.00144 30.2233C2.91508 30.3496 2.73306 30.6133 2.59696 30.8094C2.23551 31.3301 1.83619 31.9851 1.68786 32.3006C1.51073 32.6774 1.3116 33.2673 1.2581 33.5738C1.20257 33.8918 1.27595 34.3494 1.43958 34.7057C1.58156 35.0148 1.74468 35.2576 2.41101 36.1517C2.53942 36.324 2.71776 36.5694 2.80735 36.6971C3.1101 37.1287 3.45925 37.4804 3.71386 37.6103C4.03621 37.7747 4.53638 37.9297 5.14737 38.0545C5.83039 38.1941 5.95451 38.2102 6.35119 38.2113C6.77819 38.2125 7.01162 38.1662 7.2933 38.0245C7.51404 37.9135 7.86892 37.5253 8.36615 36.8511C8.89208 36.1378 9.57945 35.3357 10.0838 34.8465C10.8588 34.0948 11.8023 33.3852 12.7105 32.871C13.3499 32.5089 14.5262 31.9528 15.4845 31.5597C15.614 31.5066 15.7436 31.4528 15.7724 31.4403C15.8011 31.4277 15.8954 31.3883 15.9817 31.3526C16.1293 31.2915 16.4955 31.1383 17.2902 30.8052C18.5845 30.2625 18.964 30.0722 19.724 29.5848C21.1488 28.6711 22.4482 27.5411 23.8199 26.0231C24.3513 25.435 24.8972 24.7717 25.1543 24.4017C25.1759 24.3706 25.2936 24.2018 25.416 24.0265C25.808 23.4647 26.0474 23.0833 26.2596 22.682C26.455 22.3125 26.5267 22.2002 26.5502 22.2268C26.5644 22.243 26.4327 22.7616 26.3477 23.0242C26.3249 23.0944 26.2463 23.3399 26.1728 23.5696C26.0287 24.0205 25.9596 24.2153 25.8857 24.3788C25.8598 24.4362 25.7796 24.6183 25.7075 24.7834C25.3191 25.6734 24.7669 26.5995 24.0753 27.5208C23.6225 28.1241 23.3457 28.4435 22.8266 28.9621C21.5985 30.1889 20.3008 31.0537 18.5202 31.8319C17.9196 32.0944 17.4236 32.2833 16.5705 32.5746C16.333 32.6557 16.0327 32.762 15.9032 32.8108C15.0571 33.1296 14.3874 33.3903 14.2283 33.4629C14.1564 33.4957 13.9735 33.577 13.8221 33.6436C12.721 34.1274 11.5196 34.947 10.7248 35.7563C10.2519 36.238 9.559 37.1587 9.15803 37.8383C8.8758 38.3166 8.53938 38.7052 8.21433 38.9283C8.06664 39.0296 7.68136 39.2241 7.48958 39.294C7.12577 39.4268 6.41126 39.4679 5.88013 39.3867ZM24.6309 38.6419C24.1821 38.6053 24.0318 38.519 24.0093 38.285C23.9982 38.1703 24.0114 38.1312 24.1527 37.86C24.2383 37.6957 24.4179 37.3851 24.5517 37.1698C25.2038 36.1204 25.4107 35.7568 25.8211 34.9388C26.1408 34.3017 26.3435 33.8666 26.8612 32.706C28.6972 28.5897 30.4701 24.7456 32.646 20.163C34.0536 17.1983 35.7739 13.6866 36.403 12.4934C36.5644 12.1874 36.6903 11.9273 36.6828 11.9153C36.6639 11.8847 36.0999 11.5568 35.3536 11.1426C31.6938 9.11082 27.7815 7.68525 24.2924 7.11202C23.4998 6.98181 22.3279 6.8631 22.3279 6.91303C22.3279 6.9233 22.3403 6.95472 22.3553 6.98283C22.4285 7.11922 22.511 7.64712 22.5254 8.07184C22.5414 8.54043 22.5132 9.10796 22.4739 9.10796C22.4512 9.10796 22.4228 8.99762 22.3543 8.64275C22.2805 8.26081 22.054 7.74375 21.8103 7.4008C21.5137 6.98335 20.7642 6.31612 20.1035 5.88119C19.1408 5.24755 18.4212 4.95932 17.2084 4.72161C16.6323 4.60871 15.5144 4.50171 13.8096 4.39627C12.9761 4.34473 12.2291 4.28795 11.7553 4.24015C11.6185 4.22635 11.3204 4.20214 11.0928 4.18634C10.667 4.15678 10.6038 4.16575 10.6038 4.25568C10.6038 4.31099 11.0833 4.81735 11.4729 5.17358C12.3825 6.00507 13.3491 6.60184 14.4639 7.02015C14.7432 7.12498 15.1999 7.25469 15.4268 7.29366C15.5161 7.30898 15.6716 7.33876 15.7724 7.35986C16.0115 7.40992 16.6875 7.50288 16.8111 7.50271C16.917 7.50271 16.9573 7.53792 16.9126 7.59173C16.8456 7.67218 15.3759 8.31668 14.4508 8.67125C14.1615 8.78211 13.1298 9.12702 12.2263 9.4149C11.7137 9.57824 11.4386 9.66302 10.2898 10.0119C9.33934 10.3005 9.1779 10.3504 8.98126 10.4165C8.62843 10.5352 7.92485 10.7973 7.76436 10.87C7.678 10.9091 7.49546 10.9854 7.35873 11.0396C6.5328 11.3671 5.48352 11.8871 4.5978 12.408C4.42508 12.5096 4.26825 12.5927 4.24928 12.5927C4.13541 12.5927 4.44956 12.1848 4.91198 11.7314C5.33528 11.3164 5.28506 11.363 5.60534 11.0886C6.01282 10.7395 6.18053 10.6191 6.78207 10.2438C7.01241 10.1001 7.73219 9.72342 7.86904 9.675C7.91222 9.65972 8.06531 9.59822 8.20925 9.5383C8.64818 9.35558 9.27145 9.14105 10.0673 8.89877C10.2832 8.83303 10.5187 8.76094 10.5907 8.73854C10.8074 8.67111 11.4042 8.50682 11.8076 8.40356C12.9906 8.10071 13.5405 7.95465 13.6442 7.91568C13.7872 7.86195 13.7436 7.75347 13.5667 7.72258C13.3549 7.6856 12.6883 7.45806 12.2525 7.27394C11.3428 6.88964 10.693 6.47902 9.88412 5.77729C8.89358 4.91795 7.54075 3.18465 6.93634 2.00048C6.78054 1.69525 6.77641 1.65527 6.90075 1.65527C6.95113 1.65527 6.99235 1.66594 6.99235 1.67898C6.99235 1.69202 7.06006 1.72619 7.14283 1.7549C7.22559 1.78362 7.43398 1.85633 7.60593 1.91648C8.31021 2.16284 9.08892 2.36856 9.83178 2.5045C10.767 2.67565 11.374 2.73283 12.7366 2.77817C13.656 2.80876 15.0574 2.87674 15.141 2.89482C15.1716 2.90143 15.3791 2.91974 15.6022 2.93549C16.7367 3.01556 18.1317 3.32447 18.9651 3.68016C19.7236 4.00391 20.3509 4.39178 20.9254 4.89231C21.2452 5.17091 21.3805 5.32016 21.6057 5.64232C21.6884 5.76057 21.7697 5.86576 21.7865 5.87609C21.8032 5.88641 22.294 5.89661 22.8771 5.89876C24.5728 5.90495 26.5039 6.0424 27.7974 6.24893C27.963 6.27536 28.2691 6.32208 28.4778 6.35276C29.6055 6.51848 30.5818 6.7207 32.1547 7.11431C33.2409 7.38612 34.3995 7.76664 35.4652 8.20161C36.725 8.7158 37.5516 9.08161 37.9514 9.30182C38.0305 9.34543 38.1091 9.38133 38.1261 9.38158C38.143 9.38158 38.4015 8.99734 38.7006 8.52714C39.7052 6.94768 40.3794 5.97416 40.9178 5.32564C41.4336 4.70425 41.8242 4.34369 42.1255 4.21073C42.2343 4.16276 42.2891 4.15718 42.5729 4.16519C42.8832 4.17394 42.8991 4.17713 42.9666 4.24439C43.0213 4.29905 43.0395 4.34659 43.0489 4.46034C43.0797 4.83051 42.9206 5.19561 42.3428 6.08051C42.1225 6.41793 41.8339 6.86126 41.7015 7.06566C41.004 8.14229 40.8642 8.34711 40.1679 9.31158C39.8495 9.75268 39.6258 10.1053 39.6271 10.1641C39.6279 10.1863 39.7932 10.3142 39.9972 10.4499C41.6081 11.5216 43.3212 12.9053 44.5069 14.0924C45.8806 15.4678 46.9549 16.8884 47.8464 18.5087C48.5305 19.7521 49.0973 21.1597 49.4373 22.4601C49.7529 23.667 49.9328 25.2291 49.9064 26.5342C49.9003 26.8337 49.8972 27.0762 49.8995 27.0731C49.9018 27.07 50.0188 26.7973 50.1595 26.4671C51.0914 24.28 52.0609 22.7292 52.8245 22.2043C53.3463 21.8456 53.8019 21.7114 54.4166 21.7354C54.7873 21.7499 54.8505 21.771 55.1024 21.9635C55.2101 22.0459 55.3001 22.0947 55.3442 22.0947C55.3967 22.0947 55.4845 22.0302 55.6919 21.8395C57.192 20.4597 58.1111 19.7962 59.2144 19.2962C60.2094 18.8454 60.9485 18.6601 62.0244 18.5919C63.4066 18.5043 64.4372 18.8392 65.2481 19.6396C65.5389 19.9266 65.6728 20.1148 65.8504 20.4859C66.0723 20.9498 66.2153 21.4798 66.2984 22.1469C66.3521 22.5767 66.3442 23.8748 66.2854 24.3135C65.8702 27.4085 64.1227 30.8313 61.5094 33.668C60.6697 34.5794 59.5939 35.4675 58.6268 36.0476L58.4579 36.1489L58.5372 36.1811C58.6878 36.2424 59.164 36.2976 59.6724 36.3126C60.3949 36.3338 61.0249 36.2731 61.7529 36.1121C63.3086 35.7681 65.1536 34.9654 67 33.8295C67.8024 33.3358 67.7655 33.3663 67.8511 33.1249C68.0302 32.6199 68.2806 32.22 68.6105 31.9125C69.1625 31.3979 69.6293 31.1064 70.0161 31.0346L70.1142 31.0165L70.115 31.5741C70.116 32.3923 70.1798 32.9397 70.3252 33.3778C70.4696 33.8126 70.6082 34.0147 70.8338 34.1195C70.9471 34.1721 71.0058 34.1804 71.2665 34.1806C71.8487 34.1814 72.2209 34.0971 72.6997 33.8573C73.3414 33.5358 74.1997 32.8426 74.9842 32.0121C76.685 30.2118 79.157 27.1244 80.4689 25.1619C81.1821 24.0951 81.4397 23.5393 81.8479 22.1861C82.1333 21.24 82.2909 20.8022 82.5097 20.3465C82.6982 19.9542 82.7105 19.9361 82.9453 19.707C83.4376 19.2265 83.8715 18.9935 84.5339 18.8537C84.7444 18.8093 84.875 18.8017 85.3845 18.8038C85.7274 18.8051 86.0225 18.818 86.0703 18.8337C86.2673 18.8981 86.3212 19.1658 86.263 19.7907C86.153 20.9709 85.6467 22.5082 84.7906 24.2613C84.5414 24.7716 84.4991 24.8857 83.8796 26.7187C83.0437 29.1917 82.8162 29.9038 82.2052 31.9593C81.9407 32.8493 81.8998 33.0271 81.8794 33.3771C81.8633 33.6541 81.8637 33.6569 81.9283 33.6992C82.1013 33.8123 82.2912 33.7717 82.8198 33.5087C84.8095 32.5186 87.5069 30.2936 89.4415 28.0464C89.596 27.8669 89.8805 27.5237 90.0737 27.2836L90.4249 26.8472L90.5692 26.4613C90.7271 26.0392 91.0224 25.2036 91.2589 24.5093C92.2383 21.6352 92.8052 20.2705 93.3625 19.4451C93.5815 19.1209 94.038 18.672 94.3104 18.5131C94.6915 18.2908 95.1129 18.1845 95.8511 18.1245C96.5105 18.0709 96.7871 18.1171 96.8916 18.2984C96.9496 18.3991 97.0006 19.0308 96.9767 19.3538C96.8845 20.6005 95.9338 22.7451 94.4321 25.0936C94.0556 25.6824 93.9363 26.03 92.7688 29.9389C92.2366 31.7207 92.0005 32.5892 91.74 33.724L91.6141 34.2722L91.6133 34.8476C91.6125 35.5079 91.6186 35.5291 91.8308 35.6236C91.9845 35.6921 92.4611 35.7173 92.7058 35.6699C93.1182 35.5899 93.9887 35.2431 94.6746 34.8856C95.781 34.309 97.3454 33.3764 99.1056 32.2442C99.3693 32.0747 99.5946 31.9359 99.6062 31.9359C99.6179 31.9359 99.7111 32.047 99.8135 32.1828L99.9995 32.4297L99.8363 32.5442C98.5066 33.4766 98.0156 33.7937 96.4934 34.7036C95.9249 35.0434 95.2359 35.4605 94.9625 35.6306C93.638 36.4539 92.103 37.251 91.1678 37.6008C90.357 37.9041 89.4977 38.1521 88.9565 38.239C88.3156 38.3419 88.0247 38.2399 87.9109 37.8723C87.7709 37.4203 87.7743 36.9103 87.9221 36.1927C88.0069 35.7811 88.2799 34.6589 88.4496 34.0242C88.5935 33.4863 88.7488 32.9255 88.84 32.6146C88.8926 32.4351 88.9508 32.2354 88.9692 32.1708C88.9876 32.1062 89.1762 31.4719 89.3882 30.7612C89.8505 29.2111 89.8259 29.2963 89.8154 29.2872C89.8108 29.2831 89.7823 29.2722 89.7522 29.263C89.7063 29.249 89.6409 29.3106 89.3476 29.6448C88.6509 30.4384 87.7852 31.2579 86.418 32.4178C85.3985 33.2827 82.3062 35.8606 82.0738 36.0393C81.1894 36.7196 79.7087 37.4836 78.9705 37.6408C78.7159 37.695 78.4693 37.677 78.3005 37.592C78.2104 37.5467 78.1718 37.5038 78.1101 37.3805C78.0396 37.2398 78.0316 37.1968 78.0219 36.9049C78.0005 36.2657 78.1417 35.6069 78.6976 33.7501C78.9144 33.026 79.5987 30.7154 79.8108 29.9912C79.8445 29.8763 80.0318 29.2384 80.2271 28.5735C80.4223 27.9087 80.5821 27.3492 80.5821 27.3302C80.5821 27.3113 80.5452 27.2805 80.5001 27.2618C80.4309 27.2333 80.4135 27.2339 80.3888 27.2657C80.3728 27.2864 80.1426 27.591 79.8772 27.9425C78.9698 29.1446 76.6166 32.0517 75.7677 33.0192C73.5245 35.5758 71.6433 36.9799 70.0169 37.3113C68.8016 37.559 68.0612 37.365 67.7328 36.713C67.6136 36.4762 67.5151 36.1729 67.4564 35.8613C67.3968 35.5453 67.396 34.971 67.4547 34.6638C67.4794 34.5346 67.5067 34.3895 67.5153 34.3414L67.531 34.2539L67.3112 34.3953C66.3927 34.9861 64.7895 35.8702 63.8988 36.2771C62.3596 36.9801 60.8629 37.3377 59.005 37.4464C58.1639 37.4956 57.3893 37.4596 56.911 37.3491L56.7274 37.3067L56.4922 37.4243C55.3924 37.9745 54.2494 38.2762 52.9479 38.3598C50.9188 38.4902 49.5004 37.7074 48.7979 36.0697C48.4912 35.3546 48.3819 34.7086 48.3833 33.6196C48.3848 32.487 48.4962 31.6859 48.8265 30.4333C48.876 30.2458 48.9164 30.0755 48.9163 30.0548C48.9162 30.0342 48.8477 30.1406 48.7641 30.2914C48.1349 31.4255 47.3775 32.4042 46.2882 33.4909C44.7292 35.0458 43.3155 35.9867 41.2225 36.862C38.787 37.8806 36.0253 38.4319 32.678 38.5677C32.2894 38.5834 30.6466 38.6085 29.0273 38.6234C27.4081 38.6382 25.8183 38.6535 25.4944 38.6574C25.1706 38.6612 24.782 38.6543 24.6309 38.6419ZM54.5169 36.5454C54.5169 36.5395 54.4254 36.4706 54.3136 36.3925C53.875 36.0859 53.4853 35.6867 53.2138 35.2661C52.8222 34.659 52.4682 33.6626 52.3341 32.79C52.1801 31.7876 52.1796 31.0174 52.332 29.6028C52.3843 29.1169 52.3843 29.1167 52.3092 29.1167C52.2572 29.1167 52.2411 29.1384 52.2073 29.2537C52.1852 29.3291 52.1122 29.5767 52.045 29.8039C51.906 30.2742 51.8399 30.5607 51.7827 30.9402C51.6535 31.7986 51.6009 33.1725 51.6757 33.7371C51.7892 34.5929 52.1112 35.3267 52.5906 35.8217C52.959 36.2021 53.3176 36.3974 53.8654 36.5159C54.0175 36.5489 54.5169 36.5715 54.5169 36.5454ZM57.484 35.5706C58.525 34.948 59.4585 34.0045 60.3443 32.6799C61.7 30.6524 62.6417 27.9862 62.866 25.5404C62.9093 25.0685 62.9031 24.1772 62.8541 23.8357C62.7438 23.0667 62.5072 22.4272 62.16 21.9594C61.7968 21.4701 61.1913 21.1799 60.3676 21.1005C59.874 21.0529 59.4406 21.106 58.7172 21.3025C57.5168 21.6286 56.7468 22.1736 55.9381 23.2694C54.8044 24.8056 53.9572 27.1517 53.6946 29.4821C53.6278 30.0747 53.6214 30.3025 53.6502 31.0614C53.6798 31.8403 53.7112 32.1036 53.8342 32.6016C54.0302 33.395 54.3288 34.0227 54.7885 34.6076C55.3333 35.3008 55.9434 35.6486 56.9376 35.8325C57.0026 35.8446 57.1204 35.7881 57.484 35.5706ZM37.6504 35.6419C39.535 35.5552 41.1198 35.3103 42.1953 34.9395C43.3899 34.5277 44.3272 33.8755 44.9884 32.9961C45.6514 32.1144 46.1771 30.976 46.4545 29.8215C46.654 28.9911 46.7309 28.1977 46.71 27.185C46.6935 26.3846 46.6757 26.153 46.5736 25.4173C46.2637 23.1836 45.3642 20.8132 44.0646 18.8056C43.3064 17.6343 42.5741 16.7339 41.537 15.6979C40.4901 14.6521 39.586 13.9014 38.3525 13.0537L38.0601 12.8527L37.8909 13.1339C36.8322 14.8941 35.0232 18.5119 33.1884 22.5385C31.3964 26.4709 28.9362 32.2663 28.2238 34.2331C28.0226 34.7885 27.7975 35.4687 27.8105 35.4817C27.8272 35.4984 28.4625 35.5537 29.0348 35.5884C29.2908 35.6039 30.3095 35.6181 31.2985 35.62C32.2876 35.622 33.3736 35.6315 33.7118 35.6413C34.7097 35.6702 37.0288 35.6705 37.6504 35.6421V35.6419ZM13.7034 18.3246C13.6538 18.2883 13.6544 18.2839 13.7333 18.1354C14.0101 17.6139 14.3262 17.1205 14.5273 16.8962C15.0047 16.3637 15.7006 16.1202 16.6599 16.1498C17.2016 16.1665 17.9581 16.2215 18.0295 16.2494C18.0619 16.2621 18.0884 16.2914 18.0884 16.3147C18.0884 16.379 17.8102 16.759 17.6063 16.9732C16.9996 17.6105 15.993 18.136 15.0495 18.3079C14.676 18.376 13.7885 18.387 13.7034 18.3246Z" fill="#363636"/>
</g>
<defs>
<clipPath id="clip0_303_2555">
<rect width="100" height="44.6897" fill="white" transform="translate(0 1.65527)"/>
</clipPath>
</defs>
</svg>
