<svg height="547.83533" viewBox="0 0 1222.7784 547.83533" width="1222.7784" xmlns="http://www.w3.org/2000/svg"><path d="m392.22627 2556.944v-28.48h6.5516 6.5517l.088 4.8578.088 4.8577.8798-1.3306c1.2483-1.8878 3.9369-4.4951 6.1505-5.9644 8.8999-5.9074 21.782-4.4333 28.656 3.2792 1.9943 2.2375 3.9776 6.0253 4.8426 9.2486.9098 3.3904.9765 10.4187.1298 13.6917-2.7042 10.4542-10.5209 16.5861-21.1387 16.5825-6.4748 0-11.2677-1.9308-15.6457-6.2955-1.4382-1.4338-2.9263-3.039-3.3068-3.567l-.6919-.96-.018 11.28-.018 11.28h-6.56-6.56zm34.3537 5.6624c2.2557-1.0327 4.813-3.5617 5.8112-5.7469 2.4886-5.4476 1.3482-12.5943-2.5889-16.2234-2.2389-2.0637-4.5559-2.9916-7.8733-3.153-4.876-.2373-9.2194 1.6804-12.732 5.6215-1.7247 1.9351-4.1707 6.2981-4.1707 7.4394 0 .3863.6022 1.8598 1.3382 3.2746 2.3571 4.5305 6.584 8.0702 11.1777 9.3601 2.6116.7334 6.7595.4707 9.0378-.5723zm-251.7318 10.9777c-5.9539-.5692-11.5594-2.2022-15.4701-4.5067-1.0205-.6013-2.9431-2.1734-4.2725-3.4934-3.2797-3.2564-4.6828-6.1387-5.5694-11.44l-.1739-1.04h6.712 6.712l.01.72c.01.9362 1.0852 3.2935 2.1268 4.659 1.0895 1.4284 3.6819 3.0539 6.1765 3.8729 5.7433 1.8854 15.8461 1.3286 20.0458-1.1048 4.915-2.8479 5.1811-9.2549.4836-11.6453-2.4765-1.2601-3.5946-1.3987-12.8397-1.5915l-9.12-.1903-.089-4.4-.089-4.4h5.689c10.9616-.01 15.121-1.0514 17.369-4.3696.6573-.9702.8-1.5654.8-3.3367 0-1.8812-.1223-2.3285-.96-3.5103-1.1416-1.6105-3.3865-2.9454-6.2414-3.7114-2.8381-.7614-9.9162-.7733-12.7137-.021-5.1066 1.3727-8.5385 4.38-9.4852 8.312l-.2119.88h-6.5459-6.5459l.1773-1.04c.098-.572.4494-1.976.7818-3.12 2.2445-7.7242 10.3458-13.6766 20.9449-15.3889 3.3371-.5391 12.42-.5433 15.68-.01 8.5804 1.4108 15.0612 5.2889 17.5223 10.4852.9442 1.9937 1.0377 2.4656 1.0377 5.2378 0 2.7996-.086 3.2206-1.055 5.1898-1.7348 3.5239-4.5495 5.9058-8.8291 7.4716-1.1365.4158-1.7548.7852-1.4759.8818.264.091 1.3365.4044 2.3833.6955 7.6203 2.119 11.5551 7.4419 10.5069 14.2137-1.0177 6.5749-5.6449 11.2058-13.8778 13.8889-4.793 1.562-13.6429 2.3806-19.5904 1.812zm58.2495-.022c-7.0063-.9606-12.8853-5.1196-15.8834-11.2364-2.0358-4.1535-2.4237-6.039-2.4237-11.782 0-5.827.3822-7.6249 2.5661-12.0723 2.4293-4.947 6.507-8.3771 12.1496-10.2202 2.1709-.7092 3.1679-.841 6.56-.8675 4.7551-.037 6.4947.3314 10.4141 2.206 3.0801 1.4732 6.5491 4.339 8.2859 6.8452.4989.7199 1.0046 1.3088 1.1239 1.3088s.4005-1.764.6248-3.92.4827-4.244.5743-4.64c.166-.7184.1804-.72 6.8771-.72h6.7107l-.1762.88c-.097.484-.6996 5.4513-1.3393 11.0383l-1.163 10.1583 1.1654 10.1617c.641 5.589 1.2437 10.5577 1.3393 11.0417l.1738.88h-6.72-6.72l-.1684-.88c-.093-.484-.3327-2.464-.5335-4.4s-.4255-3.7144-.4993-3.9521c-.079-.255-.7011.3352-1.5174 1.44-4.828 6.5347-13.0361 9.8801-21.4208 8.7305zm10.7974-10.3889c2.8566-.744 4.8849-1.9869 7.5552-4.6295 1.8552-1.8359 2.7578-3.058 3.8406-5.2l1.4154-2.8-1.4185-2.8c-1.9457-3.8404-5.3291-7.2727-8.7888-8.9157-2.0798-.9877-2.887-1.1905-5.2819-1.3271-3.5838-.2043-5.602.2718-8.0326 1.8949-3.739 2.4968-5.6498 6.7712-5.3653 12.0017.2005 3.6855 1.0816 5.9673 3.1987 8.2837 3.244 3.5495 7.8555 4.8 12.8772 3.492zm102.1626 10.3889c-7.0063-.9606-12.8853-5.1196-15.8834-11.2364-2.0358-4.1535-2.4237-6.039-2.4237-11.782 0-5.827.3822-7.6249 2.5661-12.0723 2.4293-4.947 6.507-8.3771 12.1496-10.2202 2.1709-.7092 3.1679-.841 6.56-.8675 4.7551-.037 6.4947.3314 10.4141 2.206 3.0801 1.4732 6.5491 4.339 8.2859 6.8452.4989.7199 1.0046 1.3088 1.1239 1.3088s.4005-1.764.6248-3.92.4827-4.244.5743-4.64c.166-.7184.1804-.72 6.8771-.72h6.7107l-.1762.88c-.097.484-.6996 5.4513-1.3393 11.0383l-1.163 10.1583 1.1654 10.1617c.641 5.589 1.2437 10.5577 1.3393 11.0417l.1738.88h-6.72-6.72l-.1684-.88c-.093-.484-.3327-2.464-.5335-4.4s-.4255-3.7144-.4993-3.9521c-.079-.255-.7011.3352-1.5174 1.44-4.828 6.5347-13.0361 9.8801-21.4208 8.7305zm10.7974-10.3889c2.8566-.744 4.8849-1.9869 7.5552-4.6295 1.8552-1.8359 2.7578-3.058 3.8406-5.2l1.4154-2.8-1.4185-2.8c-1.9457-3.8404-5.3291-7.2727-8.7888-8.9157-2.0798-.9877-2.887-1.1905-5.2819-1.3271-3.5838-.2043-5.602.2718-8.0326 1.8949-3.739 2.4968-5.6498 6.7712-5.3653 12.0017.2005 3.6855 1.0816 5.9673 3.1987 8.2837 3.244 3.5495 7.8555 4.8 12.8772 3.492zm118.8353 10.4062c-7.3835-.7061-13.4103-3.4712-17.8675-8.1974-3.9843-4.2247-5.562-8.4338-5.562-14.8383 0-5.9551 1.2374-9.6673 4.6614-13.984 5.2639-6.6364 15.7914-10.2436 26.6056-9.1164 14.7458 1.5371 23.6809 10.193 23.6805 22.9404-.0002 6.3135-1.6933 10.8525-5.6139 15.0507-4.4153 4.7278-10.3348 7.3951-18.085 8.149-3.4642.337-4.2573.3366-7.8191 0zm7.4159-9.9269c7.5429-1.1837 12.0963-7.6347 10.8903-15.4288-.7055-4.5596-2.7616-7.5143-6.5076-9.3514-2.5749-1.2628-4.789-1.7686-7.7427-1.7686-4.4463 0-9.0339 1.7369-11.2226 4.249-3.9324 4.5133-4.3455 12.1034-.9287 17.0644 2.9379 4.2656 8.8897 6.2745 15.5113 5.2354zm109.7041 9.9269c-7.3835-.7061-13.4103-3.4712-17.8675-8.1974-3.9843-4.2247-5.562-8.4338-5.562-14.8383 0-5.9551 1.2374-9.6673 4.6614-13.984 5.2639-6.6364 15.7914-10.2436 26.6056-9.1164 14.7458 1.5371 23.6809 10.193 23.6805 22.9404-.0002 6.3135-1.6933 10.8525-5.6139 15.0507-4.4153 4.7278-10.3348 7.3951-18.085 8.149-3.4642.337-4.2573.3366-7.8191 0zm7.4159-9.9269c7.5429-1.1837 12.0963-7.6347 10.8903-15.4288-.7055-4.5596-2.7616-7.5143-6.5076-9.3514-2.5749-1.2628-4.789-1.7686-7.7427-1.7686-4.4463 0-9.0339 1.7369-11.2226 4.249-3.9324 4.5133-4.3455 12.1034-.9287 17.0644 2.9379 4.2656 8.8897 6.2745 15.5113 5.2354zm137.3505 9.9257c-3.9967-.4129-7.5753-1.4203-10.9505-3.0827-2.5658-1.2637-3.4913-1.9508-5.9328-4.4045-3.1125-3.128-4.8642-5.9991-6.1667-10.1073-1.2808-4.0396-1.4931-5.7562-1.4645-11.84.025-5.3162.1136-6.2463.8697-9.12 1.5803-6.0056 4.5897-10.9559 8.7434-14.3821 5.3293-4.3958 11.3569-6.3117 22.6709-7.2062 9.8043-.7751 14.2747-1.4078 17.1737-2.4306l1.2413-.438-.088 5.4884-.087 5.4884-2.24.5666c-2.8538.7219-6.2911 1.1153-14.8965 1.7049-9.6697.6626-13.7194 1.9178-17.2892 5.3587-3.2433 3.1263-5.402 8.6489-5.4119 13.8452v1.2753l.6728-1.2753c2.606-4.9392 7.5866-8.5585 13.9527-10.1392 3.681-.914 10.3244-.9728 13.6945-.1213 8.2258 2.0784 13.9535 7.8585 15.4044 15.5452 1.0149 5.3766-.075 11.0742-2.9445 15.3902-4.0512 6.094-11.2445 9.5022-21.0999 9.9973-1.76.088-4.3923.038-5.8495-.113zm7.9819-10.0575c3.9791-.8434 6.4222-2.6299 8.0117-5.8586.9585-1.9471 1.0559-2.4117 1.0559-5.0384 0-2.6214-.098-3.0932-1.0466-5.0193-.5756-1.1692-1.577-2.5917-2.2254-3.1609-4.4468-3.9044-12.7914-4.1726-18.3733-.5907-1.992 1.2783-4.6695 4.1911-5.839 6.3524l-.9244 1.7081.5336 1.6925c2.3135 7.3392 10.5279 11.6697 18.8075 9.9149zm46.579 10.0414c-7.0063-.9606-12.8853-5.1196-15.8834-11.2364-2.0358-4.1535-2.4237-6.039-2.4237-11.782 0-5.827.3822-7.6249 2.5662-12.0723 2.4292-4.947 6.5069-8.3771 12.1495-10.2202 2.1709-.7092 3.1679-.841 6.56-.8675 4.7551-.037 6.4948.3314 10.4141 2.206 3.0802 1.4732 6.5491 4.339 8.2859 6.8452.4989.7199 1.0046 1.3088 1.124 1.3088.1193 0 .4004-1.764.6247-3.92s.4828-4.244.5743-4.64c.166-.7184.1805-.72 6.8771-.72h6.7107l-.1762.88c-.097.484-.6995 5.4513-1.3392 11.0383l-1.1631 10.1583 1.1654 10.1617c.641 5.589 1.2437 10.5577 1.3393 11.0417l.1738.88h-6.72-6.72l-.1683-.88c-.093-.484-.3327-2.464-.5336-4.4-.2008-1.936-.4255-3.7144-.4993-3.9521-.079-.255-.7011.3352-1.5173 1.44-4.8281 6.5347-13.0362 9.8801-21.4209 8.7305zm10.7974-10.3889c2.8567-.744 4.8849-1.9869 7.5552-4.6295 1.8553-1.8359 2.7578-3.058 3.8406-5.2l1.4154-2.8-1.4185-2.8c-1.9457-3.8404-5.329-7.2727-8.7888-8.9157-2.0798-.9877-2.887-1.1905-5.2818-1.3271-3.5839-.2043-5.6021.2718-8.0327 1.8949-3.739 2.4968-5.6498 6.7712-5.3652 12.0017.2005 3.6855 1.0815 5.9673 3.1986 8.2837 3.244 3.5495 7.8555 4.8 12.8772 3.492zm172.2524 10.3995c-11.2547-1.2645-19.5071-7.3978-22.3745-16.629-.6334-2.0393-.7416-3.0492-.7199-6.72.022-3.7688.1335-4.6466.8712-6.88.4651-1.408 1.3882-3.4742 2.0514-4.5916 1.5316-2.5808 5.443-6.3301 8.2291-7.8882 5.9987-3.3547 14.6445-4.499 21.6215-2.8617 6.85 1.6074 12.9187 7.0138 15.60483 13.9015 1.3393 3.4344 2.3021 8.3967 2.3126 11.92v.88h-18.40003c-10.12 0-18.3987.108-18.397.24.01.6853 2.0278 3.6207 3.2926 4.7866 2.8124 2.5923 6.3322 3.8717 11.4244 4.1526 6.083.3355 12.1461-.9322 17.68-3.6967l3.12003-1.5586v4.2548c0 4.9659.2145 4.6212-4.24083 6.8131-6.4811 3.1885-14.958 4.6772-22.078 3.8772zm14.6715-28.5454c-.563-2.815-3.7665-6.2786-6.9324-7.4952-2.2522-.8655-7.9164-.772-10.2992.1699-2.4085.9521-5.095 3.4176-6.1469 5.6411-1.4018 2.9631-2.4165 2.7206 11.3858 2.7206h12.2zm-151.1083 28.0802c-1.0756-.234-2.5516-.7295-3.28-1.1011l-1.3244-.6757v-4.655-4.6551l.72.231c6.6151 2.1221 10.1052.023 11.4843-6.9079.7251-3.6436.3771-20.1424-.545-25.84l-.1683-1.04h22.8945 22.8945v22.08 22.08h-6.56-6.56v-17.28-17.28h-10.1057-10.1056l.2585 3.28c.649 8.236.074 17.3401-1.379 21.84-1.2945 4.0087-3.7598 7.2473-6.6199 8.6967-3.1401 1.5912-7.709 2.0743-11.6039 1.2271zm-764.2801-.708c0-.1407.5589-5.126 1.2366-11.0785l1.2323-10.8226-1.2325-10.7774c-.6779-5.9275-1.2344-10.8853-1.2366-11.0173-.01-.3703 36.1133-.2921 38.0888.082 3.7402.7094 7.2159 3.07 8.7127 5.9176.4957.9431.7091 2.0514.8105 4.2107.1227 2.6119.051 3.1196-.6576 4.6676-.9355 2.0435-2.5331 3.7344-4.6947 4.9689l-1.5566.8891 1.8326.5401c5.3477 1.576 8.3402 5.8734 7.9238 11.3788-.3789 5.01-3.3941 8.5442-8.8636 10.3895-2.0374.6873-2.4852.7038-21.84.8043-10.868.056-19.7581-.013-19.7557-.1532zm34.8746-8.9131c.6154-.3615 1.4561-1.1535 1.8683-1.76.6247-.9191.728-1.409.6206-2.943-.1046-1.4952-.3049-2.0277-1.0683-2.8394-1.7945-1.9082-2.2941-1.9954-12.2504-2.1373-4.9889-.071-9.1922-.01-9.3407.1439-.1484.1502-.4947 2.0731-.7695 4.2731s-.5798 4.4771-.6776 5.0602l-.1779 1.0602 10.3383-.1002c9.7535-.094 10.4016-.1373 11.4572-.7575zm-2.6281-17.7389c1.0465-.475 1.518-.9465 1.993-1.993.7907-1.7423.7913-2.6082 0-4.2367-1.2092-2.4978-1.4885-2.5604-11.9571-2.6763l-9.2303-.1022.1751.9022c.096.4962.3327 2.2702.5255 3.9422.1927 1.672.427 3.436.5206 3.92l.1702.88 8.2146-.01c7.4437-.01 8.3432-.065 9.5854-.6292zm167.6451 26.1562c.3561-.396 3.8861-4.608 7.8444-9.36 3.9584-4.752 7.9291-9.5119 8.8239-10.5776l1.6269-1.9376-5.4676-6.7024c-3.0071-3.6863-6.9652-8.5384-8.7957-10.7824l-3.3282-4.08h7.3002 7.3002l5.4098 6.5584c2.9754 3.6071 5.5823 6.7015 5.7932 6.8766.279.2315 1.9429-1.5578 6.1026-6.5622l5.7191-6.8804h7.1834 7.1834l-.6478.72c-2.0302 2.2562-16.7984 20.1701-16.9466 20.5563-.1116.2909 3.0526 4.2888 8.5423 10.7929 4.7957 5.682 9.0868 10.7296 9.5357 11.2169l.8162.8861-7.4964-.086-7.4964-.086-5.5568-6.56c-3.0563-3.608-5.8814-6.9678-6.278-7.4663l-.721-.9062-6.2972 7.5462-6.2972 7.5463h-7.25-7.2499zm239.4685.4958c0-.1407.5588-5.126 1.2366-11.0785l1.2322-10.8226-1.2325-10.7774c-.6779-5.9275-1.2344-10.8853-1.2366-11.0173-.01-.3703 36.1134-.2921 38.0888.082 3.7402.7094 7.2159 3.07 8.7127 5.9176.4958.9431.7091 2.0514.8105 4.2107.1227 2.6119.051 3.1196-.6576 4.6676-.9355 2.0435-2.533 3.7344-4.6947 4.9689l-1.5566.8891 1.8326.5401c5.3477 1.576 8.3402 5.8734 7.9239 11.3788-.3789 5.01-3.3942 8.5442-8.8637 10.3895-2.0374.6873-2.4852.7038-21.84.8043-10.868.056-19.758-.013-19.7556-.1532zm34.8745-8.9131c.6154-.3615 1.4562-1.1535 1.8683-1.76.6247-.9191.728-1.409.6207-2.943-.1046-1.4952-.305-2.0277-1.0683-2.8394-1.7946-1.9082-2.2941-1.9954-12.2504-2.1373-4.989-.071-9.1923-.01-9.3407.1439-.1484.1502-.4947 2.0731-.7696 4.2731-.2748 2.2-.5797 4.4771-.6776 5.0602l-.1779 1.0602 10.3383-.1002c9.7535-.094 10.4016-.1373 11.4572-.7575zm-2.6281-17.7389c1.0465-.475 1.518-.9465 1.993-1.993.7908-1.7423.7914-2.6082 0-4.2367-1.2092-2.4978-1.4885-2.5604-11.9571-2.6763l-9.2303-.1022.1751.9022c.096.4962.3328 2.2702.5255 3.9422s.427 3.436.5206 3.92l.1702.88 8.2146-.01c7.4437-.01 8.3432-.065 9.5854-.6292zm85.8292 4.8016v-22.0854h6.397 6.3971l.083 15.9668.083 15.9668 11.6467-15.9668 11.6468-15.9668h8.4332 8.4333v22.08 22.08h-6.3971-6.3971l-.083-16.3244-.083-16.3245-11.8506 16.2445-11.8506 16.2444-8.2294.085-8.2294.085zm269.44 0v-22.08h6.5566 6.5566l.083 13.6968.083 13.6968 11.1325-13.6968 11.1325-13.6968h7.0833 7.0833l-.6417.72c-4.0061 4.4956-14.5099 16.93-14.5099 17.177 0 .1773 3.672 6.0917 8.16 13.143 4.488 7.0514 8.16 12.8881 8.16 12.9704 0 .082-3.2954.1496-7.3231.1496h-7.3232l-4.8335-7.92c-2.6585-4.356-4.9507-8.0985-5.0937-8.3166-.1767-.2695-2.5539 2.271-7.411 7.92l-7.1507 8.3166h-5.8724-5.8724zm-248.48-26.7718c-6.0983-1.3047-10.7118-5.8463-12.1346-11.9453l-.4486-1.9233h5.0855 5.0855l.2115.88c.5774 2.4024 2.2611 4.4703 4.3504 5.3431 1.6371.6838 4.8873.6296 6.5129-.1088 1.6402-.7449 3.2331-2.6466 3.7812-4.5143l.4226-1.44 5.0068-.088c5.6392-.099 5.2831-.3069 4.5168 2.6349-1.524 5.851-5.9044 9.8845-12.178 11.2135-2.7947.5921-7.3099.5692-10.212-.052zm-800.96-23.652c-1.584-.2427-3.744-.6511-4.8-.9073-1.056-.2563-3.288-.771-4.96-1.1439-6.0038-1.3387-7.2592-1.6469-11.36-2.7887-8.9491-2.4917-16.4373-6.0527-22.0031-10.4634-5.4782-4.3414-9.2922-9.4736-19.0452-25.6277-7.1762-11.886-9.7037-19.3254-9.7324-28.6456-.032-10.3596 3.2869-19.6636 11.4785-32.1781 3.9619-6.0527 4.7695-7.2981 11.0455-17.0315 2.1244-3.2947 5.047-7.7904 6.4946-9.9904 2.7889-4.2382 5.4572-8.3814 7.0421-10.9344 1.1613-1.8707 5.4718-8.6999 8.5969-13.6201 1.2557-1.9771 3.4956-5.5051 4.9775-7.84 1.4819-2.335 4.456-6.9976 6.609-10.3614s4.1446-6.5318 4.4258-7.04 1.9564-3.1561 3.7228-5.8841 4.8833-7.768 6.9265-11.2c2.0433-3.432 4.1733-6.96 4.7335-7.84s2.5067-4.12 4.3255-7.2c1.8189-3.08 4.2665-7.184 5.4391-9.12 2.3916-3.9487 6.5958-11.1721 7.6362-13.12.376-.704 1.0366-1.856 1.4681-2.56s1.6812-2.864 2.7771-4.8c1.096-1.936 2.8057-4.888 3.7995-6.56s2.5013-4.336 3.3501-5.92 2.8382-5.184 4.4208-8 4.171-7.424 5.7521-10.24 3.6739-6.488 4.6509-8.16c.9769-1.672 2.0194-3.472 2.3167-4 14.9122-26.4862 30.3773-49.4476 39.0016-57.907 3.0401-2.9819 3.1607-2.1002.5231 3.827-.2349.528-1.2483 2.8929-2.2518 5.2554-1.0036 2.3624-1.9546 4.5224-2.1133 4.8-.1587.2775-1.2127 2.6646-2.3421 5.3046-1.8086 4.2279-4.5086 10.1859-7.6132 16.8-.537 1.144-1.4412 3.16-2.0094 4.48-.5681 1.32-1.5051 3.408-2.0821 4.64s-1.5408 3.32-2.1417 4.64c-3.6674 8.0557-12.8238 26.5667-19.8651 40.16-4.0455 7.81-6.4017 12.272-13.6875 25.92-.8456 1.584-2.3045 4.2171-3.242 5.8514-.9376 1.6342-1.7046 3.0295-1.7046 3.1007 0 .2641-8.3709 15.2928-12.481 22.4079-2.3384 4.048-5.2861 9.16-6.5504 11.36s-3.7995 6.3481-5.6337 9.218-3.6074 5.6779-3.9404 6.24-1.989 3.0803-3.68 5.5959c-8.9867 13.3692-9.2441 13.7486-13.1545 19.3919-1.144 1.6509-4.024 5.8558-6.4 9.344-2.376 3.4883-6.048 8.8756-8.16 11.9717-2.112 3.0962-4.704 6.896-5.76 8.4442-1.056 1.5481-3.2816 4.7811-4.9458 7.1845-4.4198 6.3829-9.3026 14.4126-11.1163 18.2806-2.1659 4.6189-4.6009 11.8509-5.2551 15.6078-.6789 3.8984.2183 9.5083 2.2191 13.8752 1.7362 3.7897 3.7307 6.7661 11.8785 17.7262 1.5701 2.112 3.7509 5.1209 4.8464 6.6863 3.7019 5.2903 7.9712 9.6016 11.0845 11.1938 3.9417 2.0158 10.0576 3.916 17.5287 5.4461 8.3518 1.7105 9.8695 1.9087 14.72 1.9221 5.2213.014 8.0756-.5529 11.52-2.2897 2.6992-1.3611 7.0385-6.1194 13.1185-14.3853 6.431-8.7432 14.836-18.5769 21.0031-24.5733 9.4768-9.2145 21.0132-17.913 32.1184-24.2174 7.8184-4.4384 22.2025-11.2548 33.92-16.074 1.584-.6515 3.168-1.3103 3.52-1.4641s1.504-.6377 2.56-1.0754c1.8046-.7479 6.2829-2.6261 16.0000004-6.7106 15.8268-6.6526 20.4668996-8.9851 29.7599996-14.9597 17.4218-11.2007 33.3109-25.0525 50.0834-43.6618 6.4976-7.2092 13.1727-15.3407 16.3166-19.8765.264-.3809 1.704-2.4507 3.2-4.5997 4.7942-6.8866 7.7207-11.5622 10.3153-16.4808 2.39-4.5305 3.2665-5.9071 3.5534-5.5809.1744.1983-1.4357 6.5558-2.4756 9.775-.2783.8613-1.2404 3.8699-2.1381 6.6859-1.7623 5.5282-2.6075 7.9164-3.5109 9.92-.3174.704-1.2981 2.936-2.1793 4.96-4.7497 10.9099-11.5016 22.2623-19.958 33.5568-5.5374 7.3958-8.9211 11.3112-15.2692 17.6686-15.0172 15.0392-30.8852 25.6404-52.6575996 35.1799-7.34380001 3.2177-13.4088 5.534-23.8400004 9.1049-2.904.9941-6.576 2.2969-8.16 2.8952-10.3465 3.9081-18.5349 7.1041-20.48 7.9936-.88.4024-3.1154 1.3992-4.9675 2.2151-13.464 5.931-28.1548 15.9774-37.8725 25.8992-5.7829 5.9045-14.2555 17.1912-19.1585 25.5221-3.4511 5.8639-7.5647 10.6273-11.5394 13.3619-1.8059 1.2425-6.517 3.626-8.8621 4.4836-4.4486 1.627-13.1854 2.1312-19.68 1.1357zm229.28-9.1295c-5.4876-.449-7.3252-1.5069-7.6008-4.3754-.1352-1.4068.026-1.886 1.7544-5.2105 1.0468-2.0136 3.2421-5.8212 4.8784-8.4612 7.9734-12.8637 10.5032-17.321 15.5224-27.3488 3.9092-7.8102 6.3871-13.1434 12.7172-27.3712 22.4501-50.4594 44.1291-97.5839 70.7353-153.76 17.2127-36.3427 38.2481-79.3924 45.9407-94.0192 1.9725-3.7505 3.5121-6.9393 3.4214-7.0861-.2317-.3749-7.1287-4.3948-16.2535-9.4732-44.7513-24.9064-92.5899-42.3821-135.2548-49.4091-9.6914-1.5962-24.0207-3.0514-24.0207-2.4394 0 .126.1509.5111.3353.8557.8948 1.6719 1.903 8.1432 2.0799 13.3498.1952 5.7443-.1499 12.7015-.6299 12.7015-.2778 0-.6248-1.3525-1.4629-5.7028-.902-4.6821-3.6712-11.0206-6.6512-15.2247-3.6275-5.1174-12.7916-13.2967-20.8712-18.6284-11.7711-7.7676-20.5702996-11.3008-35.4006996-14.2148-7.0440004-1.384-20.7132004-2.6958-41.5593004-3.9883-10.1914-.6318-19.3264-1.3278-25.12-1.9138-1.672-.1692-5.3171-.466-8.1003-.6597-5.2067-.3624-5.9797-.2525-5.9797.85 0 .678 5.8628 6.8853 10.6276 11.2522 11.1219 10.1929 22.9415 17.5087 36.5724 22.6367 3.4159 1.285 9.0002 2.875 11.7751 3.3526 1.0917.1879 2.9929.5531 4.2249.8117 2.9248.6137 11.1901 1.7532 12.7011 1.7511 1.2958 0 1.7888.4316 1.2412 1.0913-.8184.9861-18.7906 8.887-30.1023 13.2335-3.5367 1.359-16.1521 5.587-27.2 9.1161-6.2684 2.0023-9.6316 3.0417-23.68 7.3185-11.6215 3.538-13.5955 4.15-16 4.9603-4.3144 1.4541-12.9176 4.6679-14.88 5.5585-1.056.4793-3.288 1.4152-4.96 2.0797-10.0992 4.0142-22.9296 10.3892-33.76 16.7741-2.112 1.2451-4.0297 2.2644-4.2616 2.265-1.3924 0 2.4489-5.0012 8.1033-10.5588 5.176-5.0873 4.5619-4.5166 8.4783-7.8799 4.9826-4.2791 7.0332-5.755 14.3888-10.3562 2.8165-1.7619 11.6178-6.3791 13.2912-6.9726.528-.1873 2.4-.9415 4.16-1.676 5.3672-2.2399 12.9884-4.8697 22.72-7.8398 2.64-.8058 5.52-1.6896 6.4-1.9641 2.6497-.8266 9.9476-2.8406 14.88-4.1064 14.4659-3.7125 21.1889-5.503 22.457-5.9807 1.7484-.6587 1.2163-1.9887-.9473-2.3673-2.5902-.4534-10.7403-3.2426-16.0697-5.4997-11.124-4.711-19.0694-9.7446-28.96-18.3469-12.1121-10.5344-28.6542-31.7822-36.0449-46.2985-1.9051-3.7418-1.9555-4.2318-.4351-4.2318.616 0 1.12.1307 1.12.2906 0 .1598.828.5787 1.84.9307 1.012.3521 3.5602 1.2434 5.6627 1.9807 8.6118 3.02 18.1337 5.5418 27.2173 7.2083 11.4352 2.098 18.8575 2.799 35.52 3.3548 11.2414.3749 28.3774 1.2085 29.3999 1.4301.3741.081 2.9121.3054 5.6401.4984 13.8724.9816 30.9300004 4.7684 41.12 9.1287 9.2749 3.9687 16.9452 8.7236 23.9702 14.8594 3.9102 3.4153 5.5656 5.2448 8.3193 9.194 1.0107 1.4496 2.0053 2.7392 2.21 2.8658.2048.1265 6.2062.2515 13.3364.2778 20.7337.076 44.3471 1.7611 60.1641 4.2929 2.024.324 5.768.8967 8.32 1.2727 13.7891 2.0316 25.7266 4.5103 44.96 9.3355 13.2814 3.332 27.4483 7.9968 40.48 13.329 15.4046 6.3032 25.5123 10.7874 30.4 13.4869.968.5346 1.9294.9747 2.1364.9778.2071 0 3.3685-4.7102 7.0253-10.4742 12.2838-19.362 20.5278-31.2962 27.111-39.2462 6.3077-7.6174 11.0837-12.0373 14.7682-13.6671 1.3295-.5881 2.0005-.6566 5.4701-.5585 3.7949.1073 3.9895.1466 4.8138.9711.6699.67.8917 1.2528 1.0073 2.6472.3764 4.5378-1.5692 9.0133-8.6341 19.861-2.6939 4.1364-6.2228 9.5709-7.842 12.0766-8.5283 13.198-10.2385 15.7089-18.7525 27.532-3.8937 5.4073-6.6286 9.7296-6.6124 10.4506.01.2726 2.0311 1.8406 4.5255 3.5043 19.6972 13.137 40.6445 30.0989 55.1434 44.6518 16.7973 16.8599 29.9332 34.2755 40.8345 54.1382 8.3652 15.2418 15.2953 32.4976 19.4536 48.439 3.8592 14.7948 6.0582 33.9436 5.7353 49.9423-.074 3.6716-.112 6.6447-.084 6.6067s1.4582-3.381 3.1788-7.429c11.3955-26.8107 23.2507-45.8216 32.5873-52.2565 6.3806-4.3976 11.952-6.0426 19.4676-5.7476 4.5328.1778 5.3063.4357 8.3858 2.796 1.3178 1.0101 2.4174 1.6081 2.9568 1.6081.6418 0 1.7162-.7905 4.2516-3.1284 18.3435-16.9141 29.5816-25.0484 43.0729-31.1768 12.166-5.5264 21.2045-7.7977 34.3593-8.634 16.9012-1.0745 29.5033 3.0314 39.4196 12.8433 3.5553 3.5178 5.1932 5.8253 7.3639 10.3743 2.7135 5.6868 4.462 12.1842 5.4792 20.3616.6555 5.2691.5596 21.1814-.16 26.56-5.0759 37.9402-26.4445 79.8994-58.3998 114.6735-10.2669 11.1726-23.4221 22.0596-35.2472 29.1702l-2.065 1.2417.9689.3953c1.8423.7518 7.6652 1.4277 13.8811 1.6112 8.8346.261 16.5382-.4829 25.44-2.4566 19.0224-4.2175 41.5832-14.0572 64.16-27.9827 9.8119-6.052 9.3611-5.6779 10.4077-8.6372 2.1892-6.1899 5.2522-11.0925 9.2853-14.8618 6.75-6.3084 12.4579-9.8824 17.187-10.7617l1.2-.2231.01 6.8356c.012 10.0301.7923 16.7411 2.5708 22.1115 1.765 5.3295 3.4595 7.8069 6.2186 9.0917 1.3848.6449 2.1029.7466 5.2907.7493 7.1197.01 11.6706-1.0232 17.5249-3.9634 7.8468-3.9409 18.3424-12.4391 27.9351-22.6189 20.7968-22.0697 51.0231-59.917 67.0652-83.9746 8.7206-13.0777 11.8701-19.8915 16.8623-36.48 3.49-11.5971 5.4161-16.9641 8.0925-22.55 2.3047-4.8102 2.4551-5.0316 5.3256-7.84 6.02-5.8896 11.3259-8.7466 19.426-10.4598 2.573-.5443 4.1706-.6384 10.4-.6127 4.1929.017 7.8017.1751 8.3865.3668 2.4087.7895 3.0677 4.0713 2.3558 11.732-1.3444 14.4671-7.5354 33.3124-18.0038 54.8037-3.047 6.2554-3.5643 7.6542-11.1399 30.1242-10.2208 30.3156-13.0026 39.0446-20.4736 64.2429-3.2349 10.9105-3.7343 13.0891-3.984 17.3795-.1977 3.3966-.1925 3.4312.5976 3.9488 2.1157 1.3863 4.4375.8888 10.9014-2.3355 24.3297-12.1362 57.3128-39.4126 80.9688-66.9599 1.8892-2.2 5.3677-6.4078 7.7299-9.3506l4.295-5.3507 1.7645-4.7293c1.9306-5.1746 5.5409-15.4181 8.4338-23.9294 11.9753-35.2325 18.9071-51.9622 25.7224-62.08 2.6775-3.975 8.2593-9.4775 11.5903-11.4259 4.6596-2.7253 9.8124-4.0283 18.8392-4.7639 8.0633-.657 11.4454-.09 12.723 2.1322.7095 1.2343 1.3323 8.9788 1.0404 12.9376-1.1269 15.2835-12.7518 41.5726-31.1143 70.363-4.6036 7.218-6.0625 11.4787-20.3391 59.397-6.5076 21.8426-9.3941 32.4891-12.5799 46.4l-1.5389 6.72-.01 7.0533c-.01 8.0944.064 8.3541 2.6595 9.5136 1.8791.8396 7.7068 1.1481 10.6988.5664 5.0426-.9802 15.6874-5.231 24.0742-9.6134 13.5287-7.0692 32.6585-18.5015 54.182-32.38 3.2241-2.0789 5.9785-3.7799 6.121-3.7799s1.2828 1.362 2.53403 3.0267l2.275 3.0267-1.996 1.4032c-16.25953 11.4305-22.26233 15.3179-40.87603 26.4716-6.952 4.1657-15.376 9.2792-18.72 11.3634-16.195 10.0934-34.9653 19.8639-46.4 24.1525-9.9142 3.7183-20.422 6.7587-27.04 7.824-7.8364 1.2614-11.3935.011-12.7854-4.4962-1.7111-5.5398-1.6692-11.7924.1378-20.5894 1.0365-5.0459 4.3745-18.8025 6.4503-26.5825 1.7594-6.5944 3.6583-13.4687 4.7732-17.28.6435-2.2 1.3545-4.648 1.58-5.44.2254-.792 2.5308-8.568 5.123-17.28 5.6538-19.0019 5.3522-17.9586 5.2244-18.0702-.057-.05-.4047-.1827-.7731-.2956-.5617-.1723-1.3605.5834-4.9477 4.6802-8.5183 9.7287-19.1044 19.7741-35.8225 33.9929-12.4656 10.6021-50.2784 42.2044-53.12 44.3954-10.8145 8.3387-28.9192 17.705-37.9465 19.6314-3.113.6643-6.1286.4444-8.1929-.5973-1.1006-.5555-1.5727-1.0813-2.328-2.5932-.8616-1.725-.9591-2.2521-1.0782-5.8299-.2609-7.8361 1.4645-15.9122 8.2622-38.6737 2.6511-8.8769 11.0189-37.2023 13.6127-46.08.4114-1.408 2.7016-9.2282 5.0894-17.3782 2.3877-8.15 4.3413-15.0085 4.3413-15.2412 0-.2326-.4513-.6099-1.0029-.8383-.8453-.3502-1.059-.3428-1.36.047-.1964.2542-3.0116 3.9876-6.2559 8.2966-11.096 14.7369-39.8704 50.3733-50.251 62.2344-27.4284 31.3404-50.4315 48.5522-70.3185 52.6151-14.861 3.0361-23.9139.6586-27.9299-7.3351-1.4581-2.9023-2.662-6.6208-3.3802-10.4403-.7284-3.8738-.7379-10.9135-.02-14.6797.3021-1.584.6354-3.3625.7407-3.9523l.1916-1.0723-2.6871 1.7329c-11.2311 7.2425-30.8357 18.0807-41.7271 23.0684-18.8201 8.6186-37.1214 13.0025-59.84 14.3342-10.2846.6029-19.7565.1616-25.6051-1.1927l-2.245-.5199-2.875 1.4418c-13.4481 6.7444-27.4254 10.4429-43.3395 11.4679-24.8114 1.5981-42.155-7.9969-50.7452-28.0738-3.7503-8.7653-5.0871-16.6844-5.07-30.0342.018-13.8839 1.3807-23.7052 5.4202-39.0597.6048-2.2988 1.0987-4.3868 1.0976-4.64-.001-.2532-.8388 1.0517-1.8614 2.8997-7.6931 13.9025-16.9546 25.9008-30.2752 39.2213-19.0621 19.0621-36.3486 30.5953-61.9414 41.3261-29.7812 12.4869-63.5503 19.2449-104.48 20.9088-4.752.1932-24.84.5005-44.64.6828-19.8.1824-39.24.3701-43.2.4173-3.96.047-8.712-.038-10.56-.1892zm365.44-25.7004c0-.073-1.1186-.9172-2.4858-1.8752-5.3637-3.7585-10.1288-8.6512-13.4477-13.8081-4.7894-7.4416-9.1182-19.656-10.7574-30.3535-1.8829-12.2879-1.8893-21.7292-.026-39.0711.6398-5.9557.6396-5.9588-.2783-5.9588-.6356 0-.8333.2665-1.2463 1.68-.27.924-1.1629 3.959-1.9841 6.7443-1.6998 5.7649-2.5086 9.2776-3.2072 13.9293-1.5806 10.5229-2.2233 27.3658-1.3084 34.2864 1.3869 10.4919 5.3246 19.4874 11.1863 25.555 4.5054 4.6636 8.8896 7.057 15.5886 8.5102 1.8602.4036 7.9665.6806 7.9665.3615zm36.2815-11.95c12.7289-7.6322 24.1438-19.1979 34.9746-35.4367 16.5769-24.854 28.0924-57.5385 30.8353-87.52.5293-5.7855.453-16.7116-.146-20.8976-1.3488-9.4266-4.2419-17.2668-8.4874-23.0011-4.4411-5.9984-11.8447-9.5549-21.9171-10.5285-6.0352-.5834-11.3347.067-20.1809 2.4762-14.6783 3.9978-24.0937 10.6783-33.9818 24.111-13.8624 18.8318-24.2219 47.5919-27.433 76.16-.8165 7.2637-.8948 10.0564-.5428 19.36.3613 9.5484.746 12.7761 2.2499 18.88 2.3966 9.7269 6.0477 17.4214 11.669 24.592 6.6615 8.4974 14.1218 12.7601 26.2787 15.0154.7948.1474 2.2355-.5449 6.6815-3.2107zm-242.5215.8744c23.0443-1.063 42.4229-4.0656 55.5743-8.611 14.6075-5.0486 26.0683-13.043 34.153-23.8229 8.1068-10.8096 14.535-24.7646 17.9268-38.9172 2.4397-10.1795 3.3801-19.9058 3.125-32.32-.2015-9.8109-.4202-12.6504-1.6684-21.6699-3.7896-27.3816-14.7883-56.4388-30.679-81.0501-9.2709-14.3584-18.2259-25.3965-30.907-38.0963-12.801-12.8199-23.8562-22.0224-38.9401-32.4144l-3.5754-2.4633-2.068 3.447c-12.9457 21.5773-35.0661 65.9271-57.502 115.287-21.9117 48.207-51.995 119.2508-60.7054 143.36-2.46 6.8089-5.213 15.1475-5.0537 15.3069.2043.2042 7.9719.8827 14.9706 1.3076 3.13.1901 15.586.3648 27.68.3882 12.0941.024 25.3733.1409 29.5093.2608 12.2021.3537 40.5588.3582 48.16.01zm-292.8189-212.287c-.6068-.4455-.5984-.4989.3658-2.32 3.3848-6.3932 7.2504-12.4412 9.7092-15.1907 5.8373-6.5275 14.346-9.513 26.0771-9.1499 6.6233004.205 15.87370039.8795 16.74680039 1.2211.396.155.72000001.5149.72000001.7999 0 .7886-3.4016 5.4471-5.8945 8.0724-7.4193004 7.8136-19.7271004 14.2548-31.2645004 16.3622-4.5672.8342-15.4186.9693-16.4599.205z" fill="#fff" transform="translate(219.99467 -2037.5887)"/></svg>