<svg width="165" height="34" viewBox="0 0 165 34" fill="none" xmlns="http://www.w3.org/2000/svg">
<path d="M0 28.64H21.79V33.16H0V28.64ZM157.58 14.13L164.45 6.55H159.33L153.7 12.85V6.55H149.62V22.48H153.72V15.77L159.74 22.48H165L157.58 14.13ZM24.19 15.18C24.08 18.18 23.7 18.75 22.04 18.75V22.49H22.66C26.83 22.49 27.82 20.34 27.97 15.55L28.15 10.25H32V22.48H36.08V6.55H24.47L24.19 15.18ZM6.48 17.92H15.08L16.51 22.48H21.28L14.85 3.32C14.23 1.47 13.51 0 11.05 0C8.59 0 7.84 1.47 7.18 3.32L0.440001 22.48H4.92L6.48 17.92ZM10.84 5H10.95L13.83 14.08H7.77L10.84 5ZM106.15 8.81H101.6V4.31H112.16V0.31H97.32V22.48H106.15C111.04 22.48 113.85 20.04 113.85 15.58C113.85 11.35 111 8.81 106.15 8.81ZM105.94 18.47H101.6V12.71H105.94C108.2 12.71 109.47 13.71 109.47 15.59C109.47 17.47 108.2 18.47 105.94 18.47ZM65.59 6.18V0.28H61.52V6.18C59.3829 6.2505 57.3611 7.1663 55.8986 8.7262C54.4362 10.2862 53.6526 12.3628 53.72 14.5C53.6472 16.6416 54.428 18.7244 55.8908 20.2903C57.3535 21.8563 59.3784 22.777 61.52 22.85V28.85H65.6V22.85C66.6608 22.8151 67.7044 22.5714 68.6708 22.1326C69.6373 21.6939 70.5077 21.0688 71.2323 20.2932C71.9568 19.5175 72.5212 18.6066 72.8932 17.6125C73.2652 16.6184 73.4374 15.5607 73.4 14.5C73.4428 13.4386 73.2737 12.3793 72.9028 11.384C72.5318 10.3886 71.9663 9.4771 71.2393 8.7026C70.5123 7.9282 69.6383 7.3062 68.6684 6.8731C67.6984 6.44 66.652 6.2044 65.59 6.18ZM61.53 19C60.4502 18.8814 59.4603 18.3431 58.7738 17.5013C58.0872 16.6595 57.759 15.5816 57.86 14.5C57.772 13.4211 58.1049 12.35 58.7891 11.5112C59.4732 10.6723 60.4555 10.1308 61.53 10V19ZM65.61 19V10C66.6845 10.1308 67.6668 10.6723 68.3509 11.5112C69.0351 12.35 69.368 13.4211 69.28 14.5C69.3757 15.5805 69.0456 16.6556 68.36 17.4963C67.6745 18.3369 66.6877 18.8765 65.61 19ZM88.69 17.59V12.22C88.69 8.3 86.2 5.85 82.02 5.85C77.84 5.85 75.4 8.45 75.2 11.16H79.33C79.47 10.58 80.09 9.55 82.01 9.55C82.369 9.5038 82.733 9.5416 83.074 9.6606C83.416 9.7796 83.725 9.9763 83.977 10.2354C84.229 10.4944 84.418 10.8086 84.528 11.153C84.638 11.4975 84.666 11.8628 84.61 12.22H80.61C76.99 12.22 74.84 14.13 74.84 17.29C74.8118 18.0441 74.9422 18.7957 75.2228 19.4962C75.5035 20.1967 75.9281 20.8304 76.4692 21.3564C77.0102 21.8824 77.6557 22.2889 78.3639 22.5497C79.072 22.8104 79.827 22.9195 80.58 22.87C81.4301 22.9147 82.278 22.7492 83.049 22.3882C83.82 22.0271 84.49 21.4817 85 20.8C85.332 21.3615 85.816 21.8173 86.397 22.1146C86.977 22.412 87.63 22.5387 88.28 22.48H89.69V18.8C89 18.8 88.69 18.47 88.69 17.59ZM84.61 16.59C84.627 16.9839 84.56 17.3769 84.413 17.743C84.267 18.1091 84.045 18.4401 83.762 18.7141C83.478 18.9881 83.14 19.1989 82.769 19.3327C82.398 19.4664 82.003 19.52 81.61 19.49C80.14 19.49 78.98 18.96 78.98 17.37C78.98 15.78 80.27 15.55 81.36 15.55H84.61V16.59ZM46.24 11.39H43.31V6.55H39.23V22.48H46.31C50.74 22.48 52.31 19.6 52.31 16.88C52.33 13.37 50.13 11.39 46.24 11.39ZM45.94 19H43.31V15H45.94C47.35 15 48.2 15.64 48.2 17C48.2 18.36 47.39 19 45.94 19ZM129.42 17.59V12.22C129.42 8.3 126.93 5.85 122.75 5.85C118.57 5.85 116.13 8.45 115.93 11.16H120.06C120.2 10.58 120.82 9.55 122.74 9.55C123.099 9.5038 123.463 9.5416 123.804 9.6606C124.146 9.7796 124.455 9.9763 124.707 10.2354C124.959 10.4944 125.148 10.8086 125.258 11.153C125.368 11.4975 125.396 11.8628 125.34 12.22H121.34C117.72 12.22 115.57 14.13 115.57 17.29C115.542 18.0441 115.672 18.7957 115.953 19.4962C116.233 20.1967 116.658 20.8304 117.199 21.3564C117.74 21.8824 118.386 22.2889 119.094 22.5497C119.802 22.8104 120.557 22.9195 121.31 22.87C122.168 22.9231 123.026 22.7617 123.807 22.4004C124.587 22.039 125.265 21.489 125.78 20.8C126.107 21.3517 126.582 21.8012 127.151 22.098C127.72 22.3948 128.36 22.5271 129 22.48H130.41V18.8C129.7 18.8 129.42 18.47 129.42 17.59ZM125.36 16.59C125.375 16.9835 125.307 17.3757 125.16 17.7411C125.013 18.1065 124.791 18.4368 124.508 18.7105C124.225 18.9841 123.887 19.195 123.517 19.3294C123.147 19.4637 122.753 19.5184 122.36 19.49C120.89 19.49 119.73 18.96 119.73 17.37C119.73 15.78 121.02 15.55 122.11 15.55H125.36V16.59ZM142.45 12.48H136.82V6.55H132.74V22.49H136.82V16.21H142.45V22.48H146.53V6.55H142.45V12.48Z" fill="#EF3124"/>
</svg>
