<svg width="170" height="34" viewBox="0 0 170 34" fill="none" xmlns="http://www.w3.org/2000/svg">
<path fill-rule="evenodd" clip-rule="evenodd" d="M0 16.9675C0 7.88041 7.5109 0.510751 16.7796 0.5V6.45055C10.8603 6.45862 6.06923 11.1648 6.06923 16.9675C6.06923 22.7702 10.8739 27.4898 16.8041 27.4898C22.7344 27.4898 27.5336 22.824 27.5336 16.9298L33.6055 16.9353C33.6055 26.0654 26.0865 33.4403 16.8041 33.4403C7.5218 33.4403 0 26.0626 0 16.9675ZM9.38825 16.9673C9.38825 12.933 12.7294 9.66216 16.8419 9.66216C20.9544 9.66216 24.2983 12.933 24.2983 16.9673C24.2983 21.0015 20.9571 24.2724 16.8419 24.2724C12.7267 24.2724 9.38825 21.0042 9.38825 16.9673ZM26.2822 3.52672C23.9248 3.52672 22.0117 5.40004 22.0117 7.71415C22.0117 10.0256 23.9222 11.9042 26.2822 11.9042C28.6423 11.9042 30.5555 10.0283 30.5555 7.71415C30.5555 5.40004 28.6396 3.52672 26.2822 3.52672Z" fill="#222222"/>
<path fill-rule="evenodd" clip-rule="evenodd" d="M116.141 20.1387C115.411 22.9392 113.382 27.7798 107.15 27.7798C102.738 27.7798 100.318 25.5355 100.318 21.1169C100.318 20.3194 100.418 19.5311 100.53 18.7437C101.729 11.4171 104.97 4.47475 112.08 4.40487C113.025 4.39412 114.95 4.29737 116.255 3.99365L115.78 6.92056C114.465 7.25114 112.379 7.42316 111.162 7.43122C109.652 7.44734 108.607 8.00907 107.883 8.69175C107.308 9.23304 106.899 9.89833 106.545 10.5973C107.496 10.3071 108.534 10.1243 109.704 10.1243C115.647 10.1243 117.437 15.1693 116.141 20.1359V20.1387ZM112.691 19.1253C113.339 16.4944 113.361 12.4975 109.704 12.4975C104.498 12.4975 103.831 20.4262 103.831 21.6275C103.831 24.2293 105.422 25.3688 107.216 25.3688C110.763 25.3688 112.088 21.7942 112.688 19.1253H112.691ZM151.945 17.7387L151.944 17.7463L151.943 17.7494L151.943 17.7503L151.942 17.7516L151.942 17.7535C151.238 20.8521 150.784 22.8488 149.984 26.9498L149.75 27.1433L146.389 27.2401L146.225 27.0143L147.58 21.4482L147.975 19.6232C146.53 19.5909 145.086 19.5668 143.643 19.5668C142.514 19.5668 141.656 19.5802 140.778 19.6044C140.282 21.7949 139.871 23.7193 139.235 26.9472L139 27.1406L135.636 27.2374L135.472 27.0117L137.358 19.0212C138.246 15.2019 138.412 14.3634 138.941 10.8371L139.176 10.6113C140.721 10.4178 141.086 10.3506 142.666 10.0281L142.838 10.2539L142.481 11.8584L141.969 14.3553L141.431 16.7204C142.645 16.7501 143.857 16.7689 145.078 16.7689C146.266 16.7689 147.453 16.7401 148.641 16.7178C149.104 14.6482 149.292 13.5194 149.698 10.8371L149.929 10.6113C151.48 10.4178 151.843 10.3506 153.428 10.0281L153.592 10.2539C153.046 12.7463 152.513 15.2435 151.945 17.7387ZM158.919 17.1393L158.914 17.142L160.415 10.2615L160.252 10.0357C158.665 10.3582 158.306 10.4254 156.753 10.6189L156.521 10.8447C155.992 14.371 155.826 15.2096 154.937 19.0287L153.057 27.0193L153.22 27.2451L156.589 27.1483L156.818 26.9548C157.636 22.7915 158.082 20.7865 158.81 17.6042C160.379 20.7182 162.025 23.8118 163.397 27.0193L163.661 27.2128L167.327 27.1133L167.522 26.858L162.404 17.3113L166.7 13.4303C167.788 12.4785 168.916 11.5718 170 10.6162L169.904 10.326H166.106L165.74 10.5168C163.559 12.8025 161.33 15.0904 158.919 17.1393ZM136.052 10.3852L136.052 10.3845L136.052 10.3825V10.3852ZM136.052 10.3845L135.888 10.1245L131.31 10.0949C128.259 10.0949 123.982 10.2858 120.898 13.8282C119.505 15.4462 118.246 18.236 118.246 20.7974C118.246 24.8504 121.001 27.1887 124.38 27.1887C126.173 27.1887 127.828 26.6539 129.223 25.5357L128.992 26.8312L129.154 27.0623L132.27 26.9952L132.507 26.7667C133.166 22.9018 133.403 21.6735 134.561 16.6771L136.052 10.3845ZM129.716 23.0388C129.354 23.3238 128.989 23.6543 128.623 23.8747C127.762 24.3962 126.634 24.6246 125.74 24.6246C122.721 24.6246 121.859 22.1277 121.859 20.5716C121.859 20.413 121.925 16.2255 125.405 13.8953C127.364 12.5972 129.52 12.5327 130.613 12.5327C131.111 12.5327 131.604 12.5622 132.104 12.5622L129.713 23.0388H129.716ZM54.3016 18.1926C53.5357 21.5146 52.3529 24.0948 49.8293 24.0948H49.8266C46.9896 24.0948 47.153 21.2781 47.8671 18.1926C48.6329 14.8679 49.7829 12.4276 52.3802 12.4276C55.4271 12.4276 54.8439 15.8544 54.3016 18.1926ZM41.757 18.4319C39.8793 26.5702 45.0573 27.6882 48.652 27.6882C54.3969 27.6882 58.6865 25.143 60.2726 18.2625L60.2764 18.2451C60.8113 15.7867 62.3092 8.90125 53.4703 8.90125C44.6104 8.90125 42.4574 15.3759 41.757 18.4319ZM69.7117 27.2824C68.0466 27.2824 65.3158 27.2824 64.1685 27.3147L63.9723 27.1131C64.2911 26.0273 65.0706 23.1084 65.8882 19.5472C66.3932 17.3575 66.9349 15.1725 67.3707 12.9678C65.9781 13.0001 63.8333 13.0001 62.7895 13.0349L62.5987 12.7984C62.874 11.9169 63.261 10.3929 63.5035 9.47916L63.8224 9.30446C64.749 9.33672 68.27 9.37165 71.1044 9.37165C74.5327 9.37165 77.8685 9.30446 78.5689 9.26953L78.806 9.44422C78.5514 10.2483 78.1057 11.8965 77.8755 12.7479L77.8712 12.7636L77.5442 12.9678C76.1734 12.9382 75.1324 12.9382 73.1566 12.9382C73.1083 13.1463 73.0311 13.4682 72.9254 13.9095L72.9251 13.9105L72.925 13.911C72.6553 15.0373 72.1995 16.941 71.5594 19.7166C70.8891 22.6381 70.3358 25.3124 70.017 27.0083L69.7145 27.2824H69.7117ZM88.9394 13.3762L88.9367 13.3736C89.975 13.3736 91.2096 13.4085 91.7655 13.4085C91.5285 14.4272 90.9289 17.1739 90.3375 19.7515C89.5527 23.1461 88.8849 25.8929 88.5797 27.0754L88.7323 27.3174C90.1576 27.2851 92.8938 27.2851 94.3791 27.2851L94.6353 27.0781C94.8261 26.0944 95.5646 22.6031 96.3713 19.1091C97.3714 14.7712 98.4126 10.401 98.6578 9.48448L98.4997 9.27484C96.622 9.30978 93.1037 9.41192 89.4708 9.41192C84.8351 9.41192 82.9465 9.34203 81.0769 9.34203L80.7854 9.58124C80.5401 10.6321 79.7852 14.3653 78.9104 18.1577C78.0409 21.9258 77.1335 25.7208 76.7765 27.1157L76.9699 27.3174C78.7114 27.2851 80.8889 27.2851 82.584 27.2851L82.911 27.0781C83.1646 25.8256 83.8159 22.8397 84.5517 19.652C85.1731 16.9402 85.8516 14.1583 86.0233 13.4112C86.5793 13.4112 87.8275 13.3762 88.9394 13.3762Z" fill="#222222"/>
</svg>
