<svg width="144" height="40" viewBox="0 0 144 40" fill="none" xmlns="http://www.w3.org/2000/svg">
<path d="M40 32.44C40 37.3 37.3 40 32.44 40H7.56C2.7 40 0 37.3 0 32.44V7.56C0 2.7 2.7 0 7.56 0H32.45C37.3 0 40 2.7 40 7.56V32.44Z" fill="#FFE600"/>
<path fill-rule="evenodd" clip-rule="evenodd" d="M25.7198 18.0496V14.2297L27.0993 12.8492V16.1592L28.3 17.3589L33.1293 12.5295L34.3197 13.7188C34.3094 12.8194 34.1295 10.2094 31.9194 8.03936C29.5397 5.73982 26.9595 6.77908 26.0796 7.65902L21.2595 12.4791L22.4899 13.7096L20.0002 16.2188L17.5095 13.7291L18.7399 12.4997L13.9198 7.67958C13.0399 6.79964 10.4597 5.75935 8.07998 8.05889C5.86986 10.2289 5.68997 12.8389 5.67969 13.7394L6.87007 12.549L11.6994 17.3794L12.9001 16.1798V12.8697L14.2796 14.2493V18.0692L16.2194 19.9997L6.65933 29.5597L10.4402 33.3292L20.0002 23.7795L29.5592 33.3395L33.34 29.569L23.78 19.9997L25.7198 18.0496ZM46.6706 21.6701H53.8808V23.9399H49.3711V26.2702H50.8709C51.8803 26.2702 53.1807 26.3905 54.1604 27.3506C54.5808 27.77 55.1009 28.54 55.1009 29.7797C55.1009 30.1539 55.0547 30.5126 54.9653 30.8478C54.8152 31.407 54.5428 31.8983 54.1604 32.2797C53.9003 32.5398 53.6053 32.7392 53.2815 32.8903C53.1345 32.9582 52.9813 33.0167 52.822 33.0671C52.7438 33.0918 52.6647 33.1144 52.5835 33.135C51.9955 33.284 51.3396 33.3303 50.6406 33.3303H46.6706V21.6701ZM50.4309 31.1603C50.801 31.1603 51.4609 31.1304 51.8803 30.7902C51.9616 30.7203 52.1003 30.5825 52.2021 30.3636C52.2761 30.2063 52.3306 30.0069 52.3306 29.7602C52.3306 29.6718 52.3234 29.5885 52.3111 29.5104C52.2977 29.4271 52.2771 29.35 52.2525 29.2781C52.2134 29.165 52.162 29.0663 52.1044 28.981C52.05 28.9008 51.9893 28.8329 51.9287 28.7764C51.9019 28.7517 51.8752 28.7291 51.8485 28.7086L51.8104 28.6798C51.391 28.3796 50.7105 28.3704 50.4309 28.3704H49.3608V31.1705H50.4309V31.1603ZM64.8799 25.5301H62.3604V26.41C61.8742 25.7491 61.2276 25.4612 60.656 25.3441C60.3816 25.2875 60.1246 25.27 59.9097 25.27C58.8304 25.27 57.8805 25.6596 57.2 26.3401C56.4805 27.0597 55.9901 28.1802 55.9901 29.4898C55.9901 30.5198 56.3098 31.5396 57.1301 32.4103C57.9905 33.32 58.9301 33.5996 60.0506 33.5996C60.3805 33.5996 60.7969 33.5585 61.2153 33.3796C61.6192 33.2069 62.0263 32.9057 62.3604 32.3897V33.3303H64.8799V25.5301ZM58.5806 29.4199C58.5806 29.0344 58.6772 28.7219 58.8078 28.4752C58.9147 28.2748 59.0432 28.1175 59.1604 28.0003C59.4903 27.6703 59.9899 27.4401 60.5306 27.4503C60.9901 27.4503 61.5504 27.62 61.9297 27.99C61.9996 28.0558 62.0643 28.1278 62.1229 28.2049C62.1898 28.2943 62.2484 28.3909 62.2987 28.4927C62.4365 28.7692 62.5105 29.0879 62.5105 29.4199C62.5105 30.0901 62.2298 30.5805 61.8999 30.8899C61.7354 31.0544 61.536 31.189 61.3139 31.2826C61.0909 31.3772 60.8452 31.4296 60.5903 31.4296C59.9899 31.4296 59.4502 31.1901 59.0997 30.82C58.8797 30.5702 58.5806 30.12 58.5806 29.4199ZM66.4003 25.5301H68.9198V28.2398H71.7405V25.5301H74.2601V33.3303H71.7405V30.27H68.9198V33.3303H66.4003V25.5301ZM78.2897 25.5301H75.7701V33.3303H78.2897V29.8702L80.95 33.3303H84.2004L80.6303 29.1506L83.9702 25.5301H80.84L78.2897 28.6304V25.5301ZM50.7794 6.67012C51.7899 6.67012 52.9104 6.80992 53.8396 7.63023C54.8398 8.49989 54.9796 9.66046 54.9796 10.4602C54.9796 11.9302 54.4194 12.7505 53.9794 13.21C53.0502 14.1506 51.83 14.24 51.0097 14.24H49.3701V18.3303H46.6799V6.67012H50.7794ZM49.3598 12.0402H50.3199C50.4628 12.0402 50.6447 12.0371 50.84 12.0093C51.1536 11.9651 51.5 11.8582 51.7704 11.6002C52.0099 11.3597 52.2103 10.9505 52.2103 10.4499C52.2103 10.2258 52.1743 10.0192 52.1096 9.83829C52.0335 9.62448 51.9163 9.44458 51.7704 9.30992C51.3694 8.9306 50.7897 8.86995 50.2695 8.86995H49.3598V12.0402ZM64.0699 10.5301H61.5504V11.41C61.205 10.9403 60.7784 10.6586 60.3559 10.4931C59.8974 10.3132 59.443 10.27 59.0997 10.27C58.0204 10.27 57.0705 10.6596 56.39 11.3401C55.6704 12.0597 55.1801 13.1802 55.1801 14.4898C55.1801 15.1559 55.3137 15.8179 55.6303 16.4378C55.803 16.777 56.0302 17.1029 56.3201 17.4103C57.1805 18.32 58.1201 18.5996 59.2405 18.5996C59.5695 18.5996 59.9827 18.5595 60.3991 18.3827C60.8051 18.21 61.2142 17.9088 61.5504 17.3897V18.3303H64.0699V10.5301ZM57.7706 14.4199C57.7706 13.7199 58.0903 13.2604 58.3503 13.0003C58.6803 12.6703 59.1902 12.4401 59.7206 12.4503C59.8563 12.4503 60.0002 12.4658 60.1462 12.4956C60.2315 12.513 60.3168 12.5357 60.4021 12.5644C60.6643 12.6528 60.9171 12.7927 61.1197 12.99C61.3129 13.173 61.463 13.4022 61.5617 13.6603C61.6038 13.7702 61.6367 13.8854 61.6604 14.0036C61.6706 14.055 61.6789 14.1074 61.685 14.1609C61.6902 14.203 61.6933 14.2462 61.6953 14.2894C61.6984 14.3325 61.7004 14.3757 61.7004 14.4199C61.7004 15.0901 61.4198 15.5805 61.0898 15.8899C60.9171 16.0626 60.7064 16.2024 60.471 16.297C60.3795 16.334 60.2839 16.3638 60.1852 16.3854L60.0763 16.407L59.9745 16.4193C59.9108 16.4265 59.846 16.4296 59.7802 16.4296C59.5181 16.4296 59.2673 16.3833 59.038 16.3011C58.744 16.1952 58.487 16.0287 58.2897 15.82C58.0697 15.5702 57.7706 15.12 57.7706 14.4199ZM68.1098 10.5301V14.9904L71.4301 10.5301H73.7708V18.3303H71.2502V13.8001L67.9299 18.3303H65.5903V10.5301H68.1098ZM72.8507 7.38044C72.64 8.00955 72.2206 8.55026 71.7303 8.86995C71.0703 9.30992 70.2603 9.36029 69.6805 9.36029C69.1007 9.36029 68.3 9.30992 67.6308 8.86995C67.5732 8.83295 67.5166 8.79389 67.4611 8.75071C67.3984 8.7024 67.3368 8.64997 67.2771 8.59343C67.2134 8.53278 67.1517 8.46905 67.0921 8.4012C66.8423 8.11338 66.6377 7.76181 66.5103 7.38044L68.2599 6.69993C68.3298 7.04944 68.5004 7.33007 68.7101 7.49968C68.9404 7.68986 69.2303 7.81013 69.6702 7.81013C69.7782 7.81013 69.8768 7.80293 69.9683 7.78957L70.0208 7.78134L70.0722 7.77107L70.141 7.75359L70.2099 7.73303C70.3744 7.67855 70.5101 7.59837 70.6303 7.49968C70.84 7.33007 71.0107 7.04944 71.0806 6.69993L72.8507 7.38044ZM79.3402 18.4505V22.2201H81.8803V18.4505H81.98C83.7502 18.4505 84.7298 17.7197 85.1801 17.2797C85.4114 17.0525 85.6416 16.7626 85.8328 16.4018C85.8657 16.3401 85.8976 16.2764 85.9274 16.2106L85.9809 16.0893C86.0477 15.9279 86.1063 15.7552 86.1546 15.5692C86.2142 15.342 86.2574 15.0963 86.281 14.8301C86.2872 14.755 86.2923 14.679 86.2954 14.6008C86.2985 14.5309 86.2995 14.461 86.2995 14.3901C86.2995 13.8843 86.2235 13.4392 86.0991 13.0507C85.9891 12.7053 85.84 12.4051 85.6704 12.1471C85.6303 12.0854 85.5882 12.0258 85.545 11.9682L85.508 11.9199L85.4443 11.8408C85.2849 11.6465 85.1164 11.483 84.9498 11.3504C84.1799 10.7398 83.0203 10.4098 81.9903 10.4098H81.8701V6.67012H79.3505V10.4098H79.2303C78.19 10.4098 77.0397 10.7398 76.2697 11.3504C75.6201 11.8706 74.92 12.8502 74.92 14.3901C74.92 15.8097 75.4803 16.74 76.0405 17.2797C76.4897 17.7197 77.4704 18.4505 79.2395 18.4505H79.3402ZM78.8294 12.4935C79.0349 12.4483 79.2498 12.4298 79.4605 12.4401V16.4203C78.8201 16.4399 78.2198 16.2003 77.8898 15.8303C77.5896 15.5198 77.3799 15.01 77.3799 14.4004C77.3799 13.7805 77.5896 13.2799 77.8898 12.9797C78.1211 12.7423 78.4603 12.5747 78.8294 12.4935ZM83.3102 15.8406C82.9803 16.2003 82.3902 16.4501 81.7405 16.4306V12.4503C82.1456 12.4226 82.5609 12.513 82.9011 12.6929C83.0553 12.7752 83.1951 12.8749 83.3102 12.99C83.447 13.1267 83.5652 13.3066 83.6536 13.5194C83.7584 13.7754 83.8201 14.0776 83.8201 14.4096C83.8201 15.0202 83.6104 15.5301 83.3102 15.8406ZM91.4609 22.2201V18.4505H91.3602C90.7907 18.4505 90.3034 18.3745 89.8882 18.2573C89.661 18.1936 89.4564 18.1165 89.2724 18.0332C88.7461 17.7947 88.3863 17.5007 88.1612 17.2797C88.0841 17.2057 88.007 17.1245 87.9319 17.035C87.8661 16.9579 87.8014 16.8747 87.7397 16.7863C87.5948 16.5786 87.4601 16.3391 87.3491 16.0657C87.2247 15.7604 87.1301 15.4129 87.0798 15.0202C87.0643 14.902 87.053 14.7787 87.0469 14.6522C87.0428 14.5669 87.0407 14.4795 87.0407 14.3901C87.0407 12.8502 87.7407 11.8706 88.3904 11.3504C89.1604 10.7398 90.3106 10.4098 91.3509 10.4098H91.4712V6.67012H93.9907V10.4098H94.111C94.4307 10.4098 94.7627 10.4417 95.0917 10.5034C95.2582 10.5342 95.4237 10.5733 95.5872 10.6206C95.7311 10.6617 95.8719 10.709 96.0097 10.7614C96.4023 10.9125 96.7662 11.1099 97.0705 11.3504C97.7212 11.8706 98.4202 12.8502 98.4202 14.3901C98.4202 14.9555 98.3318 15.4407 98.19 15.856C98.0625 16.2281 97.8919 16.5437 97.7037 16.8079C97.5742 16.9888 97.4375 17.145 97.3008 17.2797C97.0129 17.5614 96.5072 17.9623 95.7157 18.2141C95.5049 18.2809 95.2736 18.3375 95.0218 18.3786C94.7422 18.4248 94.4359 18.4505 94.1007 18.4505H94.001V22.2201H91.4609ZM91.5812 12.4401C90.9911 12.4103 90.3703 12.6097 90.0105 12.9797C89.7103 13.2799 89.5006 13.7805 89.5006 14.4004C89.5006 15.01 89.7103 15.5198 90.0105 15.8303C90.3405 16.2003 90.9408 16.4399 91.5812 16.4203V12.4401ZM93.8602 16.4306C94.5109 16.4501 95.1009 16.2003 95.4309 15.8406C95.5902 15.6761 95.7239 15.4551 95.8143 15.1929C95.8945 14.9606 95.9408 14.6964 95.9408 14.4096C95.9408 13.8001 95.7311 13.2902 95.4309 12.99C95.0609 12.62 94.4502 12.4103 93.8602 12.4503V16.4306ZM108.04 10.5301H105.52V11.41C104.8 10.4304 103.73 10.27 103.07 10.27C101.99 10.27 101.04 10.6596 100.36 11.3401C99.6404 12.0597 99.1501 13.1802 99.1501 14.4898C99.1501 15.1457 99.2796 15.7974 99.5849 16.409C99.7597 16.7585 99.992 17.0936 100.29 17.4103C101.15 18.32 102.09 18.5996 103.211 18.5996C103.86 18.5996 104.84 18.4403 105.52 17.3897V18.3303H108.04V10.5301ZM101.741 14.4199C101.741 14.0951 101.809 13.8227 101.909 13.5975C102.024 13.3364 102.181 13.1401 102.32 13.0003C102.65 12.6703 103.16 12.4401 103.691 12.4503C104.15 12.4503 104.71 12.62 105.09 12.99C105.46 13.3395 105.67 13.8597 105.67 14.4199C105.67 15.0901 105.39 15.5805 105.06 15.8899C104.73 16.2199 104.26 16.4296 103.75 16.4296C103.15 16.4296 102.61 16.1901 102.26 15.82C102.154 15.6997 102.029 15.5322 101.929 15.3132C101.821 15.0778 101.741 14.7818 101.741 14.4199ZM112.08 10.5301V14.9904L115.4 10.5301H117.741V18.3303H115.22V13.8001L111.9 18.3303H109.56V10.5301H112.08ZM116.821 7.38044C116.723 7.67238 116.58 7.94479 116.406 8.18533C116.285 8.35392 116.148 8.50606 116 8.63866C115.905 8.72501 115.804 8.80211 115.7 8.86995C115.533 8.98097 115.356 9.06732 115.175 9.13517C114.967 9.21227 114.756 9.26366 114.548 9.29759C114.225 9.35001 113.914 9.36029 113.65 9.36029C113.071 9.36029 112.27 9.30992 111.601 8.86995C111.11 8.55951 110.69 8.00955 110.48 7.38044L112.23 6.69993C112.3 7.04944 112.47 7.33007 112.68 7.49968C112.795 7.59426 112.925 7.67135 113.081 7.72481C113.237 7.77929 113.42 7.81013 113.64 7.81013C114.08 7.81013 114.37 7.68986 114.6 7.49968C114.707 7.41333 114.804 7.2982 114.883 7.15943C114.958 7.02579 115.017 6.8716 115.051 6.69993L116.821 7.38044ZM120.3 10.5496C119.88 10.71 119.34 10.9896 119.01 11.2003L119.99 12.8903C120.241 12.6796 120.501 12.5202 120.831 12.3804C121.161 12.2396 121.46 12.1697 121.861 12.1697C122.28 12.1697 122.53 12.2602 122.65 12.3105C122.831 12.3917 122.931 12.5038 122.982 12.6107C123.018 12.6878 123.031 12.7618 123.031 12.8204C123.031 12.9705 122.961 13.1997 122.661 13.3395C122.579 13.3776 122.471 13.4053 122.355 13.4259C122.129 13.467 121.872 13.4804 121.72 13.4804H121V15.1899H121.94C122.221 15.1899 122.64 15.2402 122.851 15.3297C122.949 15.3728 123.032 15.4273 123.093 15.4962C123.175 15.5866 123.221 15.7018 123.221 15.8498C123.221 15.9639 123.198 16.113 123.094 16.2497C123.042 16.3175 122.97 16.3833 122.87 16.4399C122.62 16.5797 122.24 16.63 121.961 16.63C121.695 16.63 121.405 16.5879 121.144 16.5211C121.001 16.4841 120.868 16.4399 120.751 16.3905C120.44 16.2497 120.07 15.9999 119.79 15.7604L118.72 17.4205C118.819 17.4997 118.981 17.6272 119.197 17.767C119.298 17.8317 119.409 17.8996 119.53 17.9664C119.707 18.063 119.906 18.1576 120.12 18.2398C120.821 18.4999 121.55 18.5903 122.25 18.5903C123.551 18.5903 124.461 18.4002 125.12 17.7505C125.38 17.4904 125.551 17.2129 125.657 16.9322C125.759 16.6609 125.8 16.3854 125.8 16.1202C125.8 16.0513 125.798 15.9834 125.792 15.9177C125.788 15.8755 125.784 15.8334 125.777 15.7922L125.763 15.7059C125.699 15.3811 125.55 15.0932 125.281 14.8301C125.171 14.7201 124.81 14.4096 124.23 14.2698C124.29 14.2482 124.348 14.2215 124.406 14.1917C124.454 14.167 124.501 14.1393 124.547 14.1095L124.606 14.0694C124.648 14.0406 124.688 14.0098 124.727 13.9779C124.784 13.9316 124.839 13.8813 124.89 13.8299C125.271 13.43 125.36 12.99 125.36 12.4997C125.36 12.3506 125.349 12.2036 125.322 12.0607C125.308 11.9826 125.288 11.9055 125.263 11.8295C125.177 11.5591 125.025 11.3042 124.78 11.0698C123.991 10.2998 122.561 10.27 122.14 10.27C121.54 10.27 120.89 10.3399 120.3 10.5496ZM134.92 14.8702H129.1C129.1 15.0151 129.119 15.1775 129.157 15.342C129.229 15.6524 129.368 15.9711 129.571 16.1993C129.67 16.3103 129.781 16.3977 129.897 16.4645C129.979 16.5118 130.063 16.5498 130.147 16.5797C130.397 16.6691 130.651 16.6897 130.86 16.6897C130.999 16.6897 131.14 16.6794 131.276 16.6588C131.499 16.6239 131.708 16.5591 131.87 16.4594C131.9 16.4399 132.2 16.2497 132.41 15.8097L134.79 16.0503C134.44 17.1502 133.74 17.7299 133.29 18.0096C132.54 18.4598 131.7 18.5893 130.821 18.5893C129.65 18.5893 128.62 18.3796 127.71 17.4699C127.03 16.7894 126.54 15.7593 126.54 14.46C126.54 13.3395 126.94 12.1903 127.73 11.3802C128.198 10.9115 128.727 10.6319 129.246 10.4695C129.769 10.305 130.283 10.2598 130.72 10.2598C131.59 10.2598 132.85 10.4201 133.82 11.4296C134.75 12.4103 134.92 13.6294 134.92 14.5998V14.8702ZM132.6 13.3693C132.58 13.2994 132.46 12.8101 132.09 12.4596C131.987 12.364 131.868 12.2797 131.733 12.2108C131.646 12.1656 131.552 12.1276 131.452 12.0978C131.285 12.0474 131.101 12.0196 130.9 12.0196C130.683 12.0196 130.497 12.0484 130.335 12.0957C130.012 12.1913 129.786 12.363 129.62 12.5295C129.43 12.7402 129.25 13.0198 129.18 13.3693H132.6ZM138.58 10.5301H136.06V18.3303H138.58V15.27H141.4V18.3303H143.92V10.5301H141.4V13.2398H138.58V10.5301Z" fill="#2B2D34"/>
</svg>
