<svg width="200" height="50" viewBox="0 0 200 50" fill="none" xmlns="http://www.w3.org/2000/svg">
<path d="M90.5 19.5004L94.3 16.7004H81.7V33.3004H94.3V30.5004H85.3V26.3004H92.9V23.5004H85.3V19.5004H90.5ZM74.8 19.5004L78.6 16.7004H64.2V33.3004H71.7C75.9 33.3004 78.3 31.4004 78.3 28.1004C78.3 24.9004 76.1 23.2004 72.1 23.2004H67.7V19.5004H74.8ZM71.6 25.9004C73.9 25.9004 74.9 26.7004 74.9 28.2004C74.9 29.7004 73.8 30.5004 71.6 30.5004H67.8V25.9004H71.6ZM104.4 16.7004H97.6V33.3004H101.2V28.6004H104.5C108.9 28.6004 111.6 26.3004 111.6 22.6004C111.6 18.9004 108.8 16.7004 104.4 16.7004ZM104.4 25.8004H101.2V19.4004H104.4C106.7 19.4004 108 20.5004 108 22.6004C107.9 24.7004 106.7 25.8004 104.4 25.8004ZM58.1 29.7004C57.1 30.2004 56.1 30.5004 55 30.5004C51.8 30.5004 49.4 28.2004 49.4 25.0004C49.4 21.8004 51.7 19.5004 55 19.5004C56.2 19.5004 57.3 19.9004 58.3 20.5004L60.9 18.6004L60.7 18.4004C59.2 17.1004 57.2 16.4004 54.9 16.4004C52.4 16.4004 50.2 17.2004 48.5 18.8004C46.9 20.4004 45.9 22.6004 46 24.9004C46 27.2004 46.9 29.4004 48.5 31.1004C50.2 32.7004 52.5 33.6004 54.8 33.5004C57.4 33.5004 59.6 32.6004 61.2 31.0004L58.9 29.3004L58.1 29.7004ZM166 23.5004H158.3V16.7004H154.7V33.3004H158.3V26.5004H166V33.3004H169.6V16.7004H166V23.5004ZM141.7 16.7004L134.5 33.3004H138.1L139.5 30.0004H147.1L148.5 33.3004H152.3L145.3 16.7004H141.7ZM140.7 27.2004L143.5 20.5004L146.1 27.2004H140.7ZM182.6 24.7004L189.1 16.7004H185L179.6 23.8004H177.6V16.7004H174V33.3004H177.6V26.6004H179.9L185.4 33.3004H190L182.6 24.7004ZM127 23.2004H122.6V19.5004H132V16.7004H119V33.3004H126.5C130.7 33.3004 133.1 31.4004 133.1 28.1004C133.2 24.9004 131 23.2004 127 23.2004ZM126.4 30.6004H122.6V26.0004H126.4C128.7 26.0004 129.7 26.8004 129.7 28.3004C129.8 29.8004 128.6 30.6004 126.4 30.6004Z" fill="#21A038"/>
<path d="M34.481 16.3813C35.1302 17.232 35.6798 18.1561 36.1187 19.1352L23.6698 28.4355L18.467 25.1302V21.1538L23.6698 24.4591L34.481 16.3813Z" fill="#21A038"/>
<path d="M13.1573 24.8496C13.1573 24.6712 13.1616 24.4939 13.1702 24.3177L10.0172 24.1611C10.0064 24.3895 10 24.6201 10 24.8528C9.99866 26.6712 10.3516 28.4719 11.0385 30.1516C11.7254 31.8314 12.7328 33.3572 14.003 34.6414L16.2395 32.3759C15.2618 31.3891 14.4862 30.2161 13.9572 28.9245C13.4283 27.6329 13.1564 26.248 13.1573 24.8496Z" fill="url(#paint0_linear_303_1192)"/>
<path d="M23.6669 14.1991C23.8429 14.1991 24.0178 14.2056 24.1917 14.2143L24.3494 11.0178C24.1234 11.0069 23.8958 11.0015 23.6669 11.0015C21.8719 10.9993 20.0942 11.3564 18.4357 12.0524C16.7773 12.7484 15.2709 13.7696 14.0029 15.0572L16.2394 17.3238C17.2132 16.3326 18.3707 15.5463 19.6454 15.0101C20.9201 14.4738 22.2867 14.1982 23.6669 14.1991Z" fill="url(#paint1_linear_303_1192)"/>
<path d="M23.667 35.5011C23.491 35.5011 23.316 35.5011 23.1412 35.4869L22.9834 38.6823C23.2102 38.6939 23.4381 38.6998 23.667 38.6998C25.4613 38.7016 27.2382 38.3443 28.8957 37.6481C30.5532 36.9519 32.0587 35.9306 33.3257 34.6429L31.0934 32.3774C30.1195 33.3681 28.9621 34.154 27.6877 34.69C26.4132 35.2261 25.0468 35.5017 23.667 35.5011Z" fill="url(#paint2_linear_303_1192)"/>
<path d="M29.591 16.0575L32.2482 14.0725C29.8195 12.0794 26.7879 10.9945 23.6627 11V14.1987C25.7789 14.1961 27.846 14.8442 29.591 16.0575Z" fill="url(#paint3_linear_303_1192)"/>
<path d="M37.3329 24.8501C37.3346 24.018 37.2628 23.1873 37.1182 22.3682L34.1767 24.5652C34.1767 24.6598 34.1767 24.7544 34.1767 24.8501C34.1775 26.3383 33.8696 27.81 33.2733 29.1699C32.6768 30.5298 31.8051 31.7475 30.7146 32.7441L32.8363 35.1206C34.254 33.8234 35.3869 32.2389 36.1616 30.4697C36.9363 28.7003 37.3353 26.7858 37.3329 24.8501Z" fill="#21A038"/>
<path d="M23.667 35.5014C22.1985 35.5019 20.7462 35.1898 19.4042 34.5854C18.0623 33.981 16.8605 33.0976 15.8768 31.9927L13.533 34.1418C14.8127 35.5788 16.3761 36.7272 18.122 37.5125C19.8678 38.2977 21.7569 38.7023 23.667 38.7V35.5014Z" fill="url(#paint4_linear_303_1192)"/>
<path d="M16.6194 16.9556L14.4988 14.5791C13.0806 15.876 11.9473 17.4604 11.1723 19.2297C10.3973 20.999 9.99789 22.9137 10 24.8495H13.1573C13.1566 23.3614 13.4645 21.8897 14.0609 20.5298C14.6573 19.1699 15.529 17.9522 16.6194 16.9556Z" fill="url(#paint5_linear_303_1192)"/>
<defs>
<linearGradient id="paint0_linear_303_1192" x1="14.6415" y1="34.2423" x2="11.1091" y2="24.1664" gradientUnits="userSpaceOnUse">
<stop offset="0.14" stop-color="#F1E813"/>
<stop offset="0.3" stop-color="#E6E418"/>
<stop offset="0.58" stop-color="#C9DA26"/>
<stop offset="0.89" stop-color="#A2CC39"/>
</linearGradient>
<linearGradient id="paint1_linear_303_1192" x1="14.9044" y1="15.6228" x2="23.819" y2="12.2706" gradientUnits="userSpaceOnUse">
<stop offset="0.06" stop-color="#0FA7DF"/>
<stop offset="0.54" stop-color="#0098F8"/>
<stop offset="0.92" stop-color="#0290EA"/>
</linearGradient>
<linearGradient id="paint2_linear_303_1192" x1="22.7752" y1="36.7692" x2="32.8352" y2="34.5268" gradientUnits="userSpaceOnUse">
<stop offset="0.12" stop-color="#A2CC39"/>
<stop offset="0.28" stop-color="#86C239"/>
<stop offset="0.87" stop-color="#219F38"/>
</linearGradient>
<linearGradient id="paint3_linear_303_1192" x1="23.006" y1="12.0713" x2="31.6154" y2="14.6929" gradientUnits="userSpaceOnUse">
<stop offset="0.06" stop-color="#0290EA"/>
<stop offset="0.79" stop-color="#0C89CA"/>
</linearGradient>
<linearGradient id="paint4_linear_303_1192" x1="14.325" y1="33.7524" x2="23.7049" y2="37.2115" gradientUnits="userSpaceOnUse">
<stop offset="0.13" stop-color="#F1E813"/>
<stop offset="0.3" stop-color="#EAE616"/>
<stop offset="0.53" stop-color="#D8DF1F"/>
<stop offset="0.8" stop-color="#BAD52D"/>
<stop offset="0.98" stop-color="#A2CC39"/>
</linearGradient>
<linearGradient id="paint5_linear_303_1192" x1="11.1762" y1="25.2367" x2="15.0174" y2="15.377" gradientUnits="userSpaceOnUse">
<stop offset="0.07" stop-color="#A2CC39"/>
<stop offset="0.26" stop-color="#81C45E"/>
<stop offset="0.92" stop-color="#0FA7DF"/>
</linearGradient>
</defs>
</svg>
