<svg width="118" height="36" viewBox="0 0 118 36" fill="none" xmlns="http://www.w3.org/2000/svg">
<path fill-rule="evenodd" clip-rule="evenodd" d="M55.4018 14.9485C56.554 14.9485 57.6128 15.0417 58.4225 15.3532C60.1353 16.0075 61.2253 17.471 61.2253 19.5884C61.2253 21.6754 60.0732 23.2635 58.3603 23.9173C57.5504 24.2288 56.4607 24.3533 54.9969 24.3533H44.4707V9.52979H60.0107V12.9552H48.9862V14.9485H55.4018ZM55.1525 20.6164C55.5885 20.6164 55.9311 20.585 56.1803 20.4919C56.7097 20.305 56.9276 19.8375 56.9276 19.4015C56.9276 19.237 56.901 19.0853 56.8476 18.9506C56.8157 18.8702 56.7742 18.7956 56.7232 18.7275C56.6337 18.6088 56.515 18.5103 56.3671 18.4363C56.3219 18.4139 56.2746 18.3937 56.2255 18.3761C56.1466 18.3479 56.0626 18.3261 55.9737 18.3085C55.7361 18.2616 55.4625 18.2494 55.1525 18.2494H48.9862V20.6164H55.1525ZM67.2845 9.52979H73.8865L79.9594 24.3533H74.8831L74.0111 22.2046H67.1599L66.3191 24.3533H61.2117L67.2845 9.52979ZM70.4299 12.9552L68.2809 18.9346H72.9213L70.7724 12.9552H70.4299ZM85.7717 18.8414V24.3533H81.2563V9.52979H85.7717V14.9485H93.0279V9.52979H97.5437V24.3533H93.0279V18.8414H85.7717ZM104.691 24.3533V18.7477H105.937L111.324 24.3533H117.335L109.83 16.6304L117.055 9.52979H111.387L105.937 15.1045H104.691V9.52979H100.175V24.3533H104.691Z" fill="#333333"/>
<path d="M0 0H36V18.1054C36 22.7468 33.524 27.0358 29.5046 29.3568L18 36L6.49547 29.3568C2.47602 27.0358 0 22.7468 0 18.1054V0Z" fill="#FFDD2D"/>
<path fill-rule="evenodd" clip-rule="evenodd" d="M9.88037 9.52979V15.1609C10.6504 14.2914 12.0505 13.7029 13.6513 13.7029H15.3909V20.249C15.3909 21.9906 14.9177 23.515 14.2156 24.3535H21.7825C21.0819 23.5142 20.6098 21.9917 20.6098 20.2524V13.7029H22.3495C23.9503 13.7029 25.3503 14.2914 26.1204 15.1609V9.52979H9.88037Z" fill="#333333"/>
</svg>
