<svg width="138" height="26" viewBox="0 0 138 26" fill="none" xmlns="http://www.w3.org/2000/svg">
<path fill-rule="evenodd" clip-rule="evenodd" d="M128.454 8.4956C128.261 7.27479 127.374 6.58934 126.24 6.18516C124.294 5.49025 122.28 5.45244 120.244 5.61671C118.364 5.76798 116.545 6.13907 114.791 7.03725C114.466 5.2858 114.154 3.60644 113.837 1.90818C115.38 1.16128 116.929 0.74528 118.521 0.46519C121.925 -0.131625 125.337 -0.224988 128.711 0.605826C132.269 1.48273 134.768 3.48472 135.458 7.16725C135.628 8.07724 135.621 9.45405 135.621 9.45405V17.7267C135.621 18.086 135.666 18.8542 135.689 19.2123C135.815 21.1244 135.991 21.3112 138 21.6007V25.5373C136.017 26.0242 133.98 26.2807 131.964 25.3565C130.83 24.8377 130.308 23.8769 130.059 22.7423C130.027 22.5935 130.011 22.4411 129.992 22.258V22.2577V22.2542C129.983 22.1593 129.972 22.0562 129.958 21.9411C127.524 25.3435 124.041 26.179 120.212 25.9699C115.923 25.7359 112.63 22.935 112.023 19.6306C111.037 14.2534 113.826 10.2364 119.394 9.42569C122.914 8.91278 123.923 9.13024 128.473 10.6359C128.473 10.4082 128.483 10.1812 128.491 9.95534C128.51 9.46023 128.529 8.97124 128.454 8.4956ZM128.334 15.3335C127.166 14.5524 125.838 14.1423 124.45 13.9709C123.007 13.7925 121.583 13.8858 120.359 14.8053C119.236 15.6491 118.811 16.9893 119.222 18.3708C119.538 19.4333 120.651 20.2653 121.963 20.3858C123.228 20.504 124.455 20.3173 125.623 19.8339C127.719 18.9653 128.54 17.5944 128.334 15.3335ZM39.9737 25.9994C36.3334 26.0207 33.0606 24.9913 30.3447 22.6596C27.3324 20.0738 26.1428 16.708 26.1725 12.8931C26.1987 9.72825 27.0743 6.84935 29.2692 4.41718C31.2381 2.23673 33.7435 0.939102 36.6677 0.349377C40.3401 -0.391619 43.8746 0.0243793 47.1271 1.80656C51.2291 4.05554 53.255 7.57853 53.5049 12.0635C53.7249 16.0084 52.7423 19.5621 49.698 22.3972C46.9963 24.9133 43.6831 25.9616 39.9737 25.9994ZM40.0618 6.37781C36.9782 6.45108 34.8142 8.04298 33.9874 10.6642C33.4794 12.2797 33.5115 13.8823 34.0183 15.4978C34.7547 17.8437 36.3857 19.2843 38.8697 19.6602C41.3858 20.0395 43.5474 19.2371 44.9227 17.1169C46.4871 14.7025 46.5168 12.1237 45.2689 9.56988C44.2006 7.38235 42.2971 6.40381 40.0618 6.37781ZM91.6034 15.3637H95.1724L95.7553 15.4937L96.5775 16.9448L96.5904 16.9676C98.3063 19.9966 100.021 23.0237 101.707 26H109.448C109.367 25.8028 109.298 25.6166 109.232 25.4404C109.101 25.0898 108.985 24.7784 108.82 24.4967C107.496 22.2329 106.162 19.9754 104.829 17.718L104.82 17.7027L104.814 17.6923C104.085 16.4583 103.357 15.2243 102.629 13.9892C102.503 13.777 102.389 13.5563 102.267 13.3182L102.266 13.3176C102.21 13.2086 102.152 13.096 102.09 12.9788C107.117 10.0467 108.161 5.34194 108.016 0.000144705H101.121C101.121 2.09586 100.773 3.32846 100.364 4.77709V4.7772L100.364 4.77816C100.311 4.96301 100.258 5.15137 100.205 5.34548C99.6657 7.30375 98.3262 8.61201 96.412 9.27501C95.3518 9.64197 94.2184 9.57615 93.0567 9.50869C92.5761 9.48076 92.0906 9.45258 91.6034 9.45465V0.000144705H84.4655V25.9775L91.6034 26V15.3637ZM72.6457 0.000144705H79.7075V26H72.5767V17.6623C72.1558 17.759 71.7462 17.8633 71.3435 17.9659C70.4909 18.1831 69.6687 18.3926 68.834 18.5049C65.597 18.9399 62.5146 18.5439 59.8747 16.3257C57.8333 14.6097 56.6377 12.3087 56.276 9.6981C56.0304 7.92767 56.0098 5.60298 55.989 3.26769V3.26765C55.9792 2.16409 55.9694 1.05816 55.9358 0.00723558L63.0523 0.000144705V1.18196V7.09102C63.0523 9.87419 65.5209 12.07 68.2083 12.109C69.8679 12.1326 70.8362 11.7308 72.5612 10.6435L72.6457 0.000144705ZM8.32759 26H15.4655V7.09102H23.7931V0.000144705H0V7.09102H8.32759V26Z" fill="#231F20"/>
</svg>
