<svg width="44" height="28" viewBox="0 0 44 28" fill="none" xmlns="http://www.w3.org/2000/svg">
<path d="M40.2842 0.0975342C40.2842 0.0975342 40.8981 -0.0264025 39.9736 1.61804C40.0005 1.67196 42.7472 7.18196 43.1729 7.67078C43.3328 8.01619 43.3786 8.40439 43.3018 8.77722C43.2249 9.15 43.0295 9.48805 42.7461 9.74207C42.3269 10.0442 41.8121 10.1838 41.2979 10.1337C40.649 10.1337 40.4618 9.89291 40.6484 9.24402L38.1865 7.66199C37.6229 7.50571 37.1126 7.19854 36.7109 6.77332C36.2771 6.67221 35.8227 6.70287 35.4062 6.86121C34.99 7.01955 34.6301 7.29824 34.373 7.66199L30.8887 10.5331C30.8887 10.5331 29.6002 14.3187 28.8535 14.4442C28.5432 14.7956 28.1388 15.052 27.6885 15.1825C27.6847 15.2241 27.316 19.2801 27.3779 21.0399C27.2884 22.7684 27.6951 24.4866 28.5508 25.9911C28.5508 25.9911 30.275 27.2087 29.4395 27.3954C28.7743 27.5602 28.0846 27.603 27.4043 27.5204C27.4043 27.5204 27.0399 26.9063 27.4043 26.6307C27.2373 26.2265 26.9894 25.8605 26.6758 25.5555C26.6758 25.5555 26.1244 25.2445 26.373 24.2137C26.0982 23.2832 25.9934 22.3105 26.0625 21.3427C25.9122 20.6572 25.8078 19.962 25.751 19.2626C24.9524 20.9071 24.3724 22.6491 24.0264 24.4442C24.1063 25.2072 24.4569 25.9165 25.0137 26.4442C25.0353 26.4573 26.4854 27.3362 26.0625 27.7245C26.0624 27.7293 26.0451 28.0344 23.9023 27.911C23.9023 27.911 23.4758 27.9112 23.7246 27.0223C23.7246 27.0223 23.4753 26.4086 22.9775 24.8885C22.9625 24.8745 22.1846 24.136 22.8623 22.5692C23.2986 21.3802 23.6285 20.1544 23.8486 18.9071C23.8486 18.9071 24.0884 16.1604 24.2129 15.5468C24.166 15.5518 19.1482 16.0917 15.7773 14.7557C14.6189 14.282 13.5234 13.6669 12.5156 12.9247C12.5156 12.9247 11.6264 12.2489 10.9775 13.8134C10.9748 13.8318 10.3551 18.0289 10.1777 18.8182C10.1688 18.8587 9.56131 21.639 10.3555 23.2626C10.6264 24.4172 11.247 25.4603 12.1328 26.2489C12.1328 26.2489 13.9106 27.4307 12.9424 27.5731C12.9424 27.5731 11.2706 27.9021 10.6572 27.4755C10.6388 27.4684 9.98653 27.2112 10.2842 26.1249C10.2738 26.1233 9.1197 25.9427 9.18164 25.1464C9.04356 23.426 8.71292 21.7265 8.19531 20.08C7.96808 19.6585 7.8259 19.196 7.77734 18.7196C7.16792 19.6116 6.78987 20.6414 6.67578 21.7157C6.68407 22.4755 6.60037 23.2337 6.42676 23.9735C6.63949 24.92 7.01578 25.822 7.53809 26.6395C7.55226 26.6488 9.13021 27.6794 7.53809 27.6796C6.84064 27.7413 6.13933 27.7623 5.43945 27.7421C5.42828 27.7306 5.0821 27.3668 5.50195 26.702C5.50602 26.6959 5.87295 26.1408 5.37793 24.3817C5.19022 24.1041 5.08425 23.7791 5.07324 23.4442C5.06229 23.1094 5.14639 22.7784 5.31543 22.4891C5.67618 21.044 5.92239 19.5725 6.05273 18.0887C6.14914 17.2338 6.4552 16.416 6.94238 15.7069C6.9474 15.7022 8.16641 14.5493 7.05762 13.6356C6.60735 13.0937 6.25008 12.4808 6 11.8221C5.91111 12.9155 5.83118 14.0179 5.7334 15.1112C5.60897 16.5245 5.73284 18.0005 5.17285 19.3427C4.93093 20.0997 4.47748 20.7721 3.86621 21.2802C3.87001 20.8792 3.96506 20.4844 4.14258 20.1249C4.13104 20.1406 2.17439 22.7958 4.22168 18.4442C3.51259 19.2209 2.88723 20.0701 2.35547 20.9774C2.35547 20.9774 0.755694 22.3823 3.03125 19.0223C3.03125 19.0223 0.0797176 22.4442 3.15527 17.3153C3.14876 17.3189 2.0475 17.9251 3.03125 16.5868C2.35181 17.0693 1.83668 17.7486 1.55566 18.5331C1.67796 17.4802 2.10411 16.4854 2.78223 15.6708C2.26787 15.9639 1.82098 16.3627 1.47168 16.8407C1.12245 17.3186 0.878902 17.8652 0.755859 18.4442C0.755859 18.4442 0.0180596 17.2796 2.84473 14.7196C3.67525 12.6848 4.07441 10.4997 4.01758 8.30261C4.01758 8.30261 3.95561 5.0401 6.16895 4.67566C6.1796 4.66489 9.73397 1.07997 16.0889 3.88464C16.1157 3.89592 19.4251 5.28353 22.3643 3.99988C23.6385 3.5614 24.9657 3.29542 26.3105 3.20886C26.3105 3.20886 33.4224 1.61785 35.7246 1.20007C35.7564 1.19129 38.9296 0.315107 38.4355 1.07507C39.0809 0.807504 39.6998 0.480321 40.2842 0.0975342Z" fill="#80011F"/>
</svg>
