<svg width="48" height="48" viewBox="0 0 48 48" fill="none" xmlns="http://www.w3.org/2000/svg">
<path d="M28.5928 8.52173C28.8553 7.73573 29.7062 7.31294 30.4922 7.57544L34.9756 9.07544C35.4854 9.24501 35.8652 9.67547 35.9717 10.2034L39.0273 25.4915C43.1551 25.5097 46.5 28.8665 46.5 32.9973C46.4999 37.1401 43.1369 40.503 38.9941 40.5032C34.8512 40.5032 31.4884 37.1402 31.4883 32.9973C31.4883 29.8865 33.3852 27.2135 36.085 26.0764L35.0801 21.054L23.623 33.9915C23.3381 34.3124 22.9289 34.4973 22.5 34.4973H16.3623C15.6662 37.9217 12.6343 40.5032 9.00586 40.5032C4.86296 40.5032 1.50014 37.1402 1.5 32.9973C1.5 28.8543 4.86287 25.4915 9.00586 25.4915C10.1549 25.4915 11.2428 25.7492 12.2178 26.2112L16.0098 21.1516L14.7148 17.9973H13.5C12.6721 17.9973 12.0001 17.3252 12 16.4973C12 15.6693 12.672 14.9973 13.5 14.9973H18C18.8279 14.9974 19.5 15.6694 19.5 16.4973C19.4999 17.3252 18.8279 17.9972 18 17.9973H17.958L18.5283 19.386L34.2178 16.7405L33.1992 11.6428L29.5391 10.4192C28.7548 10.1566 28.3304 9.30609 28.5928 8.52173ZM14.6162 28.0129C15.4785 28.9834 16.0938 30.1775 16.3623 31.4973H20.2607L17.3369 24.3821L14.6162 28.0129ZM19.6982 22.2317L22.9707 30.2024L31.8447 20.1829L19.6982 22.2317Z" fill="#80011F"/>
</svg>
