<svg width="48" height="48" viewBox="0 0 48 48" fill="none" xmlns="http://www.w3.org/2000/svg">
<path d="M11.7832 9.00085H36.2617C36.2617 9.00085 37.254 8.99198 37.5449 9.88464L39.6074 16.2509V14.2177H43V16.6483H39.7461C39.8716 16.8985 40.2046 17.4002 40.9365 17.4003H41.166C41.1885 17.4002 42.1289 17.4036 42.1289 18.329V22.66C42.1293 22.67 42.1611 23.5887 41.5781 23.5887C41.5685 23.5887 40.9824 23.5886 40.9824 24.5175V24.7382C40.9828 24.7447 40.991 24.92 40.8906 25.1356H41.1201C42.082 25.1356 42.082 26.1083 42.082 26.1083V37.0721C42.082 38.0096 41.1201 37.9999 41.1201 37.9999H37.4072C36.4262 37.9997 36.4443 37.0712 36.4443 37.0712V33.3593H30.1191C30.1371 33.4568 30.1635 33.5308 30.165 33.535C30.165 34.4608 29.2266 34.4638 29.2031 34.4637H19.0723C18.091 34.4637 18.1094 33.535 18.1094 33.535V33.3593H11.6465V37.0721C11.6474 38.0096 10.6836 37.9999 10.6836 37.9999H7.0166C6.04578 37.9997 6.00879 37.0721 6.00879 37.0721V26.1083C6.00879 25.1813 6.99631 25.1364 7.0166 25.1356H7.29199C7.22756 25.0209 7.24608 24.9106 7.24609 24.7382V24.6503C7.24609 24.6503 7.23346 23.6766 6.37402 23.6766C6.35279 23.6767 5.50391 23.6738 5.50391 22.7489V19.1239C5.50391 19.1239 5.49566 18.1952 6.4668 18.1952H6.74219C6.76253 18.1943 7.67903 18.1477 7.97852 17.2675L8.20898 16.6473H5V14.2167H8.3916V16.162L10.501 9.88367C10.5084 9.86292 10.8247 8.99988 11.7842 8.99988L11.7832 9.00085ZM13.9375 19.036C12.9332 19.0361 12.1045 19.8333 12.1045 20.8036C12.1045 21.7731 12.9332 22.5271 13.9375 22.5272C14.9437 22.5272 15.7715 21.7731 15.7715 20.8036C15.7714 19.8341 14.9437 19.036 13.9375 19.036ZM33.9688 19.036C32.9644 19.0361 32.1358 19.8332 32.1357 20.8036C32.1357 21.7731 32.9644 22.5272 33.9688 22.5272C34.2043 22.5302 34.438 22.4877 34.6562 22.4022C34.8745 22.3167 35.0736 22.1898 35.2402 22.0292C35.4068 21.8686 35.5382 21.6771 35.627 21.4667C35.7157 21.2563 35.7598 21.0307 35.7568 20.8036C35.7568 19.8341 34.9759 19.036 33.9697 19.036H33.9688ZM7.7959 19.8309V21.7323H10.4082V19.8309H7.7959ZM37.6367 19.8309V21.7323H40.249V19.8309H37.6367ZM13.1592 11.7411L11.876 16.6044H35.6191L34.2441 11.7411H13.1592Z" fill="#80011F"/>
</svg>
