<svg width="48" height="48" viewBox="0 0 48 48" fill="none" xmlns="http://www.w3.org/2000/svg">
<path d="M42.1943 41.9999H33.3271L26.541 29.7167L27.5811 27.828L29.3799 29.411C29.4612 29.4827 29.5654 29.523 29.6738 29.5243H29.7529C29.8192 29.5172 29.8833 29.4934 29.9385 29.4559C29.9934 29.4185 30.0383 29.3682 30.0693 29.3094L30.5791 28.2577L32.5127 29.7616C32.5913 29.8196 32.6865 29.8516 32.7842 29.8524H32.8633C32.9215 29.8428 32.9776 29.8202 33.0264 29.787C33.075 29.7538 33.1162 29.7105 33.1465 29.66L34.2773 27.6014L42.1943 41.9999ZM25.6807 29.9198L32.3428 41.9657H6L15.0488 25.5428L17.1758 27.2616C17.2179 27.3004 17.2677 27.3299 17.3223 27.3475C17.3769 27.3651 17.4352 27.3712 17.4922 27.3641H17.583C17.6455 27.3544 17.7048 27.3292 17.7559 27.2919C17.8068 27.2546 17.8488 27.2058 17.877 27.1493L18.6006 25.8026L21.2363 27.6581C21.3048 27.7093 21.3881 27.7372 21.4736 27.7372H21.5527C21.6675 27.7104 21.7688 27.6417 21.8359 27.5448L23.1699 25.3505L25.6807 29.9198ZM30.9746 22.8397C31.1711 22.844 31.3637 22.8987 31.5322 22.9999C31.7006 23.1009 31.8393 23.2447 31.9355 23.4159L33.7686 26.7528L32.5811 28.8231L30.6123 27.2841C30.5388 27.2249 30.4469 27.1933 30.3525 27.1942H30.2617C30.1986 27.2069 30.1392 27.2349 30.0898 27.2762C30.0405 27.3177 30.0029 27.3715 29.9795 27.4315L29.4932 28.3934L28 27.0809L30.0137 23.4159C30.1099 23.2448 30.2486 23.1009 30.417 22.9999C30.5856 22.8988 30.7781 22.844 30.9746 22.8397ZM19.1318 7.99988C19.3417 7.99991 19.5439 8.08291 19.6924 8.23132C19.8408 8.37978 19.9238 8.58192 19.9238 8.79187V9.75281C20.1559 9.9259 20.4371 10.021 20.7266 10.0243C21.38 9.94944 22.0119 9.74198 22.582 9.41394C23.3587 8.98524 24.2196 8.72991 25.1045 8.66687C25.5002 8.66805 25.892 8.74793 26.2568 8.90125C26.6217 9.05456 26.9527 9.27859 27.2305 9.56042C27.3134 9.63162 27.3799 9.72057 27.4248 9.82019C27.4697 9.91983 27.4927 10.0283 27.4912 10.1376V16.0077C27.4939 16.1577 27.453 16.3054 27.375 16.4335C27.297 16.5615 27.1842 16.6649 27.0498 16.7313C26.9547 16.7774 26.8498 16.8011 26.7441 16.7997C26.5427 16.7987 26.3487 16.722 26.2012 16.5848C25.9258 16.2972 25.5475 16.1302 25.1494 16.121C24.4974 16.1948 23.8668 16.3989 23.2949 16.7206C22.5156 17.1545 21.6503 17.4131 20.7607 17.4784C20.4923 17.4749 20.2253 17.4324 19.9688 17.3534V19.8192C20.1253 19.9343 20.2565 20.0815 20.3535 20.2499L22.7627 24.5477L21.3604 26.7528L18.6914 24.8641C18.6178 24.8145 18.5311 24.7871 18.4424 24.785H18.2949C18.2363 24.8005 18.1811 24.8275 18.1328 24.8641C18.0844 24.9009 18.0434 24.9474 18.0127 24.9999L17.3115 26.2889L15.4561 24.7733L17.9561 20.2499C18.0449 20.0758 18.1777 19.9268 18.3408 19.8192V8.79187C18.3408 8.58192 18.4238 8.37978 18.5723 8.23132C18.7206 8.08311 18.9221 7.99997 19.1318 7.99988Z" fill="#80011F"/>
</svg>
