<svg width="48" height="48" viewBox="0 0 48 48" fill="none" xmlns="http://www.w3.org/2000/svg">
<path d="M27.5713 8.09363C34.5621 8.87602 40 14.8007 40 21.9999C40 29.7314 33.7315 35.9998 26 35.9999H25.8105C25.2157 38.2955 23.148 39.9999 20.666 39.9999H12.666C12.666 38.1144 13.1766 36.28 14.1113 34.6669C13.1753 33.0537 12.666 31.2216 12.666 29.3348L20.666 29.3319C23.1479 29.3319 25.2156 31.0378 25.8105 33.3329H26C29.3123 33.3328 32 30.6452 32 27.3329C31.9999 24.4998 30.0278 22.141 27.3887 21.5106C28.7782 19.4998 29.5209 17.1121 29.5166 14.6678C29.5208 12.334 28.8448 10.0495 27.5713 8.09363ZM24.0879 7.99988C27.7703 11.6807 27.7692 17.6513 24.0908 21.3309H24.0879C18.2652 21.3308 12.4399 19.1091 8 14.6688V14.6669C12.1171 10.5498 17.8069 7.99998 24.0879 7.99988ZM18.666 11.9999C18.4911 11.9998 18.3179 12.0346 18.1562 12.1014C17.9945 12.1684 17.8475 12.2667 17.7236 12.3905C17.5998 12.5143 17.5015 12.6613 17.4346 12.8231C17.3677 12.9848 17.3329 13.1579 17.333 13.3329C17.3329 13.508 17.3676 13.6818 17.4346 13.8436C17.5015 14.0054 17.5999 14.1524 17.7236 14.2762C17.8474 14.4 17.9945 14.4983 18.1562 14.5653C18.3179 14.6322 18.4911 14.6669 18.666 14.6669C18.8412 14.667 19.0149 14.6323 19.1768 14.5653C19.3386 14.4983 19.4855 14.4001 19.6094 14.2762C19.7332 14.1524 19.8315 14.0055 19.8984 13.8436C19.9654 13.6818 20.0001 13.508 20 13.3329C20 13.1579 19.9653 12.9848 19.8984 12.8231C19.8315 12.6614 19.7332 12.5143 19.6094 12.3905C19.4856 12.2667 19.3385 12.1684 19.1768 12.1014C19.0149 12.0345 18.8411 11.9998 18.666 11.9999Z" fill="#80011F"/>
</svg>
