<svg width="48" height="48" viewBox="0 0 48 48" fill="none" xmlns="http://www.w3.org/2000/svg">
<path d="M19.5527 9.13867C20.0102 8.18556 21.3068 8.11506 21.8105 9.04883C21.9493 9.30639 21.9156 9.67107 22.1777 9.72363H38.8564C39.4407 9.8358 39.3842 11.1412 39.3311 11.6055C39.2949 11.9156 38.9914 12.3467 38.6865 12.3467H21.9629L21.9648 12.3477V16.8965H40.7412L43.832 12.623C44.262 12.3482 44.988 12.8577 45.3633 13.1328C45.6271 13.3255 45.953 13.4837 45.917 13.8691C45.8548 14.5353 43.4961 17.1928 43.1055 18.0039L43.0264 18.2373C43.354 19.0279 45.9326 22.0181 45.9258 22.626C45.9206 23.0044 45.1029 23.4806 44.7773 23.6436C44.4861 23.7907 44.2225 24.0084 43.8867 23.8262C42.6926 22.5314 41.8259 20.9212 40.7432 19.5195H28.5117L28.3828 19.6504V25.7725C28.3828 25.9844 28.1584 26.778 28.083 27.041C27.3566 29.5868 25.3403 31.5235 22.9023 32.3418L24.1152 35.8652C24.2521 35.9822 27.1453 35.8163 27.6562 35.874C28.0314 35.9178 28.3128 36.033 28.3779 36.4463C28.443 36.8597 28.5081 38.3049 28.0459 38.458L8.23438 38.5C6.59308 38.2915 5.72985 36.751 5.97656 35.1338C6.08498 34.4299 7.3457 34.4977 7.875 34.5801C8.61317 34.6958 8.56526 35.2221 8.53613 35.8721L10.792 35.8594L12.0449 32.6357H9.77832C7.57672 32.6357 5.08577 30.7011 4.86133 28.3936C4.50686 24.7493 7.43445 20.6272 10.3418 18.7822C13.2629 16.9286 16.0058 16.7053 19.4014 16.8945V12.3467H2.76074C2.44549 12.3467 2.15586 12.0218 2.11816 11.6924C2.0582 11.17 1.9674 9.84829 2.59082 9.72559H19.3418C19.4497 9.70107 19.486 9.28091 19.5527 9.13867ZM14.7705 32.6914L13.582 35.874H21.3652L20.2412 32.6494L14.9043 32.6309L14.7705 32.6914ZM15.5918 19.5195C14.5094 19.6211 14.3289 19.7734 14.0566 19.875C11.8038 20.7125 9.3263 22.5013 8.36328 24.7666H18.4131C19.0659 24.7666 19.3965 24.4706 19.3965 23.8486V19.5195H15.5918Z" fill="#80011F"/>
</svg>
